<?xml version="1.0" encoding="utf-8"?><svg xmlns="http://www.w3.org/2000/svg" xmlns:xlink="http://www.w3.org/1999/xlink" style="display:none"><symbol viewBox="0 0 14 12" id="email" xmlns="http://www.w3.org/2000/svg"><path d="M7 7l7-3.997V2s0-2-2-2H2C0 0 0 2 0 2v1.003L7 7z"/><path d="M7 8L0 4v6s0 2 2 2h10c2 0 2-2 2-2V4L7 8z"/></symbol><symbol viewBox="0 0 14 14" id="phone" xmlns="http://www.w3.org/2000/svg"><path d="M13.993 11.049a.677.677 0 01-.207.593L11.815 13.6a1.11 1.11 0 01-.349.252c-.143.069-.284.113-.422.133l-.089.008c-.05.005-.114.007-.193.007-.187 0-.491-.032-.911-.096-.42-.065-.934-.223-1.541-.475-.608-.252-1.297-.63-2.068-1.135-.77-.504-1.59-1.196-2.46-2.076a16.248 16.248 0 01-1.72-1.957A13.948 13.948 0 01.967 6.533a9.31 9.31 0 01-.623-1.439c-.138-.43-.232-.8-.281-1.112a3.676 3.676 0 01-.06-.734c.01-.178.015-.277.015-.297.02-.138.065-.279.134-.422.069-.144.153-.26.252-.349L2.373.208A.653.653 0 012.849 0c.129 0 .242.037.341.111.099.074.183.166.252.275l1.586 3.01a.722.722 0 01.074.52.925.925 0 01-.252.474l-.726.727a.247.247 0 00-.052.096.366.366 0 00-.022.111c.04.208.128.445.266.712.119.237.302.526.549.868.247.34.597.734 1.052 1.179.445.454.84.808 1.186 1.06.345.252.634.437.867.556.232.119.41.19.533.215l.185.037c.02 0 .052-.007.097-.022a.247.247 0 00.096-.052l.845-.86a.907.907 0 01.622-.237c.168 0 .302.03.4.089h.015l2.86 1.69c.208.129.332.292.371.49z"/></symbol><symbol viewBox="0 0 15 15" id="star" xmlns="http://www.w3.org/2000/svg"><path d="M11.446 9.359a.54.54 0 00-.142.47l.854 5.144-4.408-2.418a.488.488 0 00-.47 0L2.887 15l.824-5.151a.545.545 0 00-.146-.467L0 5.747l4.92-.768a.503.503 0 00.376-.29L7.48 0l2.216 4.677a.515.515 0 00.38.29L15 5.704l-3.554 3.655z"/></symbol></svg>