<?xml version="1.0" encoding="utf-8"?><svg xmlns="http://www.w3.org/2000/svg" xmlns:xlink="http://www.w3.org/1999/xlink" style="display:none"><symbol viewBox="0 0 427 427" id="GKT" xmlns="http://www.w3.org/2000/svg"><defs><linearGradient id="ab" x1=".615" y1=".631" x2=".345" gradientUnits="objectBoundingBox"><stop offset="0" stop-color="#fff"/><stop offset="1" stop-color="#c5edff"/></linearGradient><filter id="aa" x="0" y="0" width="427" height="427" filterUnits="userSpaceOnUse"><feOffset dx="6" dy="8"/><feGaussianBlur stdDeviation="30" result="blur"/><feFlood flood-color="#fff" flood-opacity=".42"/><feComposite operator="in" in2="blur"/><feComposite in="SourceGraphic"/></filter></defs><g data-name="&#x43D;&#x43E;&#x440;&#x43C;&#x430;&#x43B;&#x438;&#x437;&#x443;&#x435;&#x442; &#x440;&#x430;&#x431;&#x43E;&#x442;&#x443; &#x416;&#x41A;&#x422;"><g filter="url(#aa)"><circle data-name="Ellipse 49" cx="123.5" cy="123.5" r="123.5" transform="translate(84 82)"/></g><path d="M269.555 110.043c-53.6-51.393-87.7 4.66-87.7 4.66-25.132-4.325-29.773-25.953-29.773-25.953l-28.616 11.309s6.657 36.609 56.905 45.926c0 0 .523 16.973 13.977 23.63v21.965s-17.97 6.657-19.635 20.3c0 0-20.965-6.989-34.61 8.986-.001-.001-69.553-37.885-69.553 47.284h19.967c0-24.05 13.238-29.057 20.3-21.992 19.208 19.208 30.282 4.66 30.282 4.66 35.609 21.3 65.89 16.972 65.89 16.972 77.506 2.332 124.683-98.191 62.566-157.747z"/><path data-name="Shape" d="M200.767 272.5c-11.255 0-33.451-2.184-58.636-16.442a19.228 19.228 0 01-10.8 4.277c-7.526.48-15.278-3.235-23.187-11.107a5.236 5.236 0 00-5.875-1.382c-3.733 1.547-7.72 7.771-7.72 20.629a4.027 4.027 0 01-8.054 0c0-20.574 8.875-26.454 12.693-28.029a13.345 13.345 0 0114.654 3.122c6.052 6.025 11.911 9.115 16.82 8.778a11.121 11.121 0 007.691-3.735l2.195-2.742 3.052 1.761c34.128 20.322 63.524 16.553 63.814 16.505l.334-.048.346.009c34.857 1.166 66.46-20.081 80.679-53.817 11.34-26.906 11.912-66.674-20.5-97.6-16.151-15.419-31.908-22.279-46.827-20.345-21.979 2.826-35.244 24-35.377 24.217l-1.425 2.313-2.694-.453c-27.709-4.746-33.065-28.165-33.283-29.159a4.027 4.027 0 017.872-1.7c.177.786 4.244 17.756 24.254 22.449 4.5-6.273 18.242-22.83 39.548-25.607 17.477-2.273 35.484 5.295 53.509 22.5 29.577 28.225 38.142 69.031 22.353 106.486-15.479 36.713-50.079 59.588-88.024 58.739a61.14 61.14 0 01-7.412.381z"/><path data-name="Shape" d="M70.2 272.5a4 4 0 01-4-4.012c0-27.824 7.249-46.252 21.544-54.774 18.657-11.118 42.992-1.5 51.2 2.347 11.236-11.081 25.566-10.239 32.584-8.943 3.459-9.97 13.735-15.876 18.621-18.191v-17.076c-9.949-6.195-12.831-17.256-13.659-22.737-49.769-10.6-56.958-47.2-57.246-48.78a4 4 0 117.865-1.448c.26 1.4 6.989 34.224 53.776 42.926l3.167.59.1 3.234c0 .132.668 14.757 11.772 20.265l2.227 1.1v27.339l-2.6.979c-.16.06-15.738 6.038-17.086 17.12l-.592 4.875-4.642-1.557c-.744-.237-18.653-5.9-30.348 7.828l-2.1 2.467-2.85-1.552c-.272-.152-27.753-14.853-46.119-3.884C80.123 227.6 74.2 243.709 74.2 268.488a4.007 4.007 0 01-4 4.012z"/></g></symbol><symbol viewBox="0 0 304 304" id="anis" xmlns="http://www.w3.org/2000/svg"><defs><filter id="ba" x="0" y="0" width="304" height="304" filterUnits="userSpaceOnUse"><feOffset dx="6" dy="6"/><feGaussianBlur stdDeviation="14" result="blur"/><feFlood flood-color="#d691a2" flood-opacity=".239"/><feComposite operator="in" in2="blur"/><feComposite in="SourceGraphic"/></filter></defs><g data-name="&#x44D;&#x444;&#x438;&#x440; &#x430;&#x43D;&#x438;&#x441;&#x430;"><g filter="url(#ba)"><circle data-name="Ellipse 16" cx="110" cy="110" r="110" transform="translate(36 36)"/></g><g data-name="Group 31"><g data-name="Group 22"><path data-name="Path 122" d="M130.009 106.218a113.678 113.678 0 01.662-67.731c18.624 14.192 21.926 40.569 22.4 63.978 2.638-19.635 17.552-37.079 36.54-42.735 6.615 18.453-5.993 38.166-20.139 51.738a79.662 79.662 0 0161.983-2.146c-10.677 16.532-32.091 21.671-51.405 25.447a73.591 73.591 0 0135.21 31.858c-17.518 3.877-35.173-4.493-51.165-12.625a173.446 173.446 0 01-9.69 63.111 137.86 137.86 0 01-24.214-58.456c.92 18.671-14.576 33.581-28.8 45.71a63.894 63.894 0 0114.347-51.907 310.142 310.142 0 01-56.205-18.275c17.166-12.879 43.5 2.92 62.663-6.736-10.935-4.172-21.834-9.093-30.52-16.938s-14.955-19.083-14.4-30.773a106.223 106.223 0 0152.6 28.237"/><path data-name="Path 123" d="M132.471 105.539a112 112 0 01.661-66.374l-4.263 1.124c18.67 14.44 21.187 40.285 21.651 62.175.058 2.743 4.6 3.631 5.01.679 2.661-18.884 16.455-35.372 34.759-40.953l-3.138-1.782c6.422 18.55-6.755 36.963-19.482 49.255-2.2 2.126.583 5.172 3.092 4.007a77.558 77.558 0 0160.017-1.888l-1.526-3.748c-10.746 16.348-31.982 20.765-49.881 24.273-2.034.4-2.612 3.8-.609 4.663a71.978 71.978 0 0134.295 30.943l1.524-3.748c-17.278 3.651-34.217-4.758-49.2-12.367a2.577 2.577 0 00-3.838 2.2 173.146 173.146 0 01-9.6 62.432l4.661-.609a137.384 137.384 0 01-23.957-57.847c-.468-2.843-5.122-2.167-5.01.679.733 18.714-15.029 32.78-28.054 43.905l4.264 1.126a61.466 61.466 0 0113.694-49.424c1.167-1.371.883-3.814-1.126-4.265a310.721 310.721 0 01-55.594-18.018v4.4c8.874-6.49 20.221-5.167 30.52-4.1 10.806 1.117 22.052 2.311 32.144-2.634 2.163-1.061 1.25-3.951-.609-4.663-10.753-4.117-21.654-8.984-30.14-16.971-7.784-7.325-13.3-17.38-12.906-28.28l-3.229 2.459a104.584 104.584 0 0151.475 27.581c2.345 2.3 5.956-1.3 3.607-3.607A109.472 109.472 0 0077.958 77.27a2.589 2.589 0 00-3.23 2.459c-.435 11.954 5.466 23.253 13.911 31.421 9.2 8.9 21.079 14.231 32.88 18.75l-.609-4.663c-9.864 4.835-21.547 2.719-32.018 1.69-10.44-1.027-21.751-1.459-30.645 5.047-1.35.988-1.946 3.563 0 4.4a317.6 317.6 0 0056.811 18.535l-1.124-4.264a66.994 66.994 0 00-15 54.39c.347 2.054 2.959 2.241 4.264 1.126 14.12-12.061 30.339-27.331 29.549-47.514l-5.012.678a140.732 140.732 0 0024.472 59.065 2.591 2.591 0 004.663-.609 177.344 177.344 0 009.78-63.789l-3.84 2.2c16.345 8.3 34.344 16.852 53.133 12.882a2.575 2.575 0 001.524-3.746 76.407 76.407 0 00-36.125-32.773l-.61 4.661c19.426-3.808 41.337-8.981 52.932-26.618a2.585 2.585 0 00-1.525-3.747 82.613 82.613 0 00-63.949 2.4l3.092 4.005c14.018-13.539 27.826-33.907 20.794-54.218a2.6 2.6 0 00-3.138-1.782c-19.855 6.054-35.416 23.9-38.322 44.518l5.012.677c-.492-23.13-3.434-50.538-23.146-65.782-1.515-1.172-3.626-.859-4.263 1.126a116.932 116.932 0 00-.662 69.088c.94 3.136 5.867 1.8 4.92-1.357z"/></g><g data-name="Group 23"><path data-name="Path 124" d="M147.154 160.597c-1.105-.258-1.789 1.162-1.986 2.279a46.77 46.77 0 00-.493 12.554c.179 1.857.534 3.842 1.854 5.163.524.526 1.374.917 1.986.5a1.893 1.893 0 00.594-.876 23.634 23.634 0 00-1.289-20.617"/><path data-name="Path 125" d="M147.153 158.046c-2.107-.264-3.607 1.571-4.233 3.354a23.912 23.912 0 00-.862 5.85 46.825 46.825 0 00-.078 6.294 21.285 21.285 0 00.784 5.5c.638 1.913 1.874 3.895 3.894 4.554a3.846 3.846 0 003.143-.31 5.064 5.064 0 001.9-2.724 25.247 25.247 0 001.7-10.461 26.5 26.5 0 00-3.383-11.8c-1.616-2.857-6.025-.289-4.4 2.577a21.1 21.1 0 011.293 18 3.449 3.449 0 00-.241.527q1.656.265 1.665-.624c-.26-.151-.332-.231-.214-.242a10.439 10.439 0 01-.694-1.816 26.115 26.115 0 01-.408-5.075 48.008 48.008 0 01.284-5.87 21.668 21.668 0 01.355-2.362c.024-.11.16-.821.155-.571q.247-.408.063-.117-1.6.365-.719.413a2.564 2.564 0 002.551-2.551 2.616 2.616 0 00-2.551-2.551z"/></g><g data-name="Group 24"><path data-name="Path 126" d="M118.489 163.195a.937.937 0 00.328-1.136 33.908 33.908 0 00-8.587 13.423 4.655 4.655 0 00-.342 2.391 1.751 1.751 0 001.673 1.483 2.447 2.447 0 001.446-.866 21.413 21.413 0 006.082-13.295c.063-.821-.165-1.93-.988-1.968"/><path data-name="Path 127" d="M120.294 165.001a3.512 3.512 0 00.985-3.617 2.579 2.579 0 00-4.263-1.126 36.97 36.97 0 00-6.022 7.57 34.522 34.522 0 00-2.087 4.09 14.519 14.519 0 00-1.619 5.355 4.539 4.539 0 003.357 4.541c2.078.454 3.658-.9 4.939-2.338a24.625 24.625 0 004.927-8.51 24.076 24.076 0 001.1-5.345c.19-1.947-.582-4.493-2.823-4.849a2.628 2.628 0 00-3.138 1.781 2.571 2.571 0 001.781 3.138q.867.184-.782-.665c-.121-.3-.138-.3-.056-.015-.039-.311-.053-.32-.036-.02a6.72 6.72 0 01-.034.49c-.017.187-.037.374-.06.561a27.881 27.881 0 01-.233 1.263 20.558 20.558 0 01-1.267 3.918 22.248 22.248 0 01-2.145 3.629 7.408 7.408 0 01-.471.592q-.362.428-.748.84c-.139.15-.713.563-.753.748.122-.553 1.236-.019 1.444.1a.529.529 0 01.129.3c-.088-.26-.1-.313-.026-.161-.061.17-.049.1.036-.226.049-.2.105-.4.168-.594.231-.735.508-1.463.808-2.172-.065.153.262-.583.318-.707.121-.26.245-.519.372-.777q.51-1.028 1.087-2.024a30.411 30.411 0 015.444-6.908l-4.263-1.126a1.818 1.818 0 01.327-1.345 2.573 2.573 0 000 3.607 2.6 2.6 0 003.609 0z"/></g><g data-name="Group 25"><path data-name="Path 128" d="M99.237 137.313l-2.471-.51c.209 1.277 1.6 1.947 2.825 2.378a85.136 85.136 0 0013.957 3.634 2.116 2.116 0 001.646-.175 1.439 1.439 0 00.124-1.923 3.824 3.824 0 00-1.75-1.168 29.621 29.621 0 00-14.8-1.978"/><path data-name="Path 129" d="M99.915 134.85l-2.471-.51a2.585 2.585 0 00-3.138 3.139c.731 3.224 4.388 4.133 7.109 5a85.169 85.169 0 009.549 2.444c1.692.33 3.655.925 5.277.056a3.839 3.839 0 001.66-4.74c-.67-1.808-2.284-2.61-3.966-3.279a29.128 29.128 0 00-4.323-1.337 32.106 32.106 0 00-10.848-.607 2.632 2.632 0 00-2.551 2.551 2.566 2.566 0 002.551 2.551 28.16 28.16 0 018.672.25 29.523 29.523 0 014.359 1.214c.366.133.743.259 1.1.423-.337-.158.366.216.357.211-.15-.15-.116-.119.1.1a.716.716 0 01-.276-.6.874.874 0 01.037-.318q2.25-1.138 1.012-1.063c.332.092-.512-.09-.59-.105-.463-.082-.925-.17-1.384-.26q-1.038-.2-2.068-.435-2.408-.536-4.779-1.211-2.2-.628-4.367-1.372c-.338-.116-.682-.225-1.014-.361l.031.012a6.35 6.35 0 01-.449-.231c-.558-.238.175.2-.269-.174q-.309-.326-.031-.027.143.393.024-.047l-3.139 3.138 2.471.51a2.615 2.615 0 003.139-1.781 2.579 2.579 0 00-1.782-3.139z"/></g><g data-name="Group 26"><path data-name="Path 130" d="M104.556 104.895c-.888.682.032 2.059.942 2.714a48.061 48.061 0 0012.4 6.42c1.393.48 3.371.651 3.92-.714.415-1.029-.376-2.122-1.16-2.9a27.448 27.448 0 00-16.095-7.775 7.047 7.047 0 004.57 3.583"/><path data-name="Path 131" d="M102.75 103.091c-1.8 1.7-1.111 4.248.41 5.854a20.521 20.521 0 004.355 3.046 45.349 45.349 0 009.913 4.564 6.465 6.465 0 005.075-.308 4.3 4.3 0 001.391-5.765 13.37 13.37 0 00-3.732-3.927 29.59 29.59 0 00-15.6-6.476c-2.036-.247-3.025 2.315-2.2 3.838a9.726 9.726 0 006.1 4.755 2.551 2.551 0 101.355-4.918 12.078 12.078 0 01-.624-.184c-.228-.073.134.1-.23-.094-.192-.1-.383-.2-.568-.32-.051-.032-.5-.342-.224-.127a6.68 6.68 0 01-.844-.811c-.156-.172.054.131-.158-.2-.141-.219-.274-.44-.4-.672l-2.2 3.838a3.093 3.093 0 01.432.061c.321.056.645.109.964.173.641.126 1.279.276 1.908.447q.88.24 1.74.537c.265.092.527.189.789.287.4.155.413.153.687.276a26.84 26.84 0 016.121 3.731q.643.541 1.25 1.122c.236.226.478.452.69.7.185.213.09.1.053.048.049.068.221.471.287.488-.289-.075.048-.84.128-.949a1.452 1.452 0 01.31-.267c-.043.034-.338.179-.043.032s-.029-.037-.075-.014c.337-.174.3-.005.048-.032a1.659 1.659 0 00-.33-.012c-.31.041.313.1.01.005a41.106 41.106 0 01-6.918-2.823q-2.025-1.056-3.945-2.3a16.321 16.321 0 01-1.886-1.289c.439.384-.452-.522-.065-.128-.075-.075-.107-.344-.068-.1a1.665 1.665 0 01-.293 1.52 2.551 2.551 0 00-3.609-3.607z"/></g><g data-name="Group 27"><path data-name="Path 132" d="M137.765 80.331c-.087-.515-.818.111-.823.633a36.244 36.244 0 003.575 16.017c.362.752 1.119 1.621 1.854 1.228a1.562 1.562 0 00.629-1.012 26.971 26.971 0 00-1.566-19.006c-.354-.735-1.549-1.412-1.757-.623"/><path data-name="Path 133" d="M139.967 79.043c-1.3-2.774-4.944-1.134-5.485 1.243a11.489 11.489 0 00-.031 3.122c.068 1.167.2 2.327.366 3.485a34.058 34.058 0 003.563 11.5c1.116 2.02 3.716 3.372 5.729 1.675 1.456-1.229 1.76-3.519 2.049-5.306a30.393 30.393 0 00-.384-11.915 20.9 20.9 0 00-2.255-6.144c-1.247-1.976-4.843-3.144-6.046-.425a2.632 2.632 0 00.915 3.49 2.569 2.569 0 003.49-.915l-.2.223-1.126.657a1.218 1.218 0 01-1.367-.3c.2.194.235.23.109.107q-.214-.229.083.257c.1.214.2.43.289.648.231.558.429 1.136.614 1.711a24.73 24.73 0 011.032 4.486 24.348 24.348 0 01-.418 8.5 23.923 23.923 0 01-.432 1.611l2.536-.629c0-.01-.311-.5-.362-.6a19.926 19.926 0 01-.544-1.2 34.307 34.307 0 01-1.466-4.362 32.584 32.584 0 01-.895-4.491c-.09-.748-.151-1.5-.192-2.25q-.031-.564-.042-1.128c-.005-.25-.009-.5-.009-.752-.568.784-.663 1.005-.281.662l-1.126.656.158-.06h-1.348l.126.037-1.524-1.173.071.155a2.574 2.574 0 003.491.915 2.609 2.609 0 00.915-3.49z"/></g><g data-name="Group 28"><path data-name="Path 134" d="M167.961 91.413a28.73 28.73 0 00-11.1 16.646c.974.708 2.292-.085 3.2-.889a45.64 45.64 0 0012.036-17.348 1.763 1.763 0 00.071-1.607c-.566-.818-1.8-.107-2.476.619l-3.155 3.4"/><path data-name="Path 135" d="M166.676 89.211a31.636 31.636 0 00-12.275 18.169 2.618 2.618 0 001.172 2.881c3.719 2.177 7.258-2.005 9.534-4.5a48.9 48.9 0 006.194-8.432 45.611 45.611 0 002.238-4.4c.811-1.828 2.039-4.056.833-6-1.2-1.93-3.622-1.976-5.374-.815-1.643 1.09-2.93 2.883-4.263 4.318-2.231 2.4 1.369 6.02 3.607 3.607 1.008-1.085 2.005-2.184 3.024-3.258.044-.044.48-.473.208-.26a2.253 2.253 0 01.34-.209c.3-.153.138-.121-.486.092l-1.609-1.8a4.173 4.173 0 01-.18.546c-.092.257-.2.512-.308.764a43.865 43.865 0 01-3.282 6.252 41.231 41.231 0 01-4.112 5.508q-1.191 1.344-2.488 2.59a13.847 13.847 0 01-1.429 1.306c-.8.575-.5-.077.129.289l1.173 2.881a26.369 26.369 0 019.93-15.12 2.623 2.623 0 00.915-3.49 2.569 2.569 0 00-3.49-.915z"/></g><g data-name="Group 29"><path data-name="Path 136" d="M193.399 115.71c-.1-1.386-2.168-1.318-3.463-.811-5.9 2.308-12.151 4.893-15.7 10.134a32.114 32.114 0 0018.107-7.741c.762-.665 1.529-1.816.859-2.575-.9-1.019-2.442.493-3.8.532"/><path data-name="Path 137" d="M195.863 115.032c-.425-2.8-3.709-3.333-5.976-2.787a22.333 22.333 0 00-3.126 1.19c-1.18.485-2.355.979-3.512 1.515-4.4 2.036-8.428 4.764-11.216 8.8a2.564 2.564 0 002.2 3.838 35.084 35.084 0 0015.981-5.5 37.6 37.6 0 003.447-2.576 5.558 5.558 0 002.345-4.1 3.642 3.642 0 00-3.539-3.592 4.876 4.876 0 00-1.794.357c-.245.1-.483.207-.728.3-.122.048-1.048.267-.549.225a2.617 2.617 0 00-2.551 2.551 2.572 2.572 0 002.551 2.551 11.56 11.56 0 002.869-.8l.231-.077c.267-.065.3-.075.1-.034q-.612.173-.906-.73-1.117-.418-.643-1.284c.083.18-.566.66-.748.818a28.131 28.131 0 01-4.836 3.298 29.807 29.807 0 01-11.229 3.491l2.2 3.84a17.586 17.586 0 013.374-3.491 29.719 29.719 0 014.658-2.823c1.653-.83 3.124-1.451 4.76-2.1a15.171 15.171 0 012.235-.791c-.5.112-.012.02.111.005.337-.044.347.172.066-.031.253.182.054.046-.077-.06a.937.937 0 01-.447-.51q-.288-.6-.175-.133a2.568 2.568 0 003.138 1.782 2.617 2.617 0 001.782-3.138z"/></g><g data-name="Group 30"><path data-name="Path 138" d="M171.758 145.769c.121-.333-.575-.374-.638-.026s.25.64.536.847a38.034 38.034 0 0013.7 6.314c1.867.439 4.015.682 5.544-.476a1.073 1.073 0 00.529-.944 1.223 1.223 0 00-.539-.7 41.944 41.944 0 00-18.534-8.177"/><path data-name="Path 139" d="M174.31 145.769a2.873 2.873 0 00-5.52-1.008c-1.025 2.585 1.65 4.16 3.473 5.331a40.392 40.392 0 0010.709 4.826 16.29 16.29 0 005.588.881c2.007-.156 4.44-.985 5.19-3.059.98-2.709-1.619-4.275-3.529-5.587a41.675 41.675 0 00-4.77-2.828 44.7 44.7 0 00-12.413-4.173 2.623 2.623 0 00-3.138 1.782 2.573 2.573 0 001.781 3.138 39.906 39.906 0 019.476 2.837 42.287 42.287 0 014.449 2.335 16.258 16.258 0 013.913 2.774l-.655-1.126v-.134l.349-1.287a.319.319 0 00.153-.072q-.431.209-.184.128a1.863 1.863 0 01-.775.184 5.854 5.854 0 01-1.776-.134 33.3 33.3 0 01-4.991-1.452 33.724 33.724 0 01-4.529-2.082q-1.084-.594-2.129-1.258-.594-.38-1.177-.781c-.094-.065-.673-.68-.468-.3l.347 1.287-.015-.25-.349 1.287.078-.141-.915.915.143-.08-1.287.347-.359-.075-1.126-.656.1.09-.748-1.8v.143c.015 3.282 5.117 3.287 5.1 0z"/></g><path data-name="Path 140" d="M152.674 131.867c.09-.129.18-.258.272-.386.037-.051.294-.389.085-.117-.236.3.141-.17.153-.184.08-.1.162-.194.243-.287a16.644 16.644 0 011.179-1.219c.206-.194.418-.381.634-.563.1-.082.2-.158.291-.242.235-.2-.383.277.005-.005.457-.333.923-.653 1.41-.944q.686-.413 1.41-.76c.143-.068.286-.133.429-.2.388-.18-.08.053-.09.036.005.007.723-.275.794-.3a15.882 15.882 0 011.628-.476c.274-.066.551-.124.83-.175.122-.024.247-.042.371-.065.641-.111-.577.066.07-.009l-1.287-4.753q-5.416 3.52-10.593 7.382a2.61 2.61 0 00-1.218 2.542 2.646 2.646 0 001.827 2.121l10.983 4.609a2.558 2.558 0 003.138-1.782 2.631 2.631 0 00-1.782-3.138l-10.981-4.609.609 4.661q5.176-3.86 10.593-7.382a2.609 2.609 0 001.172-2.881 2.568 2.568 0 00-2.459-1.872 19.747 19.747 0 00-14.117 8.422 2.566 2.566 0 00.915 3.49 2.615 2.615 0 003.49-.915z"/><path data-name="Path 141" d="M148.619 135.404a23.043 23.043 0 011.849 2.784q.408.73.762 1.488a10.723 10.723 0 01.488 1.194 19.478 19.478 0 011.247 6.134l4.753-1.287a35.712 35.712 0 01-5.049-11.095 2.578 2.578 0 00-4.264-1.126 93.992 93.992 0 00-11.75 13.325 2.569 2.569 0 00.915 3.49 2.606 2.606 0 003.49-.915 88.31 88.31 0 0110.952-12.292l-4.263-1.124a41.05 41.05 0 005.565 12.313 2.632 2.632 0 002.881 1.172 2.582 2.582 0 001.872-2.459 25 25 0 00-5.042-14.175 2.638 2.638 0 00-3.49-.917 2.567 2.567 0 00-.915 3.491z"/><path data-name="Path 142" d="M149 131.204a32.661 32.661 0 01-3.74.134 30.651 30.651 0 01-1.869-.1 42.436 42.436 0 01-.8-.075 47.99 47.99 0 01-.531-.063c.192.027.2.029.015 0a32.169 32.169 0 01-7.092-1.888 2.56 2.56 0 00-3.138 1.782 2.624 2.624 0 001.78 3.142 34 34 0 0015.372 2.17 2.607 2.607 0 002.551-2.551 2.58 2.58 0 00-2.551-2.551z"/><path data-name="Path 143" d="M147.592 130.156c.326-.223.406-.287.243-.192-.117.065-.075.046.128-.053.139-.053.872-.105.486-.146.18.019.605.153.219 0-.257-.1.573.327.146.053-.085-.054-.173-.107-.26-.16-.439-.262.287.274.078.066-.189-.187-.388-.354-.565-.553-.852-.959-1.6-2.036-2.386-3.047l-4.92-6.33a2.543 2.543 0 00-1.8-.747 2.6 2.6 0 00-1.8.747 2.568 2.568 0 00-.747 1.8 3 3 0 00.747 1.8l5.677 7.3a14.626 14.626 0 003.02 3.272 5.016 5.016 0 002.468.881 3.842 3.842 0 002.881-1.09 2.57 2.57 0 000-3.609 2.614 2.614 0 00-3.609 0z"/></g></g></symbol><symbol viewBox="0 0 40 69.165" id="arrow" xmlns="http://www.w3.org/2000/svg"><defs><style>.ccls-1{fill:#0097d8}</style></defs><g id="cright-arrow" transform="rotate(180 70.739 34.583)"><g id="cGroup_4" data-name="Group 4" transform="translate(101.478)"><path id="cPath_14" d="M140.392 31.883L110.093 1.1a3.691 3.691 0 00-5.267 0l-2.231 2.266a3.831 3.831 0 000 5.351l25.443 25.846-25.472 25.879a3.835 3.835 0 000 5.351l2.234 2.267a3.691 3.691 0 005.267 0l30.327-30.807a3.861 3.861 0 000-5.369z" class="ccls-1" data-name="Path 14" transform="translate(-101.478)"/></g></g></symbol><symbol viewBox="0 0 117.621 198.258" id="birth" xmlns="http://www.w3.org/2000/svg"><g data-name="&#x440;&#x430;&#x437;&#x440;&#x435;&#x448;&#x435;&#x43D; &#x441; &#x440;&#x43E;&#x436;&#x434;&#x435;&#x43D;&#x438;&#x44F;"><path data-name="Path 57" d="M68.664 97.675a555.19 555.19 0 01-3.751 20.271 100.211 100.211 0 01-5.378 18.472l2.171-5.146a79.2 79.2 0 01-9.958 17.147l3.368-4.36a43.024 43.024 0 01-6.715 7.3l4.36-3.369a18.622 18.622 0 01-2.437 1.6 22.064 22.064 0 00-9.9 12.874 16.318 16.318 0 00-.384 8.59 16.018 16.018 0 002.556 8.009c2.966 4.6 7.38 8.649 12.874 9.9a23.027 23.027 0 0016.6-2.171 35.472 35.472 0 004.616-3.279 40.81 40.81 0 004.519-3.825 62.093 62.093 0 004.377-5.163 105.148 105.148 0 0010.5-15.514 109.874 109.874 0 007.3-17.353 132.227 132.227 0 003.583-14.774q1.761-8.852 3.243-17.755a16.318 16.318 0 00.385-8.59 16.041 16.041 0 00-2.556-8.009 16.29 16.29 0 00-5.548-6.045 16.225 16.225 0 00-7.327-3.855c-5.513-1.257-11.7-.985-16.6 2.171l-4.36 3.369a21.514 21.514 0 00-5.54 9.506z"/><path data-name="Path 58" d="M54.607 60.344a6.577 6.577 0 01.339.667l-2.171-5.146a8.348 8.348 0 01.5 1.752l-.77-5.727a8.686 8.686 0 01.025 1.807l.77-5.727a8.911 8.911 0 01-.562 2.119l2.172-5.145a9.783 9.783 0 01-.933 1.626l3.369-4.36a9.724 9.724 0 01-1.64 1.658l4.36-3.368a12.53 12.53 0 01-2.342 1.307l5.146-2.171a76.768 76.768 0 01-11.266 3.179q-5.931 1.384-11.952 2.313l-5.146 2.171a16.278 16.278 0 00-6.044 5.548 10.76 10.76 0 00-2.771 4.754 16.227 16.227 0 00-1.855 8.3l.77 5.727 2.172 5.146a16.277 16.277 0 005.548 6.044 16.217 16.217 0 007.325 3.856l.9.369a16.318 16.318 0 008.59.384 16.018 16.018 0 008.009-2.556 16.267 16.267 0 006.044-5.548 16.223 16.223 0 003.856-7.325c1.257-5.515.984-11.7-2.172-16.6l-3.368-4.36a21.521 21.521 0 00-9.506-5.54l-.9-.369v41.545q5.883-.919 11.689-2.251a86.876 86.876 0 0010.863-2.979c5.293-1.982 8.551-3.633 12.826-7.358a23.945 23.945 0 003.012-3.589 20.179 20.179 0 002.617-3.808 31.926 31.926 0 002.616-6.546 49.269 49.269 0 00.887-6.446 9.4 9.4 0 00.041-1.087 30.565 30.565 0 00-3.846-14.012 16.278 16.278 0 00-5.548-6.044 19.347 19.347 0 00-15.916-4.241 16.035 16.035 0 00-8.01 2.557c-4.6 2.964-8.648 7.38-9.9 12.874a23.052 23.052 0 002.172 16.6z"/><path data-name="Path 59" d="M7.808 98.896c2.312 17.188 5.612 34.209 8.413 51.32q1.074 6.558 2.02 13.134a129.793 129.793 0 002.115 13.149c1.9 7.6 6.417 13.959 13.461 17.542 6.424 3.266 13.8 4.375 20.952 4.2a67.2 67.2 0 0024.571-5.148 49.836 49.836 0 0018.439-13.36 64.629 64.629 0 0011.025-19.08c5.364-13.973 6.906-29.182 8.022-44 1.366-18.132 1.45-36.812-3.633-54.431-4.138-14.343-11.837-28.212-23.354-37.922-11.227-9.468-25.819-14.581-40.55-12.844a45.131 45.131 0 00-19.926 6.978 46.169 46.169 0 00-15.3 18.048 99.176 99.176 0 00-8.239 24.285 77.272 77.272 0 00-1.158 26.234 54.712 54.712 0 003.142 12.232 3.7 3.7 0 004.416 2.507c1.727-.474 3.211-2.6 2.507-4.416-5.924-15.311-3.681-32.112 1.486-47.3 2.4-7.064 5.522-14.2 10.521-19.839A34.177 34.177 0 0142.36 20.167a44.924 44.924 0 0136.55 5c11.459 7.1 19.8 18.736 24.7 31.161 6.051 15.354 7.255 32 6.705 48.35-.5 14.916-1.612 29.932-5.351 44.342-3.23 12.45-8.919 24.844-19.641 32.556a51.255 51.255 0 01-20.8 8.489 52.535 52.535 0 01-19.972.164c-5.936-1.267-11.528-3.921-14.66-9.04a29.241 29.241 0 01-3.424-10.585c-.7-4.16-1.173-8.359-1.794-12.532-2.392-16.1-5.534-32.067-8.055-48.143q-1.012-6.457-1.886-12.936c-.259-1.923-2.727-2.972-4.416-2.507-2.076.571-2.767 2.487-2.507 4.417z"/><path data-name="Path 60" d="M68.765 25.327c-16.376-.239-33.087 7.255-44.85 18.483-5.637 5.381-10.493 12.661-10.305 20.751.172 7.463 4.827 13.515 10.893 17.442 14.174 9.176 32.788 10.134 48.67 5.518 7.811-2.269 15.763-5.713 21.54-11.6 5.2-5.308 8.986-13.2 8.063-20.778-.588-4.825-3.465-8.085-6.477-11.668-2.513-2.991-4.859-6.127-7.485-9.024a28.033 28.033 0 00-8.43-6.731 21.746 21.746 0 00-11.67-1.879 2.769 2.769 0 00-2.693 2.693 2.712 2.712 0 002.693 2.693 17.257 17.257 0 018.619.991 20.233 20.233 0 016.318 4.605c2.142 2.17 4.041 4.567 5.955 6.936 2.128 2.634 4.72 5.129 6.477 8.025 3.3 5.439.56 12.756-2.774 17.506-4.1 5.85-10.85 9.335-17.41 11.692-14.128 5.075-30.188 5.529-43.935-1.027-5.163-2.462-10.579-5.992-12.364-11.761-2.055-6.643 1.437-13.341 5.811-18.2 5.559-6.169 12.909-10.907 20.434-14.317a53.867 53.867 0 0122.92-4.965c3.467.05 3.468-5.335 0-5.385z"/><g data-name="Group 14"><path data-name="Path 61" d="M18.421 53.092c-3.1-1.553-6.434-3.149-9.874-2.724s-6.723 3.839-5.648 7.139c1.042 3.2 5.482 4.113 8.505 2.632s4.926-4.508 6.671-7.388"/><path data-name="Path 62" d="M19.781 50.765c-3.417-1.7-7.164-3.5-11.094-3.1a9.777 9.777 0 00-8.3 6.23 7.08 7.08 0 003.358 8.491 9.926 9.926 0 009.122.023c3.422-1.727 5.6-5.127 7.53-8.3a2.694 2.694 0 00-4.651-2.719c-.671 1.108-1.351 2.214-2.116 3.261-.072.1-.145.2-.217.292-.25.336.253-.282-.026.026-.187.208-.358.432-.546.64a16.4 16.4 0 01-1.455 1.4c-.305.267.329-.2-.018.01-.1.06-.2.136-.293.2a9.472 9.472 0 01-.82.483c-.038.019-.387.187-.387.189-.01-.042.632-.212.109-.059-.247.073-.489.156-.742.213a1.726 1.726 0 01-.381.077c.011.006.685-.053.136-.02-.227.013-.454.031-.681.031-.26 0-.516-.034-.776-.041-.326-.008.255.019.238.031a2.318 2.318 0 01-.56-.121c-.213-.055-.419-.147-.631-.2-.34-.081.4.26.128.054a2.169 2.169 0 00-.247-.126c-.13-.071-.567-.253-.618-.39 0-.006.482.46.127.078a2.956 2.956 0 00-.314-.322c-.254-.2.2.424.089.118a1.887 1.887 0 00-.146-.229 1.8 1.8 0 01-.174-.323c.012-.026.152.546.062.122-.029-.139-.078-.285-.114-.421-.06-.227.054-.361.011.085.01-.1-.007-.212-.006-.314 0-.354.061-.335-.025-.008.072-.272.14-.536.223-.8-.154.505.024-.018.141-.219.073-.124.163-.239.232-.365.183-.333-.29.3-.023.024.233-.241.456-.485.7-.716.03-.029.316-.274.075-.075-.258.214.115-.078.182-.123a7.782 7.782 0 01.68-.406c.134-.071.269-.134.406-.2-.479.225-.128.053-.014.023.326-.086.645-.175.973-.251.282-.067-.066.013-.109.014.279-.011.553-.038.833-.039a10.293 10.293 0 011.1.056c-.419-.043.037.006.107.019.227.044.454.087.68.14q.614.142 1.214.335c.4.128.8.272 1.2.426.133.051.264.1.4.157-.36-.148.418.188.4.181.777.352 1.54.73 2.3 1.112a2.693 2.693 0 002.718-4.651z"/></g><g data-name="Group 15"><path data-name="Path 63" d="M93.57 42.794c-1.546-1.028-.219-3.416 1.191-4.623 2.359-2.02 5.766-3.941 8.357-2.231 2.4 1.586 2.167 5.449.276 7.622s-3.2 3.3-5.957 4.113"/><path data-name="Path 64" d="M94.93 40.469c.548.4.353.282.224.146.4.419.318.424.2.224.29.512.208.517.151.285.168.669.056.56.061.328.01-.415-.037.284-.053.308a3.238 3.238 0 01.163-.564q-.251.569-.116.287c.034-.072.071-.142.109-.212.1-.191.224-.371.343-.553.2-.3.057.108-.123.152a1.616 1.616 0 00.212-.247 10.084 10.084 0 011.06-.961c.282-.236-.4.288-.1.074.1-.074.2-.152.309-.225.209-.148.421-.292.638-.431a14.634 14.634 0 011.421-.783c.446-.219-.069.056-.128.051a1.746 1.746 0 00.346-.126 6.65 6.65 0 01.694-.2c-.022 0 .342-.06.346-.071-.037.105-.606.049-.2.032.278-.012.578.037.851.011-.091.008-.631-.15-.217-.012.1.036.221.062.327.092.4.112-.2-.014-.163-.078 0-.007.337.184.312.169a2.417 2.417 0 00.273.178c-.055-.022-.485-.444-.212-.151.061.066.134.139.2.2.323.294-.269-.43-.115-.169.083.139.178.268.256.41.039.073.074.178.122.249-.333-.483-.18-.481-.118-.255.05.182.11.359.148.543.018.09.025.193.05.281-.194-.689-.054-.421-.042-.142.008.2.006.39 0 .584a1.8 1.8 0 00-.025.294c0-.039.13-.7.032-.275-.044.2-.079.39-.133.583-.026.1-.056.191-.087.286s-.227.509-.022.1c.226-.449-.105.2-.15.286-.095.176-.2.34-.308.507-.328.518.383-.442-.045.053q-.269.311-.548.614c-.353.385-.716.761-1.1 1.113a4.947 4.947 0 00-.522.449c.317-.389.388-.286.189-.147-.123.086-.243.174-.367.256a11.962 11.962 0 01-1.2.671c-.395.2.146-.06.2-.075-.16.051-.318.127-.476.184-.287.1-.578.2-.87.284a2.694 2.694 0 101.431 5.194 14.188 14.188 0 006.534-4.12 11.008 11.008 0 002.33-3.584 8.211 8.211 0 00.518-3.544 7.339 7.339 0 00-1.678-4.227 6.548 6.548 0 00-4.343-2.164c-3.067-.351-5.947 1.44-8.23 3.279a8.8 8.8 0 00-2.8 3.85 4.9 4.9 0 00-.172 2.792 4.453 4.453 0 001.9 2.565 2.7 2.7 0 003.684-.966 2.769 2.769 0 00-.966-3.685z"/></g><path data-name="Path 65" d="M49.751 33.794a6.524 6.524 0 004.482-8.186 3.643 3.643 0 00-4.416-2.508 7.351 7.351 0 00-5.042 7.372 8.375 8.375 0 005.265 7.592c6.735 2.79 14.142-1.854 17.993-7.234a19.391 19.391 0 002.283-18.392C67.871 6.46 62.51 1.397 56.016.23c-4-.718-8.721.116-10.956 3.887a7.65 7.65 0 002.116 10.4 3.591 3.591 0 103.625-6.2.81.81 0 01.33.372c-.01-.026-.269-.513-.107-.159s-.045-.168-.023-.2l.049.28v-.345c-.3.631.133-.6.083-.317-.055.311.112-.162.128-.2-.107.285-.138.1.09-.095.9-.746 2.769-.588 4.3-.129a13.04 13.04 0 017.751 6.911 12.03 12.03 0 01.181 9.748 12.374 12.374 0 01-7.785 7.267 5.912 5.912 0 01-2.409.181 2.127 2.127 0 01-1.088-.433c-.542-.373.217.238-.152-.146-.39-.406.328.389-.018-.051s.188.461-.038-.034c-.027-.061-.208-.729-.123-.321.078.377.061-1.064-.012-.659-.083.463.068-.141.063-.144l.048-.144q-.118.291.029.023c.251-.177-.034-.006-.1.14q-.463.309-.132.108t-.138.056l-4.417-2.507c.285.835-.05-.01.095-.19.13-.164.2-.388.44-.457-4.435 1.266-2.55 8.2 1.909 6.924z"/><path data-name="Path 66" d="M46.633 48.768a4.577 4.577 0 00-5.92 4.039 4.359 4.359 0 107.657-2.82l-3.942-.4"/><path data-name="Path 67" d="M75.355 41.587a4.577 4.577 0 00-5.92 4.039 4.359 4.359 0 107.657-2.82l-3.942-.4"/><path data-name="Path 68" d="M52.211 65.959c-1.57 2.593-.669 5.529 1.234 7.665a11.439 11.439 0 007.6 3.533 16.866 16.866 0 0014.519-6.108 8.056 8.056 0 001.983-3.956 3.217 3.217 0 00-2.2-3.739 1.8 1.8 0 00-.954 3.461c.006 0-.546-.375-.384-.455.049-.025-.043.5-.048.523a4.3 4.3 0 01-.767 1.389 12.083 12.083 0 01-2.371 2.47 13.735 13.735 0 01-6.38 2.763 10.494 10.494 0 01-6.525-.863c-1.571-.878-3.782-2.931-2.607-4.87 1.2-1.981-1.9-3.788-3.1-1.812z"/><path data-name="Path 69" d="M107.868 78.35c-3.73 9.363-7.779 18.435-15.23 25.463-6.792 6.4-15.222 10.833-23.732 14.506-5.134 2.216-10.406 4.11-15.655 6.032a3.687 3.687 0 00-2.508 4.416 3.621 3.621 0 004.417 2.508c19.3-7.064 40.191-14.932 51.445-33.345 3.393-5.549 5.788-11.647 8.189-17.67.718-1.8-.785-3.943-2.508-4.416a3.676 3.676 0 00-4.416 2.507z"/><path data-name="Path 70" d="M42.03 142.954c1.175 4.763 6.441 5.1 10.455 4.813a77.632 77.632 0 0012.565-1.926 76.876 76.876 0 0023.108-9.768 77.654 77.654 0 0011.549-8.964c3.377-3.169-1.708-8.24-5.077-5.078a68.851 68.851 0 01-22.823 14.236 73.3 73.3 0 01-13.225 3.59 61.287 61.287 0 01-6.342.748 18.7 18.7 0 01-3.095.085c.309.06.244.045-.2-.039q-.627-.219-.194.006-.556-.33-.116-.016a3.031 3.031 0 01.315.4c-1.107-4.484-8.034-2.585-6.925 1.909z"/><path data-name="Path 72" d="M72.035 42.731h-.316a1.844 1.844 0 00-1.8 1.8l.065.478a1.787 1.787 0 00.461.792l.364.28a1.784 1.784 0 00.906.245h.316a1.844 1.844 0 001.8-1.8l-.065-.478a1.8 1.8 0 00-.462-.792l-.363-.28a1.788 1.788 0 00-.906-.245z"/><path data-name="Path 77" d="M44.035 49.731h-.316a1.844 1.844 0 00-1.8 1.8l.065.478a1.787 1.787 0 00.461.792l.364.28a1.784 1.784 0 00.906.245h.316a1.844 1.844 0 001.8-1.8l-.065-.478a1.8 1.8 0 00-.462-.792l-.363-.28a1.788 1.788 0 00-.906-.245z"/><path data-name="Path 73" d="M36.557 69.657a6 6 0 011.242-.3l-1.431.193a6.024 6.024 0 011.546.008l-1.431-.193a5.894 5.894 0 01.984.227 4.088 4.088 0 002.148.1 4.005 4.005 0 002-.639 6.019 6.019 0 002.475-3.218l.193-1.433a5.367 5.367 0 00-.736-2.718l-.841-1.09a5.4 5.4 0 00-2.377-1.385 6.319 6.319 0 00-.985-.227 14.454 14.454 0 00-2.34-.247 15.164 15.164 0 00-2.336.28 5.836 5.836 0 00-.975.262 6.031 6.031 0 00-3.219 2.475 4.009 4.009 0 00-.639 2 4.075 4.075 0 00.1 2.148l.542 1.287a5.406 5.406 0 001.933 1.932l1.287.543a5.429 5.429 0 002.863 0z"/><path data-name="Path 74" d="M86.583 59.073a5.632 5.632 0 01.951-.936l-1.089.843a5.742 5.742 0 011.2-.7l-1.287.543a5.508 5.508 0 01.991-.312 6.035 6.035 0 003.218-2.475 4.009 4.009 0 00.639-2 4.071 4.071 0 00-.1-2.147l-.542-1.287a5.406 5.406 0 00-1.933-1.932l-1.285-.543a5.433 5.433 0 00-2.864 0 5.551 5.551 0 00-.923.284 10.392 10.392 0 00-3.909 2.331 5.521 5.521 0 00-.683.716 4.029 4.029 0 00-1.113 1.733 4.869 4.869 0 000 4.15 4.022 4.022 0 001.113 1.733l1.09.843a5.355 5.355 0 002.718.735l1.433-.193a5.364 5.364 0 002.376-1.385z"/><path data-name="Path 75" d="M36.049 63.366h.316a1.731 1.731 0 001.64-1.1 1.364 1.364 0 00.156-.692l-.065-.478a1.79 1.79 0 00-.462-.792l-.363-.28a1.787 1.787 0 00-.906-.245h-.316a1.844 1.844 0 00-1.8 1.8l.063.478a1.808 1.808 0 00.462.792l.364.28a1.784 1.784 0 00.906.245z"/><path data-name="Path 76" d="M80.241 55.159h1.263a1.363 1.363 0 00.692-.154 1.628 1.628 0 00.949-.949 1.351 1.351 0 00.154-.692l-.065-.478a1.79 1.79 0 00-.462-.792l-.358-.278a1.784 1.784 0 00-.906-.245h-1.263a1.844 1.844 0 00-1.8 1.8l.063.478a1.8 1.8 0 00.462.791l.364.281a1.784 1.784 0 00.906.245z"/></g></symbol><symbol viewBox="0 0 204.027 204.027" id="list" xmlns="http://www.w3.org/2000/svg"><g data-name="&#x43F;&#x440;&#x438;&#x440;&#x43E;&#x434;&#x43D;&#x44B;&#x435; &#x43A;&#x43E;&#x43C;&#x43F;&#x43E;&#x43D;&#x435;&#x43D;&#x442;&#x44B;"><g data-name="Group 17"><path data-name="Path 78" d="M46.616 165.899a323.408 323.408 0 0090.648-81.937 155.149 155.149 0 01-46.632 65.258 55.036 55.036 0 0042.031-6.03c11.409-6.942 19.285-17.463 25.19-28.786 4.391-8.418 7.82-17.465 8.616-27.27.668-8.248-.537-16.845-1.246-25.338a211.318 211.318 0 01.657-42.445c-3.26 10.003-11.738 17.283-21.15 22.86s-19.965 9.782-29.163 15.603a77.583 77.583 0 00-36.318 61.504c-.287 4.926-.184 10.096-2.431 14.276a26.669 26.669 0 01-4.625 5.722l-25.447 26.162"/><path data-name="Path 79" d="M45.367 164.127a327.434 327.434 0 0073.114-60.762q8.876-9.926 16.809-20.542c1.418-1.895 4.76.116 3.948 2.28a155.932 155.932 0 01-33.624 53.255 162.521 162.521 0 01-13.316 12.376l-1.322-3.322a53.255 53.255 0 0031.91-1.828c10.766-4.108 19.07-11.448 25.354-19.957 6.712-9.085 12.121-19.55 14.742-30.72 2.683-11.431.772-23.572-.107-35.704a215.028 215.028 0 01.861-40.537l4.286 1.367c-4.136 12.288-14.966 20.268-26.66 26.544-11.807 6.337-24.318 11.608-34.124 20.21a75.679 75.679 0 00-25.342 47.79c-.788 6.19-.103 12.968-2.415 18.67-1.387 3.418-4.105 6.017-6.667 8.653l-8.134 8.363-16.27 16.727c-1.634 1.68-4.96-1.35-3.33-3.03l14.183-14.583 7.301-7.505a87.55 87.55 0 006.889-7.302c3.922-5.104 3.265-12.02 3.833-18.394a79.059 79.059 0 0122.348-48.38c8.822-8.994 20.087-15.11 31.841-20.978 13.265-6.622 27.576-14.25 32.258-28.156.735-2.186 4.568-1.05 4.286 1.367a209.194 209.194 0 00-.952 37.767c.804 12.409 2.986 25.013.563 36.814-2.4 11.695-7.852 22.648-14.639 32.181-6.404 8.994-14.773 16.922-25.772 21.59a58.149 58.149 0 01-36.935 2.642c-1.668-.422-2.345-2.47-1.317-3.32a153.65 153.65 0 0046.32-64.877l3.948 2.28a321.381 321.381 0 01-68.21 67.11q-11.188 8.15-23.163 15.458c-2.06 1.264-4.547-2.288-2.499-3.544z"/></g><g data-name="Group 18"><path data-name="Path 80" d="M45.924 125.077a37.63 37.63 0 0014.325-20.848c6.26-23.78-10.143-51.992-8.463-77.141-11.556 10.553-18.972 24.28-26.25 37.83-3.989 7.42-8.035 15.046-8.554 23.79-.835 14.078 9.496 30.87 25.316 37.24"/><path data-name="Path 81" d="M44.26 123.564a36.512 36.512 0 0013.225-17.908 47.61 47.61 0 001.843-18.413c-.979-12.92-5.244-25.996-7.813-38.98A85.7 85.7 0 0149.646 26.4l3.81 2.2c-11.85 10.913-19.316 25.044-26.72 38.911-3.609 6.762-7.18 13.812-7.603 21.88a33.5 33.5 0 005.207 18.75 39.5 39.5 0 0018.304 15.995c2.678 1.1 2.008 4.723-.688 3.615-15.409-6.334-25.751-21.13-27.048-34.907-.78-8.286 1.96-15.815 5.341-22.709 3.73-7.605 7.852-15.068 12.252-22.296a101.479 101.479 0 0117.623-22.272c1.446-1.33 3.915.487 3.81 2.2C52.34 53.338 69.35 81.39 62.1 105.969a39.428 39.428 0 01-14.506 20.618c-1.911 1.416-5.258-1.598-3.332-3.029z"/></g><g data-name="Group 19"><path data-name="Path 82" d="M40.465 113.452A329.521 329.521 0 0041.6 75.264c-3.23 1.97-4.44 5.692-5.132 9.32a61.389 61.389 0 001.999 29.53"/><path data-name="Path 83" d="M38.32 112.767a330.005 330.005 0 001.12-37.7l3.822 1.71c-2.819 1.845-3.902 4.817-4.55 7.972a51.994 51.994 0 00-1.046 9.455 63.212 63.212 0 002.832 19.612c.751 2.466-3.309 3.08-4.067.594a66.884 66.884 0 01-3.055-21.665c.213-6.61.683-15.15 6.558-18.996 1.206-.79 3.775-.095 3.823 1.71a338.709 338.709 0 01-1.15 38.676c-.21 2.396-4.494 1.008-4.29-1.37z"/></g></g></symbol><symbol viewBox="0 0 144.581 211.019" id="simeticon" xmlns="http://www.w3.org/2000/svg"><g data-name="&#x43D;&#x435; &#x441;&#x43E;&#x434;&#x435;&#x440;&#x436;&#x438;&#x442; &#x441;&#x438;&#x43C;&#x435;&#x442;&#x438;&#x43A;&#x43E;&#x43D;"><path data-name="Path 36" d="M61.993 167.956c1.211 5.105 4.487 9.369 8.138 13 1.285 1.277 2.62 2.5 3.849 3.837.315.343.613.7.92 1.046 1.163 1.322-1.6-2.377-.634-.8a19.85 19.85 0 011.3 2.371l-1.122-2.659c.168.429.313.85.444 1.291l10.73-14.086c-14.626 1.812-29.2 3.979-43.706 6.607l5.915 21.46a91.191 91.191 0 0018.781-10.114c6.156-4.15 13.156-9.3 14.35-17.233.463-3.071.512-5.785-1.122-8.574a11.126 11.126 0 00-15.224-3.993c-2.269 1.461-4.693 3.858-5.114 6.65a10.617 10.617 0 01-.525 2.076l1.122-2.657c-.215.5-.463.942-.712 1.421q-.692 1.03.26-.243 1-1.246.194-.277c-.659.662-1.315 1.3-2 1.938-1.522 1.411 2.047-1.472.467-.346-.457.326-.914.653-1.377.97-.969.668-1.948 1.322-2.927 1.976a81.582 81.582 0 01-12.907 7.34l2.657-1.122q-.915.378-1.84.729a12.034 12.034 0 00-6.651 5.114 11.37 11.37 0 00-1.122 8.574c1.994 6.159 7.537 8.887 13.688 7.772q16.369-2.964 32.859-5.191l-2.958.4q3.944-.53 7.89-1.018c3.641-.45 6.427-1.393 8.739-4.384a10.822 10.822 0 001.991-9.7c-1.5-5.034-4.586-9.117-8.277-12.76-1.231-1.215-2.5-2.392-3.674-3.668-.312-.34-.605-.7-.912-1.042-1.221-1.381 1.565 2.378.648.8a21.42 21.42 0 01-1.272-2.355l1.122 2.657a13.5 13.5 0 01-.531-1.727c-1.346-5.668-8.111-9.576-13.688-7.772a11.363 11.363 0 00-7.772 13.688z"/><path data-name="Path 37" d="M92.42 160.856a93 93 0 014.614 9.324l-1.122-2.659c1.715 4.082 2.717 8.892 5.261 12.537 2.249 3.221 5.378 6.053 9.37 6.815 4.628.881 8.411-.223 12.527-2.227a29.269 29.269 0 009.712-7.806 33.22 33.22 0 006.911-13.413 11.133 11.133 0 00-13.688-13.689c-1.353.328-2.7.637-4.082.84l2.958-.4a15.781 15.781 0 01-3.608.056l2.958.4a18.038 18.038 0 01-4.248-1.275l2.659 1.122c-3.905-1.7-7.746-3.567-11.611-5.358-2.779-1.286-5.516-1.963-8.574-1.122a11.349 11.349 0 00-6.65 5.114 11.226 11.226 0 00-1.122 8.574c.843 2.607 2.525 5.453 5.113 6.651 4.737 2.194 9.444 4.485 14.27 6.478a22.982 22.982 0 008.751 1.767 39.409 39.409 0 009.1-1.389l-13.684-13.685a22.853 22.853 0 01-1.064 3.395l1.122-2.659a23.027 23.027 0 01-2.987 5.11l1.74-2.252a23.421 23.421 0 01-3.932 3.886l2.252-1.74a22.324 22.324 0 01-4.427 2.592l2.659-1.122a10.536 10.536 0 01-2.139.674l2.958-.4a3.77 3.77 0 01-.914.019l2.958.4a4.884 4.884 0 01-.963-.251l2.659 1.122a5.335 5.335 0 01-.831-.494l2.252 1.74a6.719 6.719 0 01-.926-.957l1.739 2.252a11.663 11.663 0 01-1.212-2.183l1.121 2.661c-1.479-3.582-2.7-7.245-4.245-10.81a91.565 91.565 0 00-4.418-8.868 11.13 11.13 0 10-19.217 11.233z"/><path data-name="Path 38" d="M101.524 152.858a1.776 1.776 0 000-.924 1.752 1.752 0 00-.445-.766 29.081 29.081 0 00-.365-.282h-.009a28.167 28.167 0 00-.4-.169l-.021-.006a1.886 1.886 0 00-.966 0h-.019a3.283 3.283 0 00-.415.177 1.354 1.354 0 00-.366.282 1.95 1.95 0 00-.271.352 1.268 1.268 0 00-.088.208 1.21 1.21 0 00-.088.208 1.235 1.235 0 00-.031.231 1.493 1.493 0 00-.031.231 2.047 2.047 0 00.062.466 1.721 1.721 0 002.053 1.166l.4-.168a1.677 1.677 0 00.6-.6l.169-.4a1.7 1.7 0 000-.887v-.009l.061.444a.114.114 0 010-.022l-.059.444v-.018l-.168.4.01-.016-.261.337.016-.015-.338.261.027-.015-.4.168a.235.235 0 01.043-.012l-.444.061a.144.144 0 01.05 0l-.444-.061a.168.168 0 01.039.012l-.4-.169.024.015-.338-.261.015.013-.261-.337.009.015-.168-.4v.019l-.059-.444a.055.055 0 010 .022l.059-.444v.006a1.252 1.252 0 00-.03.665 1.23 1.23 0 00.2.62 1.865 1.865 0 001 .767l.444.061a1.659 1.659 0 00.843-.229l.338-.261a1.666 1.666 0 00.429-.736z"/><path data-name="Path 39" d="M104.376 164.141a5.6 5.6 0 00-.466.369 2.684 2.684 0 00-.263.318 2.423 2.423 0 00-.331.51 3.164 3.164 0 00-.27.752 3.346 3.346 0 00-.076.825 3.227 3.227 0 00.145.815l.085.2a.832.832 0 00.214.368l.131.169.338.261c.148.074.309.134.463.2.059.024.122.046.184.065a4.5 4.5 0 00.789.131 2.161 2.161 0 00.366.01 3.676 3.676 0 001.5-.4 2.873 2.873 0 001.091-1.03 1.165 1.165 0 00.082-.153 2.894 2.894 0 00.211-.527 3.579 3.579 0 00.079-.576.907.907 0 00-.006-.168 2.464 2.464 0 00-.3-1.113 2.185 2.185 0 00-.292-.447 2.783 2.783 0 00-.246-.3 3.994 3.994 0 00-.457-.364 1.1 1.1 0 00-.15-.092 3.448 3.448 0 00-.536-.223.7.7 0 00-.076-.018 4.191 4.191 0 00-.509-.068 1.888 1.888 0 00-.374.033 1.61 1.61 0 00-.371.073 2.285 2.285 0 00-.542.254 1.283 1.283 0 00-.469.43 1.265 1.265 0 00-.3.568 1.882 1.882 0 00.168 1.286 1.692 1.692 0 001 .767l.444.059a1.667 1.667 0 00.843-.228.659.659 0 01.142-.085l-.4.168a.755.755 0 01.15-.043l-.444.059a.753.753 0 01.174 0l-.444-.059a.836.836 0 01.214.061l-.4-.169a1.085 1.085 0 01.221.134l-.338-.261a1.368 1.368 0 01.206.208l-.261-.337a1.328 1.328 0 01.162.277l-.168-.4a1.111 1.111 0 01.071.258l-.059-.444a.931.931 0 010 .24l.059-.444a.829.829 0 01-.05.187l.169-.4a1.1 1.1 0 01-.15.251l.261-.338a1.275 1.275 0 01-.2.2l.337-.261a1.522 1.522 0 01-.3.174l.4-.168a1.809 1.809 0 01-.448.122l.444-.059a2.146 2.146 0 01-.534 0l.444.059a2.15 2.15 0 01-.515-.138l.4.168-.05-.022.767 1a1.573 1.573 0 01-.077-.3l.059.444a1.607 1.607 0 010-.4l-.059.444a1.677 1.677 0 01.111-.414l-.168.4a1.61 1.61 0 01.2-.343l-.26.338a1.5 1.5 0 01.236-.239l-.338.261.025-.018a1.266 1.266 0 00.467-.43 1.253 1.253 0 00.3-.568 1.267 1.267 0 00.03-.665 1.242 1.242 0 00-.2-.622 1.684 1.684 0 00-1-.767l-.444-.059a1.667 1.667 0 00-.843.228z"/><path data-name="Path 40" d="M119.629 157.614h.294a1.612 1.612 0 001.525-1.025 1.264 1.264 0 00.144-.644l-.059-.444a1.669 1.669 0 00-.43-.736l-.337-.261a1.668 1.668 0 00-.843-.228h-.294a1.274 1.274 0 00-.642.144 1.507 1.507 0 00-.883.883 1.258 1.258 0 00-.144.643l.059.444a1.674 1.674 0 00.43.737l.337.261a1.651 1.651 0 00.843.227z"/><path data-name="Path 41" d="M109.509 151.69a.771.771 0 00.036.113c.058.144.116.292.184.432a.575.575 0 00.031.058 4.092 4.092 0 00.316.415.821.821 0 00.086.091l.045.037c.12.1.242.194.368.283a.868.868 0 00.108.064c.077.037.165.071.239.1s.165.073.248.1a.843.843 0 00.12.031 4.292 4.292 0 00.531.068 1.99 1.99 0 00.34-.036.915.915 0 00.435-.116l.2-.085a1.242 1.242 0 00.467-.43 1.228 1.228 0 00.148-.2c.07-.139.126-.289.185-.433l.019-.053a.645.645 0 00.024-.092 4.39 4.39 0 00.071-.539 2.977 2.977 0 00-.07-.628.747.747 0 00-.024-.1 4.273 4.273 0 00-.2-.482.918.918 0 00-.1-.172c-.092-.122-.182-.249-.283-.365l-.03-.031-.036-.034c-.117-.1-.246-.2-.371-.286a.5.5 0 00-.076-.047c-.076-.04-.166-.073-.237-.1a2.523 2.523 0 00-.246-.1 1.717 1.717 0 00-.307-.049 1.664 1.664 0 00-.307-.034 2.2 2.2 0 00-.991.266.7.7 0 00-.073.04l-.036.027c-.123.092-.254.184-.368.286a.586.586 0 00-.059.061 3.782 3.782 0 00-.312.407.585.585 0 00-.047.085 4.026 4.026 0 00-.2.482l-.012.049c-.033.156-.047.322-.067.481a.706.706 0 000 .1 2.043 2.043 0 00.981 1.731 1.244 1.244 0 00.62.2 1.713 1.713 0 001.663-.8l.168-.4a1.668 1.668 0 000-.887l-.168-.4a1.666 1.666 0 00-.6-.6l-.009-.007.338.261a.387.387 0 01-.07-.07l.261.338a.525.525 0 01-.043-.073l.169.4a.4.4 0 01-.03-.11l.059.444a.612.612 0 010-.128l-.059.444a.651.651 0 01.042-.148l-.168.4a.667.667 0 01.086-.147l-.261.338a.658.658 0 01.11-.113l-.337.261a.515.515 0 01.113-.068l-.4.168a.451.451 0 01.116-.033l-.444.059a.412.412 0 01.113 0l-.444-.061a.592.592 0 01.131.037l-.4-.169a.587.587 0 01.125.074l-.338-.261a.658.658 0 01.111.111l-.26-.338a.826.826 0 01.1.172l-.169-.4a.849.849 0 01.058.208l-.061-.444a.818.818 0 010 .217l.059-.444a.793.793 0 01-.049.183l.168-.4a.6.6 0 01-.034.068l1-.767h-.015l.444-.059a.763.763 0 01-.175 0l.444.059a.761.761 0 01-.2-.053l.4.168a.788.788 0 01-.177-.1l.337.261a.833.833 0 01-.144-.145l.261.338a.778.778 0 01-.089-.151l.169.4a.767.767 0 01-.037-.113 1.865 1.865 0 00-.767-1 1.246 1.246 0 00-.62-.2 1.288 1.288 0 00-.666.03l-.4.169a1.678 1.678 0 00-.6.6l-.168.4a1.667 1.667 0 000 .887z"/><path data-name="Path 42" d="M43.533 185.161a3.093 3.093 0 00-.683 1.193 3.288 3.288 0 00-.165 1.009 3.445 3.445 0 00.516 1.9 3.236 3.236 0 001.846 1.392 4.156 4.156 0 00.674.105 1.868 1.868 0 00.3.012 3.391 3.391 0 00.97-.168 4.876 4.876 0 00.614-.264 3.737 3.737 0 00.562-.4 2.821 2.821 0 00.619-.727 2.791 2.791 0 00.381-1.126 3.261 3.261 0 00-.049-1.185 3.063 3.063 0 00-.366-.905 4.212 4.212 0 00-.405-.548 1.644 1.644 0 00-.214-.217 3.4 3.4 0 00-1.169-.677 2.366 2.366 0 00-.991-.116 3.071 3.071 0 00-.733.134 3.473 3.473 0 00-.668.3 3.633 3.633 0 00-1.036 1.016 1.811 1.811 0 00-.172.31 3.27 3.27 0 00-.252.684 2.915 2.915 0 00.043 1.494l.169.4a1.25 1.25 0 00.429.467 1.592 1.592 0 001.012.359 2.86 2.86 0 00.828-.135 3.023 3.023 0 00.76-.368 4.188 4.188 0 00.47-.377 4.039 4.039 0 00.377-.472 2.843 2.843 0 00.364-.76 1.67 1.67 0 00-2.453-1.886l-.338.261a1.666 1.666 0 00-.429.736l-.028.074.169-.4a1.445 1.445 0 01-.178.3l.261-.338a1.579 1.579 0 01-.223.223l.337-.261a1.492 1.492 0 01-.3.182l.4-.169a1.414 1.414 0 01-.34.1l.444-.061c-.039 0-.077.009-.117.01l1.61 1.225a1.361 1.361 0 01-.056-.242l.059.444a1.382 1.382 0 010-.313l-.059.444a1.574 1.574 0 01.092-.337l-.168.4a1.694 1.694 0 01.215-.368l-.261.338a1.75 1.75 0 01.277-.277l-.337.26a1.725 1.725 0 01.334-.2l-.4.169a1.485 1.485 0 01.338-.094l-.444.059a1.337 1.337 0 01.318 0l-.444-.059a1.383 1.383 0 01.323.091l-.4-.168a1.48 1.48 0 01.288.169l-.338-.261a1.724 1.724 0 01.286.283l-.261-.337a1.785 1.785 0 01.224.381l-.169-.4a1.743 1.743 0 01.119.426l-.059-.445a1.608 1.608 0 010 .405l.059-.445a1.381 1.381 0 01-.089.326l.168-.4a1.45 1.45 0 01-.169.289l.261-.338a1.528 1.528 0 01-.282.28l.338-.261a1.845 1.845 0 01-.347.2l.4-.169a1.894 1.894 0 01-.487.134l.444-.059a1.869 1.869 0 01-.436 0l.444.061a1.7 1.7 0 01-.42-.113l.4.169a1.485 1.485 0 01-.32-.19l.338.261a1.661 1.661 0 01-.269-.272l.261.338a1.832 1.832 0 01-.209-.358l.169.4a1.969 1.969 0 01-.137-.5l.059.444a2 2 0 010-.49l-.059.444a1.861 1.861 0 01.129-.47l-.169.4a1.712 1.712 0 01.194-.331l-.261.337.021-.027a1.854 1.854 0 00.49-1.181 1.672 1.672 0 00-1.669-1.669l-.444.059a1.674 1.674 0 00-.737.43z"/><path data-name="Path 43" d="M83.88 173.888a4.1 4.1 0 00-1.945 2.01 4.4 4.4 0 00-.42 1.776 4 4 0 00.4 1.711 4.064 4.064 0 002.344 2.033 3.557 3.557 0 003.043-.318 3.845 3.845 0 001.731-2.444 3.45 3.45 0 00-.868-3.129 3.694 3.694 0 00-2.641-1.07 3.262 3.262 0 00-2.451 5.414 2.166 2.166 0 002.8.065 3.224 3.224 0 001.344-1.828 1.67 1.67 0 00-3.22-.889 1.676 1.676 0 01-.059.185l.169-.4a1.7 1.7 0 01-.193.334l.261-.337a1.757 1.757 0 01-.273.273l.338-.261a1.708 1.708 0 01-.334.2l.4-.168a1.609 1.609 0 01-.372.1l.444-.059-.064.006 1.18.488-.079-.092.261.337a1.593 1.593 0 01-.181-.312l.168.4a1.756 1.756 0 01-.105-.408l.059.444a2.056 2.056 0 010-.427l-.059.444a2.019 2.019 0 01.11-.415l-.169.4a1.81 1.81 0 01.211-.372l-.261.337a1.643 1.643 0 01.288-.286l-.338.261a1.759 1.759 0 01.32-.184l-.4.168a1.949 1.949 0 01.458-.12l-.444.061a2.084 2.084 0 01.481 0l-.444-.059a2.267 2.267 0 01.521.136l-.4-.168a2.2 2.2 0 01.466.267l-.338-.261a1.989 1.989 0 01.3.3l-.261-.337a1.68 1.68 0 01.218.369l-.168-.4a1.991 1.991 0 01.108.392l-.059-.444a2.157 2.157 0 010 .518l.059-.444a2.357 2.357 0 01-.157.559l.168-.4a2.452 2.452 0 01-.266.455l.261-.337a2.484 2.484 0 01-.411.417l.337-.261a2.173 2.173 0 01-.4.237l.4-.168a2.029 2.029 0 01-.458.132l.444-.059a2.142 2.142 0 01-.559 0l.444.061a2.551 2.551 0 01-.542-.148l.4.169a2.649 2.649 0 01-.544-.313l.337.261a2.756 2.756 0 01-.448-.444l.261.338a2.521 2.521 0 01-.289-.487l.168.4a2.359 2.359 0 01-.153-.549l.059.444a2.614 2.614 0 010-.637l-.059.444a2.787 2.787 0 01.169-.616l-.168.4a2.957 2.957 0 01.352-.613l-.261.337a2.889 2.889 0 01.5-.5l-.337.261a2.7 2.7 0 01.5-.3 1.678 1.678 0 00.767-1 1.669 1.669 0 00-1.165-2.053 1.908 1.908 0 00-1.286.169z"/><path data-name="Path 44" d="M71.307 166.217a4.356 4.356 0 00.073.571.877.877 0 00.03.123 4.052 4.052 0 00.212.519 1 1 0 00.065.125 2.746 2.746 0 00.972.958l-.767-1.884-.028.076.168-.4a.93.93 0 01-.122.206l.261-.338a1.07 1.07 0 01-.169.169l.337-.261a1.237 1.237 0 01-.261.151l.4-.168a1.335 1.335 0 01-.313.083l.444-.059a1.294 1.294 0 01-.3 0l.445.059a1.141 1.141 0 01-.251-.068l.4.168a1 1 0 01-.19-.108l.338.26a.878.878 0 01-.159-.156l.261.338a.993.993 0 01-.122-.206l.169.4a1.135 1.135 0 01-.073-.27l.059.444a1.294 1.294 0 010-.3l-.059.444a1.336 1.336 0 01.083-.313l-.168.4a1.142 1.142 0 01.141-.243l-.261.338a1 1 0 01.166-.169l-.337.261a.886.886 0 01.208-.122l-.4.168a.969.969 0 01.214-.056l-.444.059a1.094 1.094 0 01.261 0l-.444-.059a1.163 1.163 0 01.274.079l-.4-.169a1.347 1.347 0 01.267.159l-.338-.261a1.267 1.267 0 01.2.2l-.261-.337a1.068 1.068 0 01.144.245l-.168-.4a1.06 1.06 0 01.062.233l-.059-.445a1.1 1.1 0 01.006.156l2.849-1.18a2.018 2.018 0 00-.967-.549 2.25 2.25 0 00-1.153.022 2.28 2.28 0 00-.963.568 2.031 2.031 0 00-.545.97 1.881 1.881 0 00.168 1.286 1.266 1.266 0 00.43.467 1.253 1.253 0 00.568.3l.444.059a1.668 1.668 0 00.843-.228l.337-.261a1.669 1.669 0 00.43-.736.413.413 0 01.024-.093l-.168.4a.456.456 0 01.055-.1l-.261.338a.548.548 0 01.092-.093l-.337.261a.641.641 0 01.116-.068l-.4.169a.586.586 0 01.168-.046l-.445.059a.664.664 0 01.134 0l-.444-.059a.468.468 0 01.126.036l-.4-.169a.485.485 0 01.082.048l-.338-.26a.354.354 0 01.043.039l.338.26.4.169.444.059a1.243 1.243 0 00.642-.144 1.649 1.649 0 00.883-.883 1.258 1.258 0 00.144-.642 2.3 2.3 0 00-.036-.377 2.189 2.189 0 00-.07-.392 4.431 4.431 0 00-.218-.521 1.321 1.321 0 00-.1-.159 2.826 2.826 0 00-.487-.568 3.983 3.983 0 00-.457-.343 2.519 2.519 0 00-.347-.16 2.866 2.866 0 00-.346-.135 3.749 3.749 0 00-.595-.091 1.187 1.187 0 00-.163-.006c-.1.006-.2.024-.3.037s-.208.022-.307.046a3.219 3.219 0 00-.527.209.928.928 0 00-.142.074 3.63 3.63 0 00-.448.346 1.025 1.025 0 00-.11.117 2.683 2.683 0 00-.41.586 2.86 2.86 0 00-.251.681 3.07 3.07 0 00-.071.737 2.87 2.87 0 00.123.727 4.007 4.007 0 00.227.525 3.4 3.4 0 00.338.454 2.3 2.3 0 00.553.457.959.959 0 00.134.07 3.5 3.5 0 00.53.214 2.77 2.77 0 00.731.092 4.111 4.111 0 00.605-.073 1.259 1.259 0 00.169-.039 4.551 4.551 0 00.55-.225 1.14 1.14 0 00.15-.083 4.222 4.222 0 00.458-.352 1.141 1.141 0 00.123-.131 3.11 3.11 0 00.349-.47 3.4 3.4 0 00.23-.547l.061-.444a1.279 1.279 0 00-.144-.644.834.834 0 00-.215-.368 1.248 1.248 0 00-.469-.43 1.181 1.181 0 01-.128-.085l.338.261a1.088 1.088 0 01-.18-.181l.261.338a1.106 1.106 0 01-.141-.243l.168.4a1.162 1.162 0 01-.067-.246l.059.444c0-.033-.007-.067-.009-.1a1.607 1.607 0 00-1.025-1.525 1.249 1.249 0 00-.644-.144l-.444.059a1.666 1.666 0 00-.736.429 1.684 1.684 0 00-.49 1.181z"/><path data-name="Path 45" d="M56.303 181.017a2.691 2.691 0 000 1.258 1.038 1.038 0 00.058.178 3.008 3.008 0 00.26.564 2.9 2.9 0 00.844.846 2.781 2.781 0 00.561.258 1.013 1.013 0 00.206.055l.444.059a1.249 1.249 0 00.644-.144.832.832 0 00.368-.214 1.27 1.27 0 00.43-.469 5.078 5.078 0 00.277-.623 1.88 1.88 0 00.085-.269 5.412 5.412 0 00.1-.69 1.987 1.987 0 00.007-.282 5.467 5.467 0 00-.083-.677 1.94 1.94 0 00-.064-.275 3.438 3.438 0 00-.408-.887l-.261-.338a1.253 1.253 0 00-.537-.346.823.823 0 00-.421-.113 1.252 1.252 0 00-.665.03 3.163 3.163 0 00-.843.408 3.171 3.171 0 00-.933.938 3.38 3.38 0 00-.4.829 1.611 1.611 0 00-.076.263 4.694 4.694 0 00-.086.688 1.715 1.715 0 001.669 1.669 1.69 1.69 0 001.18-.488l.261-.338a1.668 1.668 0 00.228-.843c0-.049.006-.1.01-.144l-.059.444a1.752 1.752 0 01.113-.417l-.169.4a1.824 1.824 0 01.233-.4l-.261.338a1.873 1.873 0 01.306-.307l-.338.261a1.655 1.655 0 01.374-.218l-.4.168.082-.031-1.886-.767a1.973 1.973 0 01.181.329l-.169-.4a1.986 1.986 0 01.131.481l-.059-.444a2.054 2.054 0 010 .531l.059-.444a1.989 1.989 0 01-.131.481l.169-.4a2.33 2.33 0 01-.1.2l1.886-.767a.842.842 0 01-.208-.055l.4.169a1.035 1.035 0 01-.206-.122l.338.261a1.089 1.089 0 01-.169-.172l.261.338a1.061 1.061 0 01-.123-.209l.168.4a.971.971 0 01-.071-.257l.059.444a.922.922 0 010-.212l-.059.444c0-.027.009-.053.015-.08a1.761 1.761 0 00-.168-1.285 1.26 1.26 0 00-.43-.469 1.238 1.238 0 00-.568-.3 1.669 1.669 0 00-2.053 1.165z"/><path data-name="Path 46" d="M62.2 171.793v.292a1.863 1.863 0 00.488 1.181 1.843 1.843 0 001.181.488l.444-.059a1.666 1.666 0 00.736-.429l.261-.338a1.659 1.659 0 00.229-.843v-.292a1.279 1.279 0 00-.144-.644 1.262 1.262 0 00-.346-.537 1.863 1.863 0 00-1.18-.488l-.444.059a1.671 1.671 0 00-.737.429l-.261.338a1.647 1.647 0 00-.227.843z"/><path data-name="Path 49" d="M110.438 123.116c-1.059-18.307-.467-36.6.358-54.9a3.377 3.377 0 00-3.338-3.338l-6.065.036c-.951.006-1.9.016-2.855.016h-.625q-.843-.1.423.647c.086.2-.166 1.97-.083 2s1.194-.613 1.436-.668a17.794 17.794 0 012.608-.217q3.118-.214 6.239-.393 12.483-.712 24.988-.846l-3.338-3.338c.132 1.663-2.559 2.171-3.813 2.438-2.5.531-5.033.993-7.138 2.547-2.647 1.957-3.439 4.853-3.669 8-.246 3.392-.353 6.8-.53 10.193l-2.139 41.334a3.361 3.361 0 002.451 3.22 29.468 29.468 0 0122.083 21.89c2.412 10.592-2.279 22.49-10.944 28.947a28.268 28.268 0 01-8.16 4.383 17.9 17.9 0 01-8.856.114 3.429 3.429 0 00-4.107 2.332 3.371 3.371 0 002.332 4.107 27.622 27.622 0 0010.592.344 29.149 29.149 0 009.1-3.892 35.29 35.29 0 00-10.27-64.663l2.451 3.218 2.139-41.334c.177-3.4.288-6.8.53-10.193.187-2.6 1.41-3.134 3.807-3.68 4.758-1.083 11.3-3.111 10.813-9.307a3.405 3.405 0 00-3.338-3.338c-11.236.126-22.605.318-33.8 1.423-3.99.393-9.939 3.961-7.157 8.746 1.34 2.307 3.9 2.666 6.323 2.66 2.855-.007 5.708-.033 8.562-.05l-3.338-3.338c-.825 18.3-1.417 36.6-.358 54.9.248 4.272 6.926 4.3 6.677 0z"/><path data-name="Path 50" d="M108.707 121.702c-7.5-2.018-15.6 1.28-20.574 7.033-5.448 6.3-7.364 14.513-8.182 22.6-.182 1.8 1.665 3.338 3.338 3.338a3.413 3.413 0 003.338-3.338c.613-6.061 2.042-12.757 5.969-17.577a17.335 17.335 0 016.527-4.975 11.74 11.74 0 017.809-.645c4.154 1.117 5.927-5.322 1.776-6.438z"/><path data-name="Path 51" d="M.808 83.079a8.845 8.845 0 00.387 8.141 8.269 8.269 0 006.8 4.071 8.682 8.682 0 007.334-3.473 6.271 6.271 0 00-.731-8.531 8.409 8.409 0 00-4.923-1.972 18.071 18.071 0 00-5.629.734 2.245 2.245 0 00-1.553 2.737 2.272 2.272 0 002.737 1.555 43.273 43.273 0 011.849-.414c.147-.027.292-.055.439-.079.053-.009.509-.077.254-.043s.2-.019.255-.024c.182-.016.366-.03.549-.037a8.8 8.8 0 01.99.013c.056 0 .506.064.252.021-.225-.04.116.028.166.039a5.72 5.72 0 01.641.18c.163.055.467.061.013-.009a1.423 1.423 0 01.374.187c.2.108.375.233.564.353.258.166-.272-.263-.062-.042.074.08.162.147.239.224s.242.2.273.3c-.009-.031-.27-.432-.061-.062.053.092.11.185.165.276.212.346-.062-.267 0-.019.027.1.067.206.093.31.018.073.058.412.036.131-.027-.353-.009.263-.009.266.009.117-.07.411.022-.033a7.222 7.222 0 01-.191.73c-.039.122-.19.318 0-.006-.1.163-.175.338-.276.5-.067.107-.141.209-.212.315.042-.061.289-.325.034-.053-.144.153-.283.307-.438.45a2.63 2.63 0 00-.236.206c0-.033.435-.3.077-.062a8.418 8.418 0 01-.668.411c-.093.049-.188.093-.282.139-.236.119-.042.123.1-.039-.093.108-.458.16-.6.2-.2.056-.408.1-.614.142-.393.09.059-.022.123-.009a2.546 2.546 0 00-.47.037c-.211.009-.42.009-.631 0a1.591 1.591 0 01-.313-.024c.046.058.455.082.125.016-.2-.04-.41-.082-.611-.138-.1-.028-.2-.059-.3-.092s-.2-.07-.294-.108l.243.1c-.039-.089-.464-.242-.556-.3s-.175-.116-.266-.172c-.356-.224.07.019.074.065-.01-.092-.453-.413-.516-.479s-.144-.153-.212-.231c-.289-.335.03-.076.007.019.021-.092-.362-.558-.42-.663s-.1-.185-.145-.279a3.175 3.175 0 01-.1-.214c-.068-.151-.043-.1.073.168a3.091 3.091 0 01-.365-1.369l.037.279a6.494 6.494 0 01-.039-.627 4.125 4.125 0 00.036-.783c.016.062-.1.519-.009.126.036-.151.064-.306.105-.457s.344-.907.1-.355a2.285 2.285 0 00-.8-3.046 2.25 2.25 0 00-3.045.8z"/><path data-name="Path 52" d="M60.642 29.644a4.248 4.248 0 00-2.185 3.806 4.7 4.7 0 002.2 4 5.685 5.685 0 004.724.467 6.648 6.648 0 003.411-2.62 7.379 7.379 0 00.426-7.211 5.7 5.7 0 00-2.589-2.611 6.739 6.739 0 00-4.073-.524 6.966 6.966 0 00-3.507 1.754 5.941 5.941 0 00-1.881 3.976 2.235 2.235 0 002.226 2.226 2.282 2.282 0 002.225-2.227q.007-.087.018-.174l-.08.59a3.694 3.694 0 01.156-.668c.154-.447-.172.34-.08.181.049-.086.088-.177.137-.261s.12-.19.182-.283c.193-.292-.42.5-.085.119a4.208 4.208 0 01.426-.418c.387-.329-.407.279-.11.085.073-.047.144-.1.217-.142.2-.125.408-.221.617-.325-.733.366-.111.055.126-.012a5.12 5.12 0 01.682-.142l-.59.08a4.758 4.758 0 011.206 0l-.592-.079a4.151 4.151 0 01.585.128c.1.03.188.068.283.1.174.055-.6-.286-.18-.065.077.04.151.083.225.129.188.117.417.4-.092-.091.141.135.291.255.421.4s.261.447-.1-.141c.046.074.1.144.148.218.11.175.194.359.288.543-.365-.723-.058-.108.006.136a5.018 5.018 0 01.119.613l-.079-.592a5.6 5.6 0 010 1.347l.079-.592a6.638 6.638 0 01-.343 1.309c.273-.779.033-.1-.093.113q-.067.116-.142.227c-.288.432.316-.362.083-.092a5.177 5.177 0 01-.432.453c-.386.347.4-.266.1-.067-.074.05-.148.1-.226.15-.12.074-.245.137-.369.2-.362.193.49-.165.12-.053a5.786 5.786 0 01-.865.208l.591-.08a4.141 4.141 0 01-.987 0l.59.079a3.444 3.444 0 01-.423-.086 2.89 2.89 0 01-.206-.064q-.32-.122.234.1a1.858 1.858 0 00-.371-.218q.454.365.194.145a1.644 1.644 0 01-.095-.092c-.329-.277.279.448.1.145-.059-.1-.111-.208-.171-.307.346.571.141.365.074.119a3.055 3.055 0 01-.067-.347l.079.592a2.989 2.989 0 010-.7l-.08.592c.024-.144.061-.279.1-.418.083-.315-.246.46-.113.257.036-.055.071-.125.1-.182.122-.234-.172.239-.2.249a1.089 1.089 0 00.142-.151c.139-.187-.5.32-.22.166.076-.043.148-.088.227-.125a2.24 2.24 0 00.8-3.046 2.285 2.285 0 00-3.045-.8z"/><path data-name="Path 53" d="M120.885 27.788a4.254 4.254 0 00-4.464 1.142 6.138 6.138 0 00-1.755 4.224 7.553 7.553 0 005.258 6.828 6.76 6.76 0 007.727-2.975 6.253 6.253 0 00-.769-7.864 7.026 7.026 0 00-4.248-1.861 5.979 5.979 0 00-4.326 1.43 2.231 2.231 0 000 3.147 2.288 2.288 0 003.147 0c-.573.464-.08.073.095-.022.212-.114.412-.082-.138.045.085-.021.169-.062.254-.088.113-.034.736-.145.285-.085s.22 0 .356 0c.107 0 .221.025.328.021-.54.019-.454-.074-.264-.034s.4.083.59.145c.089.027.175.061.263.09.387.132-.412-.223-.175-.071.171.108.361.187.531.3s.315.337-.093-.089c.049.05.114.095.168.142.151.135.274.292.418.433.194.193-.323-.488-.119-.144.046.079.1.154.142.233a2.72 2.72 0 00.128.245c-.326-.458-.135-.344-.064-.119.039.117.061.237.095.356.1.337-.025-.187-.021-.231-.021.208.016.453.018.665s-.138.35.034-.172c-.03.093-.036.2-.058.3-.049.211-.168.429-.2.639.068-.481.147-.326.024-.085-.047.091-.1.18-.15.269s-.107.175-.165.26c-.036.055-.267.4-.046.073s-.012 0-.064.059c-.07.076-.141.148-.215.221s-.153.137-.228.208c-.313.292.4-.26.061-.047-.191.119-.383.231-.58.341-.245.137-.255-.028.138-.053a1.652 1.652 0 00-.289.1c-.1.03-.2.049-.3.076-.424.12.47-.031.162-.012-.242.013-.478.012-.72.012-.47 0 .534.12.076.015-.105-.025-.211-.043-.316-.071s-.209-.056-.312-.091c-.062-.021-.46-.185-.1-.027s-.036-.024-.091-.052c-.1-.049-.191-.1-.286-.159s-.187-.114-.277-.175a4.616 4.616 0 01-.214-.153q.387.3.193.142c-.16-.151-.326-.294-.476-.456-.055-.058-.151-.221-.218-.248.221.086.267.368.068.083a5.56 5.56 0 01-.341-.562 1.715 1.715 0 00-.144-.3c.135.332.162.387.077.166q-.033-.091-.062-.187a4.688 4.688 0 01-.086-.316q-.031-.129-.053-.258l.04.331a3.755 3.755 0 000-.742c.047.522-.055.358.012.1.031-.125.074-.243.111-.365.131-.438-.257.457-.025.065.065-.108.119-.221.187-.328.034-.056.279-.4.04-.079s.086-.079.145-.136a1.444 1.444 0 00.175-.157c-.3.226-.359.273-.172.145a2.119 2.119 0 01.2-.11c-.027.034-.545.171-.228.1.564-.131-.444-.022-.061-.013.243.006.05.077-.263-.055.139.059.3.077.445.136a2.233 2.233 0 001.715-.224 2.224 2.224 0 00.8-3.046 2.61 2.61 0 00-1.329-1.022z"/><path data-name="Path 54" d="M24.839 3.42c-5.377.371-9.108 5.625-8.73 10.847.424 5.856 5.562 9.97 10.976 11.233a15.482 15.482 0 009.264-.412c3.137-1.291 5.125-4.036 6.352-7.105 2.01-5.028 1.289-11.467-3.289-14.828C36.569 1.067 32.593.664 29.194.225c-3.552-.458-7.224-.334-10.381 1.539-2.46 1.461-.224 5.312 2.248 3.844a10.98 10.98 0 016.743-1.088 33.666 33.666 0 016.97 1.28c3.835 1.2 5.08 4.861 4.368 8.516a10.587 10.587 0 01-2.681 5.479c-1.635 1.638-4.013 1.862-6.215 1.717-3.654-.239-7.953-2.18-9.344-5.813a6.292 6.292 0 01.372-5.088 5.624 5.624 0 011.488-1.9 8.164 8.164 0 01.987-.589 4.958 4.958 0 011.091-.251 2.278 2.278 0 002.226-2.226 2.244 2.244 0 00-2.226-2.226z"/><path data-name="Path 55" d="M54.469 125.266l-7.393-59.3c-.272-2.172-1.911-3.772-4.227-3.218a14.119 14.119 0 01-5.519.276 16.35 16.35 0 00-2.586-.675c1.1-.837.433 1.57.381 1.552-.006 0 .159-.128.237-.1a11.745 11.745 0 002.5 0c1.065.05 2.131.088 3.2.088a58.091 58.091 0 006.384-.352 79.362 79.362 0 0012.009-2.414c3.12-.841 6.8-1.954 9.825-.276l-.677-5.243a18.152 18.152 0 01-11.135 6.062 3.326 3.326 0 00-2.451 3.22l5.959 58.916a3.434 3.434 0 003.338 3.338c1.665 0 3.521-1.534 3.338-3.338l-5.959-58.917-2.451 3.218a23.824 23.824 0 0014.082-7.779 3.383 3.383 0 00-.675-5.243c-4.96-2.748-10.383-1.65-15.576-.231a59.989 59.989 0 01-17.433 2.344c-2.788-.068-5.748-.493-8.217 1.128a6.16 6.16 0 00-2.605 6.69c.846 2.918 4.053 3.96 6.737 4.448a21.792 21.792 0 009.07-.276l-4.226-3.22 7.393 59.3a3.446 3.446 0 003.338 3.338c1.632 0 3.564-1.536 3.338-3.338z"/><path data-name="Path 56" d="M47.836 125.882c-7.405 16.841-14.527 33.8-21.809 50.7q-2.724 6.32-5.485 12.626a120.239 120.239 0 00-5.006 12.342c-.62 1.984-1.052 4.141-.088 6.095a6.086 6.086 0 005.042 3.312 25.752 25.752 0 005.763-.387l7.325-.85 56.033-6.5 13.917-1.614c3.6-.417 8.565-.2 10.91-3.533 2.878-4.085-1.027-8.169-3.319-11.424q-4.135-5.875-8.224-11.786c-11.99-17.309-23.764-34.766-35.936-51.948a3.432 3.432 0 00-4.568-1.2 3.367 3.367 0 00-1.2 4.568c9.982 14.088 19.7 28.361 29.479 42.586q7.4 10.758 14.895 21.45.852 1.211 1.708 2.42c.23.325 1.12 2.048 1.472 2.151l.1.217.365-1.1c.09.083-.2.2-.367.191a15.1 15.1 0 00-2.019.35l-12.818 1.487-51.27 5.945-13.19 1.535c-2.074.24-4.15.491-6.226.723a16.244 16.244 0 00-2.1.12c-.2.053-.644-.23 0 .126.534.3.166.406.472-.217.822-1.671 1.212-3.688 1.915-5.435.758-1.878 1.593-3.726 2.408-5.58q2.624-5.98 5.209-11.978c7.479-17.329 14.78-34.738 22.378-52.017a3.447 3.447 0 00-1.2-4.568c-1.418-.829-3.838-.461-4.568 1.2z"/></g></symbol><symbol viewBox="0 0 304 304" id="ukrop" xmlns="http://www.w3.org/2000/svg"><defs><filter id="ga" x="0" y="0" width="304" height="304" filterUnits="userSpaceOnUse"><feOffset dx="6" dy="6"/><feGaussianBlur stdDeviation="14" result="blur"/><feFlood flood-color="#d691a2" flood-opacity=".239"/><feComposite operator="in" in2="blur"/><feComposite in="SourceGraphic"/></filter></defs><g data-name="&#x43C;&#x430;&#x441;&#x43B;&#x43E; &#x443;&#x43A;&#x440;&#x43E;&#x43F;&#x430;"><g filter="url(#ga)"><circle data-name="Ellipse 14" cx="110" cy="110" r="110" transform="translate(36 36)"/></g><g data-name="Group 21"><path data-name="Path 84" d="M178.482 208.163a158.676 158.676 0 00-25.165-81.493 158.244 158.244 0 00-14.707-19.311l-3.45 4.471 1.323.7c3.232 1.719 6.112-3.192 2.873-4.915l-1.323-.7a2.86 2.86 0 00-3.45 4.471 153.035 153.035 0 0135.767 73.339 148.553 148.553 0 012.439 23.438c.095 3.657 5.788 3.67 5.693 0z"/><path data-name="Path 85" d="M53.069 94.855c-4.209 13.168 5.532 25.556 17.43 30.021 12.853 4.826 28.133 2.621 40.663-2.146a94.957 94.957 0 0034.494-22.99c8.691-9.092 16.166-21.337 15.261-34.391-.867-12.521-9.261-25.634-22.455-27.5a2.949 2.949 0 00-3.5 1.989c-.381 1.33.469 3.285 1.989 3.5 9.987 1.416 16.506 10.4 18.041 19.926 1.774 11.018-4.038 21.88-11.06 29.938-15.223 17.47-40.316 31.573-64.143 28.159-6.407-.918-12.853-3.376-17.216-8.333-3.995-4.539-5.883-10.807-4.014-16.658 1.118-3.5-4.376-4.995-5.49-1.512z"/><path data-name="Path 86" d="M130.78 110.648a42.61 42.61 0 0017.191-30.847c.788-10.191-3.416-22.639-14.3-25.554-3.543-.951-5.055 4.539-1.514 5.488 8.678 2.327 10.811 13.073 10.054 20.8a36.448 36.448 0 01-14.307 25.2c-2.907 2.163-.07 7.107 2.873 4.917z"/><path data-name="Path 87" d="M131.503 108.604c6.8-9.6 5.276-23.871-3.19-31.964-2.649-2.533-6.68 1.486-4.027 4.025a19.621 19.621 0 012.3 25.064 2.873 2.873 0 001.021 3.9 2.907 2.907 0 003.894-1.021z"/><path data-name="Path 88" d="M131.727 110.081a33.755 33.755 0 00-4.112-16.578 2.872 2.872 0 00-3.894-1.023 2.907 2.907 0 00-1.021 3.9c.3.558.592 1.121.862 1.7.042.087.471 1.061.262.564q.157.376.3.757a30.7 30.7 0 011.137 3.63c.152.617.283 1.237.4 1.862.047.267.089.537.135.8.049.342.051.359.009.051.023.18.044.36.065.539a31.4 31.4 0 01.167 3.8 2.847 2.847 0 105.693 0z"/><path data-name="Path 89" d="M130.438 106.451a30.278 30.278 0 01-17.244-21.053 2.847 2.847 0 00-5.49 1.512 35.7 35.7 0 0019.861 24.455 2.934 2.934 0 003.894-1.021 2.868 2.868 0 00-1.021-3.894z"/><path data-name="Path 90" d="M129.402 106.844c-9.541-1.469-19.6-3.38-27.554-9.217-6.761-4.964-11.781-13.711-9.727-22.239.856-3.56-4.632-5.08-5.49-1.512-2.448 10.168 2.48 20.667 10.346 27.125 8.729 7.166 20.011 9.653 30.911 11.333a2.942 2.942 0 003.5-1.989 2.864 2.864 0 00-1.987-3.5z"/><path data-name="Path 91" d="M121.404 109.277c-11.678 5.653-26.579 6.465-37.64-1.085-9.327-6.367-14.578-18.713-11.077-29.661 1.118-3.5-4.376-4.995-5.49-1.514-4.243 13.267 2.133 27.82 13.145 35.707 12.777 9.15 30.342 8.05 43.935 1.469 3.3-1.6.414-6.505-2.873-4.915z"/><path data-name="Path 92" d="M125.034 111.091c-13.014 12.156-29.363 26.977-48.759 22.694-3.571-.788-5.1 4.7-1.514 5.49 21.7 4.792 39.591-10.42 54.3-24.159 2.681-2.507-1.349-6.526-4.027-4.025z"/><path data-name="Path 93" d="M138.919 105.825c11.857-.342 23.744-1.5 33.5-8.891a41.316 41.316 0 0015.792-25.36c.643-3.581-4.841-5.118-5.49-1.512a35.908 35.908 0 01-13.716 22.364c-8.79 6.566-19.476 7.4-30.086 7.706-3.655.1-3.67 5.8 0 5.693z"/><path data-name="Path 94" d="M152.808 89.862l2.985-8.014a2.847 2.847 0 00-4.181-3.215 3.216 3.216 0 00-1.309 1.7l-2.985 8.016a2.872 2.872 0 00.287 2.194 2.849 2.849 0 003.9 1.021 3.226 3.226 0 001.307-1.7z"/><path data-name="Path 95" d="M152.008 76.161a5.167 5.167 0 00-.991 6.329c1.068 2.086 3.738 1.585 4.915 0a78.026 78.026 0 0012.79-26.7c.932-3.547-4.558-5.059-5.49-1.512a73.8 73.8 0 01-12.215 25.34h4.915c.2.393-.338.956.1.569a2.846 2.846 0 10-4.025-4.025z"/><path data-name="Path 96" d="M166.519 49.626c-2.336 2.412-1.437 6.222 1.182 8a4.877 4.877 0 004.3.488 5.988 5.988 0 003.465-3.313 5.793 5.793 0 00.013-4.609 6.51 6.51 0 00-3-3.232 7 7 0 00-1.968-.706 8.032 8.032 0 00-2.719-.021 7.384 7.384 0 00-3.532 1.757 7.794 7.794 0 00-2.457 8.023 2.847 2.847 0 005.49-1.514 4.485 4.485 0 01-.173-.755l.1.757a4.891 4.891 0 01.013-1.2l-.1.755a5.445 5.445 0 01.364-1.268l-.287.679a5.862 5.862 0 01.676-1.148l-.444.575a5.79 5.79 0 01.932-.947l-.577.446a5.164 5.164 0 011.133-.67l-.679.287a4.7 4.7 0 011.057-.287l-.757.1a4.448 4.448 0 011.03-.006l-.757-.1a4.927 4.927 0 011.141.3l-.679-.286a4.876 4.876 0 011.017.585l-.575-.444a4.344 4.344 0 01.732.738l-.444-.577a4.1 4.1 0 01.406.695l-.288-.681a3.562 3.562 0 01.226.772l-.1-.757a3.368 3.368 0 010 .782l.1-.757a3.6 3.6 0 01-.239.864l.287-.679a3.941 3.941 0 01-.459.769l.444-.577a3.462 3.462 0 01-.55.543l.577-.444a3.411 3.411 0 01-.56.334l.679-.289a2.846 2.846 0 01-.622.182l.757-.1a2.606 2.606 0 01-.632.006l.757.1a2.492 2.492 0 01-.454-.121l.681.286a2.651 2.651 0 01-.564-.328l.577.444a3.028 3.028 0 01-.463-.472l.446.575a3.164 3.164 0 01-.378-.66l.287.679a3.052 3.052 0 01-.171-.632l.1.757a2.561 2.561 0 010-.638l-.1.757a2.44 2.44 0 01.114-.435l-.287.681a2.174 2.174 0 01.22-.4l-.446.575a2.778 2.778 0 01.186-.213 2.846 2.846 0 10-4.025-4.025z"/><path data-name="Path 97" d="M186.018 63.014a4.708 4.708 0 00-4.623 3.9 5.081 5.081 0 003.372 5.9 6.655 6.655 0 006.39-1.383 11.361 11.361 0 003.158-5.519 2.923 2.923 0 00-1.307-3.214c-4.831-3.435-12.3-1.556-15.187 3.511a2.847 2.847 0 004.915 2.873c.131-.23.281-.44.421-.662.18-.283-.45.529-.14.186.095-.106.186-.214.283-.317.163-.171.334-.334.51-.488.089-.076.438-.353.042-.046s-.042.038.055-.028a5.068 5.068 0 011.366-.753c-.142.04-.66.252-.216.1.114-.038.226-.08.338-.116.25-.08.5-.146.759-.2.161-.036.937-.157.4-.083-.526.074-.076.017.047.008.142-.011.287-.019.429-.023.237-.006.474 0 .712.013a1.569 1.569 0 01.423.038c-.1-.051-.759-.131-.266-.03a3.809 3.809 0 011.427.4c-.1-.078-.657-.309-.228-.087.106.055.213.1.315.161a6.941 6.941 0 01.723.457l-1.308-3.215c-.1.315-.2.628-.309.936-.021.059-.188.364-.158.421q.242-.561.112-.266c-.034.082-.072.163-.11.245a8.433 8.433 0 01-.421.784c-.076.125-.165.243-.241.368-.182.29.41-.459.066-.093-.121.129-.237.258-.366.38-.083.08-.461.457-.1.1.33-.324.028-.038-.091.03a3.534 3.534 0 01-.2.106q-.3.145.328-.131a3.141 3.141 0 00-.738.2c.461-.216.571-.049.156-.042-.127 0-.585-.049-.068.026.717.106-.776-.269-.127-.028.516.192.03-.047-.044-.059q.532.439.285.222a1.829 1.829 0 01-.161-.157s.436.691.2.239c-.148-.285.218.721.123.3-.085-.37.049-.286.009.288a2.637 2.637 0 00-.008-.3c-.013-.514.015.319-.053.338 0 0 .085-.355.095-.349.032.021-.345.676-.148.351l.18-.3c.019.046-.524.621-.182.279.224-.224-.63.417-.266.214.383-.214-.708.218-.271.127-.175.036-.81.046-.3.07a2.864 2.864 0 002.846-2.847 2.909 2.909 0 00-2.846-2.846z"/><path data-name="Path 98" d="M134.121 32.085a5.958 5.958 0 00-2.342 1.478 6.5 6.5 0 00-1.393 2.406 5.535 5.535 0 00.9 5.012 6.05 6.05 0 004.515 2.347 5.73 5.73 0 004.279-1.681 6.6 6.6 0 001.776-4.139 6.013 6.013 0 00-1.435-4.275 6.284 6.284 0 00-3.632-2.114 8.018 8.018 0 00-4.849.579 7.72 7.72 0 00-3.469 3.366 10.045 10.045 0 00-1.188 4.951 2.847 2.847 0 005.693 0 8.121 8.121 0 01.066-1.234l-.1.757a7.451 7.451 0 01.492-1.784l-.287.679a6.482 6.482 0 01.8-1.363l-.446.575a5.66 5.66 0 01.949-.934l-.575.444a4.874 4.874 0 01.985-.566l-.681.286a5.05 5.05 0 011.177-.306l-.757.1a5.28 5.28 0 011.213 0l-.757-.1a4.788 4.788 0 011.154.313l-.681-.286a4.174 4.174 0 01.833.49l-.577-.446a3.956 3.956 0 01.609.613l-.446-.577a3.392 3.392 0 01.355.6l-.287-.679a3.489 3.489 0 01.233.839l-.1-.757a4.089 4.089 0 010 .975l.1-.755a4.065 4.065 0 01-.254.941l.288-.681a3.848 3.848 0 01-.427.75l.444-.575a3.344 3.344 0 01-.524.539l.577-.446a2.958 2.958 0 01-.56.34l.679-.289a3.9 3.9 0 01-.877.237l.757-.1a3.187 3.187 0 01-.772 0l.757.1a3.643 3.643 0 01-.75-.2l.679.287a3.65 3.65 0 01-.767-.448l.577.446a3.489 3.489 0 01-.543-.554l.444.577a3.2 3.2 0 01-.33-.575l.287.681a3.037 3.037 0 01-.176-.641l.1.755a3.285 3.285 0 010-.772l-.1.757a3.521 3.521 0 01.2-.75l-.287.679a3.607 3.607 0 01.442-.771l-.444.575a3.378 3.378 0 01.548-.543l-.575.444a3.133 3.133 0 01.573-.332l-.679.286.1-.04a3.111 3.111 0 001.7-1.309 2.9 2.9 0 00.287-2.194 2.871 2.871 0 00-1.307-1.7 2.764 2.764 0 00-2.194-.286z"/><path data-name="Path 99" d="M125.548 46.673a5.719 5.719 0 00-2.431 2.224 7.183 7.183 0 00-.979 3.22 5.067 5.067 0 00.011 1.046 8.073 8.073 0 00.315 1.7 6.714 6.714 0 001.748 2.854 6.19 6.19 0 003.706 1.594 5.953 5.953 0 003.465-.867 7.508 7.508 0 003.597-6.046 5.521 5.521 0 00-.264-1.957 4 4 0 00-2.437-2.831 8.087 8.087 0 00-1.771-.142l-1.158-.047-2.315-.093a2.865 2.865 0 00-2.013.835 3.117 3.117 0 00-.833 2.011l-.173 2.85a2.848 2.848 0 002.847 2.847 2.915 2.915 0 002.846-2.847l.173-2.85-2.847 2.847 4.486.18-2.458-1.41a3.344 3.344 0 01.376.655l-.287-.681a3.3 3.3 0 01.209.784l-.1-.757a3.9 3.9 0 01-.01.975l.1-.757a4.607 4.607 0 01-.292 1.04l.287-.679a5.119 5.119 0 01-.643 1.095l.446-.577a5 5 0 01-.835.829l.575-.446a4.2 4.2 0 01-.852.5l.681-.288a3.565 3.565 0 01-.86.233l.757-.1a3.286 3.286 0 01-.736 0l.757.1a3.284 3.284 0 01-.772-.2l.679.286a3.175 3.175 0 01-.687-.395l.577.446a3.568 3.568 0 01-.6-.605l.444.575a4.1 4.1 0 01-.5-.877l.287.679a4.955 4.955 0 01-.306-1.142l.1.757a5.137 5.137 0 010-1.266l-.1.755a4.466 4.466 0 01.3-1.127l-.287.679a3.854 3.854 0 01.431-.742l-.446.575a3.479 3.479 0 01.548-.56l-.575.446a3.226 3.226 0 01.7-.41 2.838 2.838 0 001.308-1.7 2.913 2.913 0 00-.287-2.194 2.875 2.875 0 00-1.7-1.307l-.755-.1a2.829 2.829 0 00-1.437.389z"/><path data-name="Path 100" d="M125.399 71.252a5.279 5.279 0 00-2.408 4.084 5.943 5.943 0 00.841 3.531 5.385 5.385 0 003.342 2.543 5.859 5.859 0 005.072-1.349 6.209 6.209 0 001.171-8.186 7.312 7.312 0 00-3.778-2.712 6.961 6.961 0 00-4.215.025 8.383 8.383 0 00-5.45 8.016 2.847 2.847 0 005.693 0 6.462 6.462 0 01.047-.858l-.1.755a6.4 6.4 0 01.421-1.541l-.287.679a6.163 6.163 0 01.738-1.266l-.446.575a5.71 5.71 0 01.939-.939l-.575.446a4.875 4.875 0 011.048-.6l-.681.287a4.488 4.488 0 01.983-.258l-.757.1a4.788 4.788 0 011.118 0l-.755-.1a5.077 5.077 0 011.188.321l-.679-.286a4.828 4.828 0 01.958.556l-.577-.446a4.314 4.314 0 01.7.695l-.446-.577a3.862 3.862 0 01.442.755l-.287-.681a3.489 3.489 0 01.211.755l-.1-.755a3.474 3.474 0 01.006.782l.1-.755a4.037 4.037 0 01-.266.975l.287-.679a4.245 4.245 0 01-.524.873l.446-.575a4.176 4.176 0 01-.64.628l.577-.444a3.736 3.736 0 01-.66.393l.679-.287a3.176 3.176 0 01-.731.213l.757-.1a3.1 3.1 0 01-.662.009l.755.1a2.563 2.563 0 01-.636-.169l.679.288a2.812 2.812 0 01-.533-.321l.577.444a3.048 3.048 0 01-.442-.442l.444.575a3.5 3.5 0 01-.457-.786l.287.681a3.852 3.852 0 01-.216-.8l.1.757a3.357 3.357 0 010-.894l-.1.755a2.849 2.849 0 01.158-.586l-.287.679a2.508 2.508 0 01.3-.522l-.444.577a2.491 2.491 0 01.378-.37l-.575.446c.049-.036.1-.072.152-.1a2.847 2.847 0 10-2.873-4.915z"/><path data-name="Path 101" d="M122.457 87.46a2.882 2.882 0 00-.852.632 3.289 3.289 0 00-.632.846 4.062 4.062 0 00-.378.972 9.924 9.924 0 00-.118.879 1.392 1.392 0 000 .218 4.1 4.1 0 00.6 2.036 3.88 3.88 0 001.211 1.217 2.986 2.986 0 002.435.416 1.628 1.628 0 00.169-.059 6.472 6.472 0 00.782-.338 3.943 3.943 0 00.822-.628 4.494 4.494 0 001.055-1.746 4.33 4.33 0 00.23-1.4 6.078 6.078 0 00-.116-1.067 2.112 2.112 0 00-.076-.342 4.542 4.542 0 00-1.07-1.839 4 4 0 00-1.843-1.068 2.156 2.156 0 00-1.135-.049 2.109 2.109 0 00-1.057.338 3.188 3.188 0 00-1.309 1.7l-.1.757a2.828 2.828 0 00.387 1.437 2.911 2.911 0 001.7 1.307 1.468 1.468 0 01.2.065l-.679-.287a1.291 1.291 0 01.243.14l-.575-.444a1.307 1.307 0 01.235.233l-.444-.575a1.7 1.7 0 01.2.342l-.287-.679a1.972 1.972 0 01.125.478l-.1-.757a2.06 2.06 0 010 .529l.1-.757a1.907 1.907 0 01-.121.448l.287-.679a1.511 1.511 0 01-.182.317l.446-.577a1.319 1.319 0 01-.233.237l.575-.444a1.2 1.2 0 01-.243.142l.679-.286a1.367 1.367 0 01-.167.059h1.512l-.059-.023.681.288a1.029 1.029 0 01-.184-.106l.575.444a1.08 1.08 0 01-.169-.167l.446.575a1.191 1.191 0 01-.137-.233l.288.679a1.364 1.364 0 01-.089-.326l.1.757a1.469 1.469 0 010-.342l-.1.755a1.305 1.305 0 01.087-.324l-.287.681a1.271 1.271 0 01.12-.209l-.444.577a1 1 0 01.167-.169l-.575.444a1 1 0 01.186-.106 2.746 2.746 0 001.359-2.837 2.108 2.108 0 00-.338-1.057 2.867 2.867 0 00-1.7-1.309l-.757-.1a2.828 2.828 0 00-1.437.387z"/><path data-name="Path 102" d="M109.29 75.427a5.189 5.189 0 00-2.759 4.547 6.168 6.168 0 001.8 4.632 5.4 5.4 0 005.888 1.023 6.659 6.659 0 003.824-4.541 6.333 6.333 0 00-1.672-5.923 7.73 7.73 0 00-5.224-2.19 7.411 7.411 0 00-7.316 5.756c-.844 3.433.343 7.568 3.651 9.266a2.847 2.847 0 002.873-4.917 3.809 3.809 0 01-.355-.2c-.235-.148-.528-.49.171.156-.169-.156-.342-.3-.5-.474-.406-.457.381.554.142.194-.055-.083-.112-.163-.163-.247a5.294 5.294 0 01-.359-.7l.287.681a6.076 6.076 0 01-.385-1.446l.1.757a6.679 6.679 0 010-1.617l-.1.755a6.279 6.279 0 01.412-1.55l-.288.679a5.777 5.777 0 01.385-.746c.076-.121.381-.528.028-.076s0 .017.093-.085.184-.186.281-.271a1.388 1.388 0 00.15-.127c0-.006-.632.452-.34.267a5.74 5.74 0 01.8-.431l-.679.286a4.871 4.871 0 011.038-.277l-.757.1a5.271 5.271 0 011.317 0l-.757-.1a5.446 5.446 0 011.27.342l-.679-.286a5.252 5.252 0 01.634.323c.1.061.194.137.3.2-.725-.416-.383-.311-.171-.112.085.08.163.167.247.249.385.381-.292-.455-.156-.213.125.226.264.427.37.664l-.288-.679a3.626 3.626 0 01.224.808l-.1-.757a3.721 3.721 0 010 .835l.1-.755a4.248 4.248 0 01-.288 1.042l.287-.681c-.093.205-.2.395-.315.588-.258.444.156-.258.2-.233 0 0-.226.26-.237.271-.068.072-.144.137-.214.207-.362.349.209-.214.25-.188-.009-.008-.558.321-.609.344l.679-.288a3.235 3.235 0 01-.778.213l.757-.1a3.019 3.019 0 01-.7-.007l.757.1a2.729 2.729 0 01-.573-.157l.679.286c-.14-.062-.266-.152-.4-.22-.148-.106-.1-.068.142.112s.285.224.146.1a2.176 2.176 0 00-.161-.163c-.178-.177-.169-.412.239.323-.036-.066-.087-.127-.129-.194a3.538 3.538 0 01-.235-.463l.287.679a3.9 3.9 0 01-.243-.919l.1.757a3.791 3.791 0 010-.843l-.1.757a3.027 3.027 0 01.213-.786l-.288.679c.051-.108.116-.207.167-.313.173-.357-.577.63-.171.232s-.6.336-.228.159c.112-.053.216-.123.332-.175a2.851 2.851 0 001.309-1.7 2.907 2.907 0 00-.287-2.192 2.871 2.871 0 00-1.7-1.309 3.3 3.3 0 00-2.194.286z"/><path data-name="Path 103" d="M90.618 66.527c-2.2-1.653-5.245-.8-7.12.884a6.3 6.3 0 00-1.856 3.074 5.965 5.965 0 00.524 4.131 7.184 7.184 0 005.875 3.592 7.421 7.421 0 006.179-2.514 10.226 10.226 0 002.433-7.63 3.016 3.016 0 00-.835-2.014 3.339 3.339 0 00-2.012-.833 12.114 12.114 0 00-11.3 5.441 2.867 2.867 0 001.021 3.9 2.914 2.914 0 003.894-1.023c.065-.095.129-.192.2-.285s.279-.37-.015.011c-.321.416.127-.137.222-.241a12.53 12.53 0 01.953-.9c.252-.222-.524.381-.249.19.095-.066.186-.136.281-.2.173-.118.347-.23.526-.336a9.975 9.975 0 011.173-.592l-.679.287a9.865 9.865 0 012.395-.657l-.757.1a9.144 9.144 0 012.344 0l-2.846-2.846a8.681 8.681 0 01-.034 2.01l.1-.757a8.165 8.165 0 01-.535 1.936l.288-.681a7.2 7.2 0 01-.49.938c-.093.148-.2.285-.3.431.482-.74.239-.309.068-.125a4.72 4.72 0 01-.325.323c-.522.476.463-.294.068-.036a5.734 5.734 0 01-.854.484l.679-.286a4.857 4.857 0 01-1.093.3l.755-.1a5.414 5.414 0 01-1.368.006l.757.1a5.515 5.515 0 01-1.311-.361l.681.286a4.889 4.889 0 01-.594-.309c-.095-.059-.182-.127-.275-.186.748.461.4.321.2.131-.08-.076-.152-.157-.228-.235-.37-.374.311.482.176.235-.116-.213-.243-.4-.34-.624l.287.679a3.361 3.361 0 01-.2-.757l.1.757a3.163 3.163 0 010-.657l-.1.755a3.418 3.418 0 01.233-.841l-.287.679a5.82 5.82 0 01.323-.583c.232-.389-.488.548-.173.222.078-.082.15-.167.23-.247.057-.055.233-.159.25-.226-.028.1-.666.474-.216.18a4.134 4.134 0 01.579-.311l-.679.286a3.5 3.5 0 01.82-.226l-.757.1a2.946 2.946 0 01.621-.006l-.757-.1a2.749 2.749 0 01.6.152l-.679-.286a2.747 2.747 0 01.564.33 2.867 2.867 0 002.194.286 2.9 2.9 0 001.7-1.309 2.868 2.868 0 00.287-2.192 3.321 3.321 0 00-1.307-1.7z"/><path data-name="Path 104" d="M68.296 77.49a3.085 3.085 0 001.535-2.615 3.035 3.035 0 00-2.207-2.852 3.685 3.685 0 00-3.571.875 4.5 4.5 0 00-1.114 3.131 5.958 5.958 0 00.691 2.647 5.836 5.836 0 001.3 1.693 7.656 7.656 0 002.4 1.471 5.77 5.77 0 004.759-.27 5.6 5.6 0 002.769-3.645 6.39 6.39 0 00.165-2.053 9.587 9.587 0 00-.207-1.326 8.615 8.615 0 00-.491-1.3 5.98 5.98 0 00-5.387-3.589 6.316 6.316 0 00-2.748.662 6.04 6.04 0 00-1.888 1.395 8.047 8.047 0 00-1.588 2.583 6.433 6.433 0 00.34 5.37 2.847 2.847 0 104.915-2.873c-.047-.093-.093-.184-.135-.281l.288.681a3.6 3.6 0 01-.222-.807l.1.757a3.872 3.872 0 010-.983l-.1.757a4.571 4.571 0 01.306-1.108l-.287.679a4.848 4.848 0 01.583-1l-.444.575a4.685 4.685 0 01.808-.814l-.575.446a3.937 3.937 0 01.843-.49l-.679.286a3.562 3.562 0 01.789-.216l-.757.1a3.27 3.27 0 01.839 0l-.757-.1a3.13 3.13 0 01.715.2l-.679-.286a3.268 3.268 0 01.679.4l-.575-.444a3.7 3.7 0 01.605.613l-.444-.577a4.375 4.375 0 01.541.936l-.287-.679a4.577 4.577 0 01.3 1.118l-.1-.757a4.139 4.139 0 010 1.072l.1-.755a3.589 3.589 0 01-.222.82l.287-.679a3.1 3.1 0 01-.391.674l.444-.577a2.984 2.984 0 01-.473.469l.577-.444a2.944 2.944 0 01-.562.334l.681-.286a2.971 2.971 0 01-.683.19l.757-.1a3.344 3.344 0 01-.778 0l.757.1a3.766 3.766 0 01-.974-.271l.679.288a4.5 4.5 0 01-.888-.526l.575.444a4.31 4.31 0 01-.729-.723l.446.577a3.723 3.723 0 01-.471-.8l.288.679a3.135 3.135 0 01-.188-.67l.1.757a2.851 2.851 0 01-.006-.7l-.1.757a2.776 2.776 0 01.171-.632l-.287.692a.426.426 0 01.055-.095l-.446.575a.566.566 0 01.074-.076l-.575.444a.848.848 0 01.137-.083l-.679.286a1.184 1.184 0 01.213-.059l-.757.1a1.22 1.22 0 01.262 0l-.755-.1a.752.752 0 01.167.046l-.681-.286a.261.261 0 01.059.034l-.577-.446.021.021-.444-.577.013.023-.287-.681.008.025-.1-.757v.023l.1-.755-.008.025.287-.679-.015.027.444-.577a.27.27 0 01-.059.055l.577-.446-.044.029a2.992 2.992 0 00-1.309 1.7 2.9 2.9 0 00.288 2.194 2.842 2.842 0 003.893 1.01z"/><path data-name="Path 105" d="M49.196 96.479a5.053 5.053 0 00.975 6.166 5.645 5.645 0 006.537.681 6.536 6.536 0 003.338-4.361 8 8 0 00-.733-5.086 8.531 8.531 0 00-3.08-3.378 7.033 7.033 0 00-5.021-.958 7.2 7.2 0 00-5.518 5.875 8.7 8.7 0 00.288 4.6 7.188 7.188 0 003.3 3.958 2.847 2.847 0 102.873-4.915 4.483 4.483 0 01-.643-.408l.577.446a4.365 4.365 0 01-.715-.723l.446.577a4.977 4.977 0 01-.6-1.042l.288.679a5.754 5.754 0 01-.361-1.363l.1.755a6.434 6.434 0 01.008-1.621l-.1.755a6.114 6.114 0 01.4-1.461l-.287.679a5.248 5.248 0 01.653-1.12l-.446.577a4.58 4.58 0 01.708-.714l-.577.446a4.234 4.234 0 01.873-.52l-.679.289a4.176 4.176 0 01.981-.271l-.757.1a4.062 4.062 0 011.04.008l-.757-.1a4.644 4.644 0 01.994.281l-.681-.288a5.43 5.43 0 011.089.634l-.577-.444a6.173 6.173 0 011.063 1.061l-.448-.574a6.41 6.41 0 01.761 1.3l-.288-.679a5.477 5.477 0 01.366 1.317l-.1-.757a4.683 4.683 0 010 1.129l.1-.757a4.054 4.054 0 01-.277.989l.288-.679a4.078 4.078 0 01-.433.734l.446-.575a4.588 4.588 0 01-.774.772l.575-.444a4.5 4.5 0 01-.827.478l.679-.287a3.926 3.926 0 01-.774.222l.757-.1a3.4 3.4 0 01-.8.013l.757.1a2.876 2.876 0 01-.607-.157l.679.286a2.832 2.832 0 01-.488-.283l.575.444a2.948 2.948 0 01-.478-.482l.444.575a3 3 0 01-.334-.588l.287.681a2.941 2.941 0 01-.146-.535l.1.757a2.6 2.6 0 01-.006-.543l-.1.757a2.269 2.269 0 01.108-.419l-.287.681a2.429 2.429 0 01.154-.3 2.847 2.847 0 00-4.917-2.873z"/><path data-name="Path 106" d="M76.092 136.35c2.232-3.346-.647-8.209-4.564-8.154a2.887 2.887 0 00-2.846 2.847 5.776 5.776 0 01-.042.768l.1-.757a19.674 19.674 0 01-1.247 3.687 7.369 7.369 0 00-.288 4.38 6.232 6.232 0 002.671 3.757 4.575 4.575 0 004.983-.186 8.5 8.5 0 003.006-8.418 6.263 6.263 0 00-2.031-3.5 5.594 5.594 0 00-4.866-1.209 6.316 6.316 0 00-3.824 2.569 4.78 4.78 0 00-.237 5.046 2.87 2.87 0 003.894 1.021 2.911 2.911 0 001.023-3.894 1.783 1.783 0 01-.095-.192l.288.681a2.218 2.218 0 01-.131-.476l.1.757a2.149 2.149 0 010-.469l-.1.757a2.48 2.48 0 01.121-.452l-.288.679a3.929 3.929 0 01.252-.465c.156-.268-.512.588-.23.3.072-.072.139-.148.214-.218.093-.085.374-.3-.049.023s-.139.11-.03.04a4.332 4.332 0 01.567-.294l-.679.286a3.988 3.988 0 01.82-.23l-.757.1a3.235 3.235 0 01.835-.007l-.757-.1a2.84 2.84 0 01.6.165l-.681-.288a4.677 4.677 0 01.416.231c.256.146-.541-.488-.245-.178.068.072.14.144.213.214s.277.342-.034-.057-.085-.1-.019.006a4.361 4.361 0 01.268.531l-.287-.679a4.978 4.978 0 01.279 1.049l-.1-.757a5.917 5.917 0 010 1.5l.1-.757a6.756 6.756 0 01-.44 1.6l.287-.679a9.255 9.255 0 01-.583 1.059c-.169.281.41-.471.186-.23-.08.085-.169.175-.243.266-.251.313.178-.2.252-.167 0 0-.349.2-.366.211l.679-.286a2.373 2.373 0 01-.455.137l.757-.1a1.954 1.954 0 01-.516 0l.757.1a2.1 2.1 0 01-.387-.11l.679.286c-.152-.068-.59-.378-.156-.038.45.349 0-.042-.106-.148-.251-.256.25.281.237.309a1.241 1.241 0 00-.125-.2 4.452 4.452 0 01-.268-.529l.288.679a4.716 4.716 0 01-.285-1.055l.1.757a4.135 4.135 0 01-.008-.956l-.1.755a13.45 13.45 0 011-2.97 9.589 9.589 0 00.78-3.672l-2.847 2.846a2.694 2.694 0 01.328.013l-.755-.1a2.686 2.686 0 01.516.137l-.679-.286c.131.059.251.131.378.2.3.161-.309-.214-.317-.252.011.051.159.152.2.188.368.345-.361-.586-.106-.146.083.144.163.285.233.438l-.288-.681a3.216 3.216 0 01.2.736l-.1-.757a2.917 2.917 0 010 .643l.1-.757a2.539 2.539 0 01-.139.514l.287-.679a2.667 2.667 0 01-.211.381 2.865 2.865 0 001.021 3.894 2.912 2.912 0 003.894-1.021z"/><path data-name="Path 108" d="M59.87 140.122l1-1a2.926 2.926 0 000-4.025l-.577-.446a2.83 2.83 0 00-1.437-.389l-.757.1a2.832 2.832 0 00-1.254.732l-1 1a2.926 2.926 0 000 4.025l.577.446a2.829 2.829 0 001.437.389l.755-.1a2.829 2.829 0 001.256-.733z"/><path data-name="Path 110" d="M198.912 56.244v-.013l.1.757a.354.354 0 010-.078l-.1.757a.263.263 0 01.017-.067l-.287.679a.292.292 0 01.03-.053l-.444.577a.334.334 0 01.051-.051l-.575.444a.312.312 0 01.082-.046l-.681.287a.663.663 0 01.135-.036l-.757.1a.656.656 0 01.171 0l-.757-.1a.645.645 0 01.148.04l-.679-.286a.365.365 0 01.087.051l-.575-.446a.308.308 0 01.055.057l-.444-.577a.29.29 0 01.03.053l-.287-.681a.213.213 0 01.017.066l-.1-.757a.406.406 0 010 .068l.1-.757-.008.042a2.179 2.179 0 00-.051 1.135 2.934 2.934 0 002.04 2.366l.757.1a2.852 2.852 0 001.437-.389l.575-.446a2.838 2.838 0 00.733-1.256l.008-.04c.017-.1.095-.661.1-.763v-.019a3.731 3.731 0 00-.106-.818 3.776 3.776 0 00-.3-.731 4.464 4.464 0 00-.474-.626c-.013-.013-.025-.029-.038-.04l-.013-.011a32.08 32.08 0 00-.581-.45l-.032-.021a.4.4 0 00-.057-.028 6.893 6.893 0 00-.738-.309 1.187 1.187 0 00-.066-.015 7.518 7.518 0 00-.826-.108h-.066a6.969 6.969 0 00-.826.108c-.021 0-.044.008-.065.013a7.057 7.057 0 00-.74.307l-.057.03a4.505 4.505 0 00-.622.48 3.126 3.126 0 00-.8 1.357l-.009.034a5.787 5.787 0 00-.1.786.287.287 0 000 .04 7.5 7.5 0 00.106.8 3.188 3.188 0 001.309 1.7 2.109 2.109 0 001.059.338 2.159 2.159 0 001.135-.049l.679-.288a2.847 2.847 0 001.021-1.021l.287-.679a2.848 2.848 0 000-1.514z"/><path data-name="Path 111" d="M120.918 40.172h-1a2.924 2.924 0 00-2.846 2.847l.1.757a2.845 2.845 0 00.731 1.256l.577.444a2.83 2.83 0 001.437.389h1a2.924 2.924 0 002.847-2.846l-.1-.757a2.839 2.839 0 00-.732-1.256l-.575-.444a2.836 2.836 0 00-1.438-.389z"/><path data-name="Path 114" d="M47.848 87.906h1a3.158 3.158 0 002.013-.835 2.115 2.115 0 00.588-.915 2.142 2.142 0 00.245-1.1l-.1-.757a2.838 2.838 0 00-.732-1.256l-.575-.444a2.835 2.835 0 00-1.438-.389h-1a2.924 2.924 0 00-2.847 2.846l.1.755a2.825 2.825 0 00.731 1.256l.577.446a2.83 2.83 0 001.437.389z"/><path data-name="Path 116" d="M51.852 70.89h1a2.154 2.154 0 001.1-.247 2.559 2.559 0 001.5-1.5 2.142 2.142 0 00.245-1.1l-.1-.757a2.839 2.839 0 00-.732-1.256l-.577-.446a2.848 2.848 0 00-1.437-.387h-1a2.924 2.924 0 00-2.846 2.846l.1.755a2.845 2.845 0 00.733 1.256l.577.446a2.83 2.83 0 001.437.389z"/><path data-name="Path 117" d="M163.67 179.602a55.856 55.856 0 00-47.721-20.914c-3.628.29-3.659 5.985 0 5.693a50.637 50.637 0 0143.7 19.246c2.254 2.884 6.257-1.171 4.025-4.025z"/><path data-name="Path 118" d="M137.631 162.624a43.963 43.963 0 00-26.565 1.543 2.933 2.933 0 00-1.989 3.5 2.868 2.868 0 003.5 1.987 38.664 38.664 0 0123.537-1.543c3.554.9 5.069-4.592 1.514-5.49z"/><path data-name="Path 119" d="M139.764 168.86a29.02 29.02 0 00-27.347 11.024 2.839 2.839 0 00.444 3.45l1.042.919a2.915 2.915 0 004.027 0 2.873 2.873 0 000-4.025l-1.044-.921.446 3.45a23.1 23.1 0 0120.918-8.409 2.937 2.937 0 003.5-1.987c.37-1.344-.457-3.273-1.987-3.5z"/><path data-name="Path 120" d="M132.395 176.523l-6.959 4.086a2.847 2.847 0 00-1.021 3.894 2.9 2.9 0 003.894 1.021l6.959-4.086a2.951 2.951 0 001.309-1.7 2.847 2.847 0 00-4.182-3.215z"/><path data-name="Path 121" d="M150.327 160.486a29.89 29.89 0 00-14.557-17.6 2.847 2.847 0 00-2.873 4.915c.786.41 1.552.852 2.294 1.336.336.22.668.45.994.685.163.118.323.239.486.359.266.2-.323-.266.089.076a29.181 29.181 0 013.7 3.63l.383.467c.34.414-.12-.177.074.091.26.359.526.714.774 1.08.474.7.917 1.421 1.325 2.161s.776 1.5 1.114 2.275c-.161-.37-.059-.137.034.1a26.028 26.028 0 01.673 1.94 2.848 2.848 0 005.49-1.514z"/></g></g></symbol></svg>