<svg width="53" height="66" viewBox="0 0 53 66" fill="none" xmlns="http://www.w3.org/2000/svg">
<path d="M52.6137 14.9145L42.0059 1.11937L41.9444 1.03595C41.5818 0.459759 40.9665 0.0837853 40.2816 0.0197011C40.0547 0.000551673 39.8263 0.0159091 39.6042 0.0652047H39.5041L22.1298 2.18112C20.934 2.31138 20.0718 3.37218 20.204 4.55034C20.3362 5.72851 21.413 6.57791 22.6088 6.44765C22.6212 6.44633 22.6333 6.44481 22.6456 6.44329L34.6929 4.98718L36.5712 4.75966L35.8014 6.47363L29.2812 21.6415L28.9117 22.5061L28.0342 22.2937C16.1143 19.1898 3.89725 26.1934 0.746673 37.9367C-2.4039 49.6801 4.70496 61.7161 16.6248 64.8201C28.5447 67.924 40.7618 60.9204 43.9123 49.177C46.4515 39.7129 42.3356 29.7345 33.8153 24.6978L32.9993 24.22L33.3688 23.3555L39.889 8.1876L40.6588 6.47363L41.7981 7.99042L49.1342 17.5158C49.9073 18.4297 51.2858 18.5531 52.2134 17.7915C53.0816 17.0786 53.2551 15.8313 52.6137 14.9145ZM35.1009 31.1593L35.0778 31.1518C42.0808 38.125 42.02 49.3708 34.9419 56.2701C27.8638 63.1694 16.4489 63.1095 9.44593 56.1363C2.44292 49.163 2.50373 37.9172 9.5818 31.0179C14.7743 25.9566 22.5532 24.4821 29.2812 27.2839C31.4609 28.1862 33.4385 29.5032 35.1009 31.1593Z" fill="#F6F6F9"/>
</svg>
