<svg width="49" height="74" viewBox="0 0 49 74" fill="none" xmlns="http://www.w3.org/2000/svg">
<path d="M48.5373 18.8053C48.2299 17.3113 47.7697 15.8501 47.1634 14.4434C46.5556 13.0304 45.804 11.6788 44.9199 10.4081C43.1419 7.84499 40.858 5.64335 38.1982 3.92812C35.5667 2.22629 32.6116 1.04248 29.5027 0.445341C26.3675 -0.148447 23.1423 -0.148447 20.0071 0.445341C16.8982 1.04227 13.9428 2.22608 11.3115 3.92812C8.65263 5.64083 6.36874 7.83976 4.58984 10.3997C2.82225 12.9333 1.59291 15.7786 0.972479 18.7718C0.355528 21.7903 0.355528 24.8955 0.972479 27.9141C1.59247 30.9073 2.82203 33.7528 4.58984 36.2861C6.94091 39.6703 10.165 42.4082 13.9463 44.2312C16.2393 45.3608 18.7052 46.1296 21.2506 46.5084C21.7582 46.5526 22.1408 46.9725 22.1201 47.4629V54.0768C22.1201 54.5854 21.6919 54.9977 21.1636 54.9977H11.0246C10.3402 55.0004 9.68436 55.2621 9.19849 55.7261C8.22372 56.6774 8.19307 58.1969 9.12893 59.1837L9.1811 59.2256C9.43088 59.4581 9.72653 59.6404 10.0507 59.7614C10.3622 59.8862 10.6959 59.9517 11.0333 59.954H21.1897C21.4438 59.9529 21.6877 60.0494 21.868 60.2219C22.0334 60.3952 22.1236 60.6229 22.1201 60.8582V70.6451C22.1188 70.9722 22.1838 71.2964 22.3114 71.5995C22.4358 71.9122 22.6253 72.1971 22.8679 72.4367C23.1169 72.6705 23.4127 72.853 23.7375 72.9725C24.3701 73.2214 25.0788 73.2214 25.7114 72.9725C26.0362 72.8528 26.332 72.6703 26.581 72.4367C26.8236 72.1971 27.0131 71.9122 27.1375 71.5995C27.2651 71.2964 27.3301 70.9722 27.3288 70.6451V60.8582C27.3277 60.6135 27.4279 60.3786 27.607 60.2051C27.7872 60.0327 28.0312 59.9362 28.2853 59.9372H38.433C38.7728 59.9385 39.1095 59.8759 39.4243 59.753C39.7491 59.6333 40.045 59.451 40.2939 59.2172C40.5365 58.9776 40.726 58.6927 40.8504 58.38C41.1089 57.771 41.1089 57.0886 40.8504 56.4796C40.7826 56.3209 40.698 56.1694 40.5982 56.0275L40.2591 55.701C39.7732 55.2369 39.1174 54.9753 38.433 54.9726H28.2679C28.0138 54.9736 27.7699 54.8772 27.5896 54.7047C27.4105 54.5312 27.3103 54.2963 27.3114 54.0517V47.8898V47.4629C27.3118 47.2412 27.3951 47.0273 27.5462 46.8601C27.6964 46.6956 27.9033 46.5886 28.1288 46.5587C30.71 46.2075 33.215 45.4552 35.5461 44.3317C40.7958 41.8058 44.9214 37.5397 47.1634 32.3178C47.7701 30.9084 48.2303 29.4445 48.5373 27.9476C49.1542 24.929 49.1542 21.8236 48.5373 18.8053ZM43.4678 26.968V27.0015C41.3367 37.0072 31.1844 43.4551 20.7921 41.4034C10.3998 39.3516 3.70267 29.577 5.83374 19.5713C7.96481 9.56566 18.1171 3.1177 28.5094 5.16949C37.4824 6.94102 43.9078 14.5661 43.8591 23.3848C43.8508 24.5885 43.7197 25.7888 43.4678 26.968Z" fill="#F6F6F9"/>
</svg>
