<svg width="362" height="52" viewBox="0 0 362 52" fill="none" xmlns="http://www.w3.org/2000/svg">
<path d="M354.43 35.618C350.93 35.6088 348.09 33.8425 348.08 30.6215C348.09 27.4006 350.93 25.6342 354.43 25.6251C357.93 25.6342 360.77 27.4006 360.78 30.6215C360.77 33.8333 357.94 35.6088 354.43 35.618ZM354.43 24.6065C350.31 24.6065 346.98 26.8408 346.98 30.6124C346.98 34.3931 350.32 36.6182 354.43 36.6274C358.54 36.6182 361.88 34.3931 361.88 30.6124C361.88 26.8408 358.55 24.6065 354.43 24.6065ZM337.08 48.5249L337.03 48.5433L337.09 48.5065L337.08 48.5249ZM315.13 43.2209C314.85 43.5421 314.39 43.5696 313.78 43.5696H309.18V40.0275C309.18 39.7705 309.21 39.6971 309.23 39.6879C309.26 39.6604 309.23 39.6604 309.39 39.6512C309.41 39.6512 309.44 39.6512 309.48 39.6512H313.82C314.26 39.642 314.85 39.6971 315.11 39.9816C315.38 40.2202 315.5 40.991 315.48 41.5875C315.5 42.1105 315.4 42.9639 315.13 43.2209ZM337.17 48.5249C337.13 48.5157 337.1 48.5065 337.09 48.5065C337.07 48.4882 337.04 48.3873 337.04 48.3047V45.4875H345.5V42.4317H337.04V40.0825C337.04 39.8715 337.07 39.7613 337.11 39.7338C337.14 39.6971 337.26 39.6604 337.48 39.6696H345.7V36.6138H336.03C335.46 36.6138 334.57 36.6413 333.92 37.3296C333.54 37.7609 333.36 38.3298 333.32 38.9171V36.6138H318.45V38.0637C318.33 37.8985 318.2 37.7425 318.05 37.5957C316.99 36.5863 315.59 36.6138 314.85 36.6138H308.06C307.52 36.6138 306.69 36.6964 306.07 37.3112C305.43 37.9352 305.44 38.6877 305.44 39.1924V51.6082H309.17V46.6345H315.34C316.29 46.6254 317.21 46.3409 317.86 45.8362C319.21 44.7075 319.27 42.7896 319.28 41.6242C319.27 41.046 319.26 40.3578 319.11 39.6696H324.01V51.6082H327.74V39.6604H333.31V49.0388C333.31 49.5894 333.33 50.3877 333.98 51.0209C334.56 51.5623 335.26 51.599 335.82 51.599H336H345.79V48.5433H337.65C337.44 48.5433 337.28 48.5341 337.17 48.5249ZM299.85 47.699C299.12 48.6442 297.83 48.7084 296.62 48.7084C295.01 48.6993 294.1 48.58 293.41 47.7082C292.92 47.0934 292.59 46.084 292.59 44.1202C292.59 42.0096 292.93 41.0919 293.4 40.5138C294.16 39.5778 295.36 39.5227 296.61 39.5227C297.8 39.5227 299.12 39.5962 299.84 40.5138C300.29 41.0644 300.64 42.0646 300.63 44.1294C300.65 46.1207 300.28 47.1668 299.85 47.699ZM302.69 38.0729C300.92 36.4027 298.27 36.4486 296.63 36.4394C294.9 36.4394 292.37 36.4119 290.57 38.0637C288.84 39.7063 288.78 42.1748 288.77 44.0926C288.78 45.6802 288.73 48.3505 290.57 50.1216C292.35 51.7826 294.95 51.7459 296.63 51.755C298.24 51.7459 300.94 51.8009 302.69 50.1216C304.42 48.3964 304.42 45.6159 304.44 44.1018C304.42 42.2298 304.32 39.6879 302.69 38.0729ZM284.11 46.1665C283.7 47.1209 282.62 47.176 281.53 47.176H280.85V40.8075H281.92C282.92 40.8258 283.63 40.9268 284.04 41.6976C284.25 42.1013 284.38 42.707 284.38 43.9275C284.38 45.3039 284.25 45.8637 284.11 46.1665ZM277.13 47.176H276.44C275.35 47.176 274.27 47.1209 273.86 46.1665C273.77 45.9647 273.6 45.4599 273.59 43.9183C273.6 42.3858 273.8 41.8995 273.91 41.6884C274.3 40.9268 275.11 40.8166 276.05 40.7983H277.12V47.176H277.13ZM282.35 37.7517H280.85V37.0818V36.6046H277.13V37.7517H275.61C273.44 37.7333 271.85 38.0362 270.83 39.4952C269.9 40.8258 269.8 42.4225 269.79 43.9275C269.79 45.3865 269.87 47.02 270.67 48.3322C271.64 49.9014 273.33 50.2501 275.11 50.2409H277.12V51.599H280.84V50.2409H282.85C284.64 50.2593 286.33 49.9014 287.3 48.3322C288.09 47.02 288.18 45.3865 288.18 43.9275C288.18 42.4225 288.07 40.8258 287.14 39.4952C286.13 38.0362 284.54 37.7333 282.35 37.7517ZM238.4 27.7309H249.56V51.6633H256.2V27.7309H267.4V22.3627H238.4V27.7309ZM218.82 43.8724C218.32 43.0924 217.57 41.5049 217.57 37.3296C217.56 33.2001 218.3 31.1905 219.07 30.0801C220.51 27.942 222.85 27.7401 226.06 27.7309H235.63V22.3719H223.52C221.43 22.3719 216.75 22.6013 213.68 26.125C211.11 29.1166 210.78 33.3745 210.77 37.4213C210.78 40.5413 210.95 44.9736 213.81 48.167C216.64 51.2962 220.6 51.6724 223.38 51.6724H236.08V46.3042H225.78C222.41 46.295 220.12 45.827 218.82 43.8724ZM192.25 39.6237L196.63 28.9331C196.7 28.7679 196.78 28.566 196.86 28.3916C196.95 28.566 197.04 28.7771 197.09 28.9331L201.44 39.6237H192.25ZM196.87 22.0415C194.14 21.9681 192.57 23.1152 191.59 25.5836L180.9 50.663L169.96 25.0606C169.44 23.73 168.27 21.9864 165.01 22.0415C161.75 21.9864 160.58 23.73 160.06 25.0514L148.96 50.9383V26.7582C148.96 25.7488 148.78 24.5467 147.77 23.5556C146.62 22.4086 145.22 22.3627 144.09 22.3719H127.17C125.89 22.3535 124.64 22.4361 123.5 23.5556C122.41 24.565 122.25 25.7305 122.26 26.7674V51.6724H128.9V28.8505C128.88 28.4284 129.03 27.942 129.1 27.9145C129.25 27.7493 129.35 27.7401 129.72 27.7309C129.79 27.7309 129.86 27.7309 129.95 27.7309H141.31C141.38 27.7309 141.45 27.7309 141.51 27.7309C141.85 27.7309 142.04 27.7676 142.14 27.8869C142.27 27.9971 142.33 28.2632 142.32 28.6119V51.6633H148.96H155.72L164.9 28.8046C164.94 28.7128 164.97 28.6211 164.99 28.5476C165.02 28.6119 165.04 28.6945 165.07 28.7679L174.26 51.6541H180.47H187.49L190.39 44.5331H203.3L206.25 51.6541H213.27L202.15 25.5836C201.15 23.0968 199.48 21.9773 196.87 22.0415ZM110.94 44.4414C109.33 46.5061 106.55 46.6254 104.13 46.6162C100.9 46.607 98.86 46.3409 97.36 44.4414L96.86 44.7717L97.36 44.4322C96.29 43.0924 95.64 40.9818 95.64 37.0084C95.64 32.7505 96.33 30.8142 97.35 29.5479C99.01 27.5107 101.62 27.4006 104.13 27.4006C106.51 27.3914 109.34 27.5199 110.94 29.5387C111.92 30.75 112.62 32.8331 112.62 37.0084C112.62 41.1011 111.88 43.2759 110.94 44.4414ZM119.42 37.0176C119.4 33.2919 119.14 28.2724 116.02 25.1982C112.65 21.9956 107.48 22.0599 104.17 22.0415C100.71 22.0507 95.76 22.0048 92.32 25.189C88.99 28.3274 88.85 33.1818 88.83 37.0084C88.84 40.1835 88.78 45.4416 92.31 48.8277C95.71 52.0211 100.78 51.9661 104.16 51.9753C107.38 51.9569 112.67 52.0211 116.01 48.8186C119.35 45.5517 119.4 40.0458 119.42 37.0176ZM42.76 28.9331C42.83 28.7679 42.91 28.566 43 28.3916C43.09 28.566 43.18 28.7679 43.24 28.9331L47.58 39.6237H38.38L42.76 28.9331ZM6.64 39.275H20.27V51.6633H33.62L36.52 44.5423H49.43L52.37 51.6633H65.72V39.275H79.35V51.6633H85.99V22.3627H79.35V33.9067H65.72V22.3627H59.08V50.9475L48.27 25.5836C47.28 23.0968 45.6 21.9773 42.99 22.0415C40.27 21.9681 38.69 23.1152 37.71 25.5836L38.29 25.7947L37.71 25.5928L26.9 50.9475V22.3719H20.26V33.9159H6.64V0.623535H0V51.6633H6.64V39.275Z" fill="#284392"/>
<path d="M353.11 30.5116H354.13C355.2 30.5116 355.88 29.9702 355.88 29.1627C355.88 28.245 355.15 27.8413 354.09 27.8321C353.61 27.8321 353.26 27.878 353.1 27.9147V30.5116H353.11ZM352.11 27.2723C352.61 27.1714 353.34 27.1255 354.03 27.1255C355.1 27.1255 355.79 27.309 356.27 27.7036C356.66 28.0248 356.88 28.502 356.88 29.0526C356.88 29.9886 356.23 30.6126 355.42 30.8695V30.897C356.02 31.0897 356.38 31.5945 356.56 32.3377C356.81 33.3288 357 34.017 357.16 34.2923H356.12C355.99 34.0813 355.82 33.4848 355.6 32.5947C355.37 31.6128 354.96 31.2457 354.05 31.209H353.11V34.2923H352.11V27.2723Z" fill="#284392"/>
<path d="M22.77 9.53434C22.8 9.45176 22.85 9.37834 22.89 9.29576C22.94 9.21317 23 9.14893 23.08 9.0847C23.16 9.02964 23.26 8.97458 23.39 8.93787C23.52 8.90117 23.67 8.88281 23.86 8.88281C24.05 8.88281 24.21 8.90117 24.33 8.93787C24.45 8.97458 24.55 9.02964 24.64 9.0847C24.72 9.13975 24.79 9.21317 24.83 9.29576C24.88 9.37834 24.92 9.45176 24.95 9.53434L27.72 15.857H26.29L24.03 10.3511C24.01 10.3052 24 10.2593 23.98 10.2134C23.96 10.1767 23.92 10.1583 23.86 10.1583C23.81 10.1583 23.77 10.1859 23.74 10.2318C23.72 10.2685 23.7 10.3143 23.69 10.3511L21.43 15.857H20L22.77 9.53434ZM29.93 15.857C29.79 15.857 29.65 15.857 29.5 15.8478C29.35 15.8386 29.2 15.8019 29.06 15.756C28.91 15.7101 28.77 15.6459 28.64 15.5541C28.5 15.4715 28.38 15.3522 28.27 15.1962C28.09 14.9485 27.98 14.6548 27.94 14.3245C27.9 13.9849 27.88 13.6454 27.88 13.2967C27.88 13.0581 27.89 12.8287 27.9 12.6085C27.91 12.3974 27.94 12.1955 27.98 12.0212C28.02 11.8376 28.09 11.6725 28.17 11.5256C28.26 11.3788 28.37 11.2412 28.52 11.1127C28.67 10.9842 28.84 10.8925 29.02 10.8282C29.2 10.7548 29.38 10.7089 29.57 10.6814C29.75 10.6539 29.93 10.6355 30.1 10.6263C30.27 10.6172 30.42 10.6172 30.55 10.6172C30.87 10.6172 31.19 10.6355 31.5 10.6722C31.81 10.7089 32.09 10.8007 32.34 10.9567C32.5 11.0576 32.62 11.1678 32.72 11.2962C32.82 11.4247 32.9 11.5532 32.96 11.7092C33.02 11.856 33.06 12.012 33.08 12.168C33.1 12.3332 33.11 12.4892 33.11 12.6544C33.11 12.7828 33.1 12.9205 33.07 13.0673C33.04 13.2049 32.97 13.3334 32.86 13.4435C32.78 13.5261 32.69 13.572 32.59 13.5995C32.49 13.6271 32.39 13.6362 32.28 13.6362H29.12C29.12 13.7464 29.13 13.8748 29.14 14.0217C29.15 14.1685 29.17 14.2786 29.19 14.3612C29.23 14.4988 29.29 14.609 29.36 14.6915C29.43 14.7741 29.52 14.8384 29.63 14.8751C29.73 14.921 29.84 14.9485 29.95 14.9577C30.06 14.9668 30.17 14.976 30.28 14.976H32.93V15.857H29.93ZM31.6 12.7461C31.72 12.7461 31.79 12.7094 31.82 12.6452C31.85 12.5809 31.87 12.5075 31.87 12.4341C31.87 12.2689 31.83 12.1313 31.76 12.012C31.69 11.8927 31.61 11.8009 31.52 11.7367C31.37 11.6266 31.2 11.5624 31.02 11.5348C30.84 11.5165 30.66 11.4981 30.49 11.4981C30.41 11.4981 30.32 11.4981 30.22 11.5073C30.12 11.5073 30.03 11.5256 29.92 11.544C29.82 11.5624 29.72 11.5991 29.62 11.6449C29.52 11.6908 29.43 11.7642 29.35 11.8468C29.23 11.9753 29.16 12.1221 29.14 12.2689C29.14 12.4158 29.12 12.5718 29.12 12.7461H31.6ZM37.64 15.857V13.6729H35.25C35.17 13.6729 35.08 13.6638 34.98 13.6546C34.88 13.6454 34.78 13.6271 34.68 13.5995C34.58 13.572 34.48 13.5261 34.39 13.4711C34.29 13.416 34.21 13.3426 34.13 13.2417C34.01 13.0948 33.94 12.9205 33.92 12.7278C33.89 12.5351 33.88 12.3607 33.88 12.2047V10.6447H35.08V11.9569C35.08 12.0487 35.08 12.1496 35.09 12.2506C35.1 12.3515 35.13 12.4525 35.18 12.5351C35.26 12.6544 35.36 12.7278 35.49 12.7553C35.61 12.7828 35.73 12.792 35.84 12.792H37.65V10.6355H38.85V15.857H37.64ZM41.76 15.857C41.62 15.857 41.48 15.8478 41.33 15.8386C41.18 15.8294 41.03 15.8019 40.89 15.756C40.75 15.7101 40.61 15.6459 40.47 15.5541C40.33 15.4624 40.21 15.3431 40.1 15.1962C39.92 14.9485 39.81 14.6548 39.77 14.3153C39.73 13.9758 39.71 13.6362 39.71 13.2875C39.71 13.0489 39.72 12.8195 39.73 12.5993C39.74 12.3882 39.77 12.1864 39.81 12.012C39.85 11.8285 39.92 11.6633 40 11.5165C40.09 11.3696 40.2 11.232 40.35 11.1035C40.5 10.9751 40.67 10.8833 40.85 10.8191C41.03 10.7548 41.21 10.7089 41.4 10.6722C41.58 10.6447 41.76 10.6263 41.93 10.6172C42.1 10.608 42.25 10.608 42.38 10.608C42.7 10.608 43.02 10.6263 43.33 10.6631C43.64 10.6998 43.92 10.7915 44.17 10.9475C44.33 11.0485 44.45 11.1586 44.55 11.2871C44.65 11.4155 44.73 11.544 44.79 11.7C44.85 11.8468 44.89 12.0028 44.91 12.1588C44.93 12.324 44.94 12.48 44.94 12.6452C44.94 12.7736 44.93 12.9113 44.9 13.0581C44.87 13.1958 44.8 13.3242 44.69 13.4344C44.61 13.5169 44.52 13.5628 44.42 13.5904C44.32 13.6179 44.22 13.6271 44.11 13.6271H40.96C40.96 13.7372 40.97 13.8657 40.98 14.0125C40.99 14.1593 41.01 14.2694 41.03 14.352C41.07 14.4897 41.13 14.5998 41.2 14.6824C41.27 14.765 41.36 14.8292 41.47 14.8659C41.57 14.9118 41.68 14.9393 41.79 14.9485C41.9 14.9577 42.01 14.9668 42.12 14.9668H44.77V15.857H41.76ZM43.44 12.7461C43.56 12.7461 43.63 12.7094 43.66 12.6452C43.69 12.5809 43.71 12.5075 43.71 12.4341C43.71 12.2689 43.67 12.1313 43.6 12.012C43.53 11.8927 43.45 11.8009 43.36 11.7367C43.21 11.6266 43.04 11.5624 42.86 11.5348C42.68 11.5165 42.5 11.4981 42.33 11.4981C42.25 11.4981 42.16 11.4981 42.06 11.5073C41.96 11.5073 41.87 11.5256 41.76 11.544C41.66 11.5624 41.56 11.5991 41.46 11.6449C41.36 11.6908 41.27 11.7642 41.19 11.8468C41.07 11.9753 41 12.1221 40.98 12.2689C40.96 12.4158 40.95 12.5718 40.94 12.7461H43.44ZM48.34 9.84635C48.19 9.84635 48.02 9.85552 47.82 9.88305C47.62 9.91058 47.45 9.98399 47.31 10.1033C47.23 10.1767 47.16 10.2776 47.1 10.4153C47.04 10.5529 47.02 10.6998 47.02 10.8466H48.84C49.34 10.8466 49.73 10.92 50.02 11.076C50.31 11.232 50.52 11.4064 50.66 11.6174C50.82 11.856 50.92 12.1221 50.96 12.4249C51 12.7278 51.02 13.0122 51.02 13.2967C51.02 13.416 51.02 13.5537 51.01 13.7005C51.01 13.8473 50.99 14.0125 50.97 14.1777C50.95 14.3428 50.91 14.508 50.86 14.6732C50.81 14.8384 50.74 14.9944 50.64 15.132C50.51 15.3247 50.36 15.4807 50.19 15.5817C50.02 15.6826 49.83 15.7652 49.63 15.8111C49.43 15.857 49.22 15.8937 49.02 15.9028C48.81 15.912 48.61 15.9212 48.4 15.9212C48.21 15.9212 48.01 15.912 47.79 15.9028C47.57 15.8937 47.37 15.8661 47.16 15.8111C46.96 15.756 46.76 15.6734 46.58 15.5633C46.4 15.4532 46.24 15.288 46.11 15.077C45.97 14.8475 45.89 14.6181 45.87 14.3979C45.85 14.1777 45.83 13.9482 45.83 13.7188V11.0026C45.83 10.8282 45.85 10.6355 45.88 10.4153C45.91 10.1951 46 9.97482 46.13 9.76376C46.18 9.68117 46.24 9.59858 46.33 9.50681C46.42 9.41505 46.52 9.33246 46.66 9.24987C46.79 9.16728 46.95 9.10305 47.14 9.04799C47.33 8.99293 47.55 8.9654 47.8 8.9654H50.71V9.85552H48.34V9.84635ZM47.02 13.8289C47.02 14.0308 47.05 14.2052 47.1 14.3337C47.15 14.4713 47.22 14.5722 47.29 14.6548C47.39 14.765 47.53 14.8567 47.71 14.9301C47.89 15.0035 48.11 15.0311 48.36 15.0311C48.54 15.0311 48.73 15.0035 48.93 14.9485C49.13 14.8934 49.28 14.82 49.4 14.7099C49.48 14.6273 49.55 14.5355 49.6 14.4254C49.65 14.3153 49.69 14.2052 49.71 14.0767C49.73 13.9574 49.75 13.8289 49.76 13.7097C49.77 13.5812 49.77 13.4711 49.77 13.3609C49.77 13.0214 49.75 12.7645 49.7 12.5718C49.65 12.3791 49.58 12.2231 49.5 12.1129C49.45 12.0487 49.35 11.9661 49.2 11.8744C49.06 11.7826 48.85 11.7275 48.57 11.7275H47.02V13.8289ZM55.68 15.857V13.6087H53.09V15.857H51.89V10.6355H53.09V12.7278H55.68V10.6355H56.88V15.857H55.68ZM59.09 10.6355V12.6176H61.53C61.7 12.6176 61.87 12.6452 62.05 12.6911C62.23 12.7369 62.39 12.8471 62.54 13.0122C62.7 13.1958 62.8 13.4068 62.84 13.6362C62.88 13.8657 62.9 14.0859 62.9 14.2969C62.9 14.3795 62.9 14.4805 62.89 14.5998C62.88 14.7191 62.87 14.8292 62.84 14.9485C62.81 15.0678 62.77 15.1779 62.72 15.2972C62.67 15.4073 62.59 15.5082 62.5 15.5908C62.34 15.7193 62.17 15.8019 61.99 15.8294C61.8 15.8478 61.62 15.857 61.45 15.857H58.7C58.6 15.857 58.5 15.8478 58.4 15.8294C58.29 15.8111 58.19 15.756 58.1 15.6642C58 15.5725 57.94 15.4715 57.92 15.3706C57.9 15.2697 57.89 15.1595 57.89 15.0586V10.6355H59.09ZM59.09 14.609C59.09 14.6457 59.09 14.6915 59.1 14.7558C59.1 14.8108 59.13 14.8567 59.17 14.9026C59.2 14.9393 59.24 14.9577 59.29 14.9668C59.34 14.976 59.39 14.9852 59.43 14.9852H60.99C61.08 14.9852 61.17 14.976 61.27 14.9577C61.37 14.9393 61.45 14.8934 61.53 14.8108C61.6 14.7374 61.64 14.6457 61.65 14.5355C61.66 14.4254 61.67 14.3245 61.67 14.2327C61.67 14.1593 61.66 14.0675 61.65 13.9574C61.64 13.8473 61.6 13.7555 61.52 13.6729C61.44 13.5904 61.36 13.5445 61.27 13.5261C61.18 13.5078 61.1 13.4986 61.03 13.4986H59.09V14.609ZM63.55 10.6355H64.75V15.857H63.55V10.6355ZM69.87 15.857L69.91 12.1405C69.91 12.1038 69.91 12.0671 69.91 12.0395C69.91 12.012 69.89 12.0028 69.85 12.0028C69.84 12.0028 69.82 12.012 69.8 12.0304C69.78 12.0487 69.75 12.0854 69.71 12.1405L67.33 15.4991C67.23 15.6367 67.13 15.7377 67.02 15.8111C66.91 15.8845 66.75 15.912 66.55 15.912C66.37 15.912 66.23 15.8845 66.13 15.8294C66.03 15.7744 65.95 15.7101 65.89 15.6459C65.84 15.5725 65.8 15.4991 65.78 15.4073C65.76 15.3247 65.75 15.2421 65.75 15.1687V10.6355H66.95L66.9 14.352C66.9 14.3979 66.9 14.4346 66.91 14.453C66.92 14.4805 66.94 14.4897 66.98 14.4897C67.01 14.4897 67.04 14.4713 67.06 14.4438C67.08 14.4162 67.1 14.3795 67.12 14.352L69.53 10.9292C69.64 10.7823 69.76 10.6814 69.89 10.6355C70.02 10.5896 70.15 10.5713 70.27 10.5713C70.31 10.5713 70.38 10.5805 70.46 10.5896C70.55 10.5988 70.64 10.6263 70.72 10.6814C70.81 10.7365 70.88 10.8099 70.95 10.92C71.02 11.0209 71.05 11.1769 71.05 11.3696V15.857H69.87ZM68.8 9.64446C68.93 9.61693 69.04 9.5527 69.14 9.45176C69.19 9.3967 69.25 9.33246 69.29 9.24987C69.34 9.16728 69.37 9.09387 69.39 9.02964H70.32C70.27 9.22234 70.19 9.40587 70.08 9.5894C69.97 9.77293 69.86 9.91976 69.74 10.0207C69.54 10.1951 69.32 10.296 69.08 10.3419C68.83 10.3878 68.62 10.4061 68.44 10.4061C68.26 10.4061 68.04 10.3878 67.8 10.3419C67.55 10.296 67.33 10.1951 67.14 10.0207C67 9.91976 66.89 9.77293 66.78 9.5894C66.67 9.40587 66.59 9.22234 66.54 9.02964H67.47C67.49 9.09387 67.52 9.16728 67.57 9.24987C67.62 9.33246 67.67 9.3967 67.72 9.45176C67.82 9.5527 67.94 9.61693 68.06 9.64446C68.19 9.67199 68.31 9.69034 68.42 9.69034C68.55 9.69034 68.67 9.67199 68.8 9.64446ZM77.95 10.5896C78.14 10.5988 78.33 10.6172 78.53 10.6539C78.73 10.6906 78.92 10.7456 79.1 10.8191C79.28 10.8925 79.45 11.0026 79.6 11.1311C79.76 11.2687 79.88 11.4339 79.97 11.6174C80.06 11.8009 80.13 11.9936 80.18 12.1864C80.23 12.3791 80.26 12.5626 80.27 12.7461C80.28 12.9297 80.29 13.0948 80.29 13.2325C80.29 13.7922 80.22 14.2419 80.09 14.5814C79.96 14.921 79.79 15.1779 79.59 15.3614C79.45 15.4899 79.28 15.6 79.09 15.6734C78.9 15.7468 78.71 15.8019 78.51 15.8386C78.31 15.8753 78.11 15.8937 77.92 15.912C77.73 15.9212 77.56 15.9304 77.4 15.9304C77.24 15.9304 77.06 15.9212 76.87 15.912C76.7 15.8937 76.5 15.8661 76.3 15.8386C76.1 15.8019 75.91 15.7468 75.73 15.6734C75.55 15.6 75.38 15.4991 75.23 15.3614C75.07 15.2146 74.94 15.0494 74.85 14.8659C74.76 14.6824 74.69 14.4897 74.65 14.2969C74.61 14.1042 74.58 13.9115 74.56 13.7372C74.55 13.5537 74.54 13.3977 74.54 13.2692C74.54 13.1224 74.55 12.9572 74.56 12.7645C74.57 12.5718 74.6 12.3791 74.65 12.1864C74.7 11.9936 74.77 11.8009 74.86 11.6174C74.95 11.4339 75.08 11.2687 75.23 11.1311C75.38 11.0026 75.55 10.8925 75.73 10.8191C75.91 10.7456 76.1 10.6906 76.3 10.6539C76.5 10.6172 76.69 10.5988 76.88 10.5896C77.07 10.5805 77.25 10.5805 77.41 10.5805C77.57 10.5805 77.76 10.5805 77.95 10.5896ZM75.82 13.9482C75.85 14.1868 75.95 14.4071 76.12 14.5998C76.3 14.7925 76.5 14.9118 76.74 14.9577C76.98 15.0035 77.2 15.0311 77.42 15.0311C77.64 15.0311 77.87 15.0035 78.1 14.9577C78.33 14.9118 78.53 14.7925 78.71 14.5998C78.89 14.4071 78.99 14.196 79.02 13.9574C79.05 13.7188 79.07 13.4894 79.07 13.26C79.07 13.1591 79.07 13.0581 79.07 12.948C79.07 12.8287 79.06 12.7094 79.04 12.5809C79.02 12.4525 78.99 12.3332 78.94 12.2139C78.89 12.0946 78.82 11.9845 78.73 11.8835C78.64 11.7918 78.54 11.7184 78.44 11.6633C78.33 11.6082 78.23 11.5624 78.11 11.5348C77.99 11.5073 77.88 11.4889 77.77 11.4798C77.65 11.4706 77.54 11.4706 77.43 11.4706C77.33 11.4706 77.23 11.4706 77.11 11.4798C76.99 11.4889 76.87 11.5073 76.76 11.5348C76.64 11.5624 76.53 11.6082 76.42 11.6633C76.31 11.7184 76.21 11.7918 76.13 11.8835C76.05 11.9753 75.98 12.0854 75.94 12.2047C75.89 12.3332 75.86 12.4525 75.84 12.5809C75.82 12.7094 75.81 12.8287 75.8 12.948C75.8 13.0673 75.79 13.1682 75.79 13.2508C75.77 13.4711 75.79 13.7005 75.82 13.9482ZM83.69 9.84635C83.54 9.84635 83.37 9.85552 83.17 9.88305C82.97 9.91058 82.8 9.98399 82.66 10.1033C82.58 10.1767 82.51 10.2776 82.45 10.4153C82.39 10.5529 82.37 10.6998 82.37 10.8466H84.19C84.69 10.8466 85.08 10.92 85.37 11.076C85.66 11.232 85.87 11.4064 86.01 11.6174C86.17 11.856 86.27 12.1221 86.31 12.4249C86.35 12.7278 86.37 13.0122 86.37 13.2967C86.37 13.416 86.37 13.5537 86.36 13.7005C86.36 13.8473 86.34 14.0125 86.32 14.1777C86.3 14.3428 86.26 14.508 86.21 14.6732C86.16 14.8384 86.09 14.9944 85.99 15.132C85.86 15.3247 85.71 15.4807 85.54 15.5817C85.37 15.6826 85.18 15.7652 84.98 15.8111C84.78 15.857 84.57 15.8937 84.37 15.9028C84.16 15.912 83.96 15.9212 83.75 15.9212C83.56 15.9212 83.36 15.912 83.14 15.9028C82.92 15.8937 82.72 15.8661 82.51 15.8111C82.31 15.756 82.11 15.6734 81.93 15.5633C81.75 15.4532 81.59 15.288 81.46 15.077C81.32 14.8475 81.24 14.6181 81.22 14.3979C81.2 14.1777 81.18 13.9482 81.18 13.7188V11.0026C81.18 10.8282 81.2 10.6355 81.23 10.4153C81.26 10.1951 81.35 9.97482 81.48 9.76376C81.53 9.68117 81.59 9.59858 81.68 9.50681C81.77 9.41505 81.87 9.33246 82.01 9.24987C82.14 9.16728 82.3 9.10305 82.49 9.04799C82.68 8.99293 82.9 8.9654 83.15 8.9654H86.06V9.85552H83.69V9.84635ZM82.38 13.8289C82.38 14.0308 82.41 14.2052 82.46 14.3337C82.51 14.4713 82.58 14.5722 82.65 14.6548C82.75 14.765 82.89 14.8567 83.07 14.9301C83.25 15.0035 83.47 15.0311 83.72 15.0311C83.9 15.0311 84.09 15.0035 84.29 14.9485C84.49 14.8934 84.64 14.82 84.76 14.7099C84.84 14.6273 84.91 14.5355 84.96 14.4254C85.01 14.3153 85.05 14.2052 85.07 14.0767C85.09 13.9574 85.11 13.8289 85.12 13.7097C85.13 13.5812 85.13 13.4711 85.13 13.3609C85.13 13.0214 85.11 12.7645 85.06 12.5718C85.01 12.3791 84.94 12.2231 84.86 12.1129C84.81 12.0487 84.71 11.9661 84.56 11.8744C84.42 11.7826 84.21 11.7275 83.93 11.7275H82.38V13.8289ZM89.15 15.857C89.01 15.857 88.87 15.8478 88.72 15.8386C88.57 15.8294 88.42 15.8019 88.28 15.756C88.14 15.7101 88 15.6459 87.86 15.5541C87.72 15.4624 87.6 15.3431 87.49 15.1962C87.31 14.9485 87.2 14.6548 87.16 14.3153C87.12 13.9758 87.1 13.6362 87.1 13.2875C87.1 13.0489 87.11 12.8195 87.12 12.5993C87.13 12.3882 87.16 12.1864 87.2 12.012C87.24 11.8285 87.31 11.6633 87.39 11.5165C87.48 11.3696 87.59 11.232 87.74 11.1035C87.89 10.9751 88.06 10.8833 88.24 10.8191C88.42 10.7548 88.6 10.7089 88.79 10.6722C88.97 10.6447 89.15 10.6263 89.32 10.6172C89.49 10.608 89.64 10.608 89.77 10.608C90.09 10.608 90.41 10.6263 90.72 10.6631C91.03 10.6998 91.31 10.7915 91.56 10.9475C91.72 11.0485 91.84 11.1586 91.94 11.2871C92.04 11.4155 92.12 11.544 92.18 11.7C92.24 11.8468 92.28 12.0028 92.3 12.1588C92.32 12.324 92.33 12.48 92.33 12.6452C92.33 12.7736 92.32 12.9113 92.29 13.0581C92.26 13.1958 92.19 13.3242 92.08 13.4344C92 13.5169 91.91 13.5628 91.81 13.5904C91.71 13.6179 91.61 13.6271 91.5 13.6271H88.35C88.35 13.7372 88.36 13.8657 88.37 14.0125C88.38 14.1593 88.4 14.2694 88.42 14.352C88.46 14.4897 88.52 14.5998 88.59 14.6824C88.66 14.765 88.75 14.8292 88.86 14.8659C88.96 14.9118 89.07 14.9393 89.18 14.9485C89.29 14.9577 89.4 14.9668 89.51 14.9668H92.16V15.857H89.15ZM90.83 12.7461C90.95 12.7461 91.02 12.7094 91.05 12.6452C91.08 12.5809 91.1 12.5075 91.1 12.4341C91.1 12.2689 91.06 12.1313 90.99 12.012C90.92 11.8927 90.84 11.8009 90.75 11.7367C90.6 11.6266 90.43 11.5624 90.25 11.5348C90.07 11.5165 89.89 11.4981 89.72 11.4981C89.64 11.4981 89.55 11.4981 89.45 11.5073C89.35 11.5073 89.26 11.5256 89.15 11.544C89.04 11.5624 88.95 11.5991 88.85 11.6449C88.75 11.6908 88.66 11.7642 88.58 11.8468C88.46 11.9753 88.39 12.1221 88.37 12.2689C88.35 12.4158 88.34 12.5718 88.33 12.7461H90.83ZM93.21 14.976H95.93C96.03 14.976 96.13 14.9668 96.23 14.9577C96.33 14.9485 96.42 14.9026 96.49 14.8292C96.54 14.7833 96.58 14.7191 96.62 14.6273C96.66 14.5355 96.68 14.4162 96.68 14.2694C96.68 14.1777 96.67 14.0859 96.64 13.9941C96.62 13.9024 96.55 13.8198 96.45 13.7464C96.37 13.6913 96.28 13.6546 96.18 13.6362C96.08 13.6271 96 13.6179 95.94 13.6179H93.36V12.7278H95.98C96.08 12.7278 96.16 12.7186 96.24 12.7094C96.32 12.7002 96.39 12.6544 96.47 12.5901C96.51 12.5534 96.55 12.4984 96.59 12.4249C96.63 12.3515 96.65 12.2506 96.65 12.1313C96.65 12.0028 96.63 11.9111 96.59 11.8376C96.55 11.7642 96.51 11.7092 96.46 11.6725C96.38 11.6082 96.28 11.5715 96.18 11.5532C96.07 11.5256 96 11.5256 95.95 11.5256H93.31V10.6355H96.4C96.6 10.6355 96.8 10.6539 96.99 10.6814C97.19 10.7181 97.36 10.8099 97.52 10.9567C97.67 11.0943 97.77 11.2595 97.81 11.4431C97.85 11.6266 97.88 11.8009 97.88 11.9569C97.88 12.1955 97.85 12.3791 97.8 12.5167C97.75 12.6544 97.69 12.7553 97.63 12.8287C97.57 12.9021 97.49 12.9664 97.38 13.0214C97.28 13.0765 97.16 13.1132 97.01 13.1315V13.1591C97.17 13.1958 97.3 13.2325 97.4 13.2875C97.5 13.3426 97.58 13.416 97.64 13.4802C97.71 13.5628 97.78 13.6729 97.83 13.8198C97.88 13.9666 97.91 14.1593 97.91 14.3979C97.91 14.7099 97.87 14.9485 97.78 15.1412C97.69 15.3247 97.6 15.4624 97.49 15.5541C97.33 15.701 97.15 15.7835 96.96 15.8111C96.77 15.8386 96.59 15.857 96.41 15.857H93.21V14.976ZM101.35 9.84635C101.2 9.84635 101.03 9.85552 100.83 9.88305C100.63 9.91058 100.46 9.98399 100.32 10.1033C100.24 10.1767 100.17 10.2776 100.11 10.4153C100.05 10.5529 100.03 10.6998 100.03 10.8466H101.85C102.35 10.8466 102.74 10.92 103.03 11.076C103.32 11.232 103.53 11.4064 103.67 11.6174C103.83 11.856 103.93 12.1221 103.97 12.4249C104.01 12.7278 104.03 13.0122 104.03 13.2967C104.03 13.416 104.03 13.5537 104.02 13.7005C104.02 13.8473 104 14.0125 103.98 14.1777C103.96 14.3428 103.92 14.508 103.87 14.6732C103.82 14.8384 103.75 14.9944 103.65 15.132C103.52 15.3247 103.37 15.4807 103.2 15.5817C103.03 15.6826 102.84 15.7652 102.64 15.8111C102.44 15.857 102.23 15.8937 102.03 15.9028C101.82 15.912 101.62 15.9212 101.41 15.9212C101.22 15.9212 101.02 15.912 100.8 15.9028C100.58 15.8937 100.38 15.8661 100.17 15.8111C99.97 15.756 99.77 15.6734 99.59 15.5633C99.41 15.4532 99.25 15.288 99.12 15.077C98.98 14.8475 98.9 14.6181 98.88 14.3979C98.86 14.1777 98.84 13.9482 98.84 13.7188V11.0026C98.84 10.8282 98.86 10.6355 98.89 10.4153C98.92 10.1951 99.01 9.97482 99.14 9.76376C99.19 9.68117 99.25 9.59858 99.34 9.50681C99.43 9.41505 99.53 9.33246 99.67 9.24987C99.8 9.16728 99.96 9.10305 100.15 9.04799C100.34 8.99293 100.56 8.9654 100.81 8.9654H103.72V9.85552H101.35V9.84635ZM100.03 13.8289C100.03 14.0308 100.06 14.2052 100.11 14.3337C100.16 14.4713 100.23 14.5722 100.3 14.6548C100.4 14.765 100.54 14.8567 100.72 14.9301C100.9 15.0035 101.12 15.0311 101.37 15.0311C101.55 15.0311 101.74 15.0035 101.94 14.9485C102.14 14.8934 102.29 14.82 102.41 14.7099C102.49 14.6273 102.56 14.5355 102.61 14.4254C102.66 14.3153 102.7 14.2052 102.72 14.0767C102.74 13.9574 102.76 13.8289 102.77 13.7097C102.78 13.5812 102.78 13.4711 102.78 13.3609C102.78 13.0214 102.76 12.7645 102.71 12.5718C102.66 12.3791 102.59 12.2231 102.51 12.1129C102.46 12.0487 102.36 11.9661 102.21 11.8744C102.07 11.7826 101.86 11.7275 101.58 11.7275H100.03V13.8289ZM108.18 10.5896C108.37 10.5988 108.56 10.6172 108.76 10.6539C108.96 10.6906 109.15 10.7456 109.33 10.8191C109.51 10.8925 109.68 11.0026 109.83 11.1311C109.99 11.2687 110.11 11.4339 110.2 11.6174C110.29 11.8009 110.36 11.9936 110.41 12.1864C110.46 12.3791 110.49 12.5626 110.5 12.7461C110.51 12.9297 110.52 13.0948 110.52 13.2325C110.52 13.7922 110.45 14.2419 110.32 14.5814C110.19 14.921 110.02 15.1779 109.82 15.3614C109.68 15.4899 109.51 15.6 109.32 15.6734C109.13 15.7468 108.94 15.8019 108.74 15.8386C108.54 15.8753 108.34 15.8937 108.15 15.912C107.96 15.9212 107.79 15.9304 107.63 15.9304C107.47 15.9304 107.29 15.9212 107.1 15.912C106.91 15.9028 106.71 15.8753 106.52 15.8386C106.32 15.8019 106.13 15.7468 105.95 15.6734C105.77 15.6 105.6 15.4991 105.45 15.3614C105.29 15.2146 105.16 15.0494 105.07 14.8659C104.98 14.6824 104.91 14.4897 104.87 14.2969C104.83 14.1042 104.8 13.9115 104.78 13.7372C104.77 13.5537 104.76 13.3977 104.76 13.2692C104.76 13.1224 104.77 12.9572 104.78 12.7645C104.79 12.5718 104.82 12.3791 104.87 12.1864C104.92 11.9936 104.99 11.8009 105.08 11.6174C105.17 11.4339 105.3 11.2687 105.45 11.1311C105.6 11.0026 105.77 10.8925 105.95 10.8191C106.13 10.7456 106.32 10.6906 106.52 10.6539C106.72 10.6172 106.91 10.5988 107.1 10.5896C107.29 10.5805 107.47 10.5805 107.63 10.5805C107.79 10.5805 107.98 10.5805 108.18 10.5896ZM106.04 13.9482C106.07 14.1868 106.17 14.4071 106.34 14.5998C106.52 14.7925 106.72 14.9118 106.96 14.9577C107.2 15.0035 107.42 15.0311 107.64 15.0311C107.86 15.0311 108.09 15.0035 108.32 14.9577C108.55 14.9118 108.75 14.7925 108.93 14.5998C109.11 14.4071 109.21 14.196 109.24 13.9574C109.27 13.7188 109.29 13.4894 109.29 13.26C109.29 13.1591 109.29 13.0581 109.29 12.948C109.29 12.8287 109.28 12.7094 109.26 12.5809C109.24 12.4525 109.21 12.3332 109.16 12.2139C109.11 12.0946 109.04 11.9845 108.95 11.8835C108.86 11.7918 108.76 11.7184 108.66 11.6633C108.55 11.6082 108.45 11.5624 108.33 11.5348C108.21 11.5073 108.1 11.4889 107.99 11.4798C107.87 11.4706 107.76 11.4706 107.65 11.4706C107.55 11.4706 107.45 11.4706 107.33 11.4798C107.21 11.4889 107.09 11.5073 106.98 11.5348C106.86 11.5624 106.75 11.6082 106.64 11.6633C106.53 11.7184 106.43 11.7918 106.35 11.8835C106.27 11.9753 106.2 12.0854 106.16 12.2047C106.11 12.3332 106.08 12.4525 106.06 12.5809C106.04 12.7094 106.01 12.8379 106 12.948C106 13.0673 106 13.1682 106 13.26C106 13.4711 106.01 13.7005 106.04 13.9482ZM113.09 11.0118C113.16 10.8649 113.28 10.7548 113.42 10.6814C113.57 10.608 113.72 10.5805 113.89 10.5805C114.05 10.5805 114.21 10.6172 114.36 10.6814C114.51 10.7548 114.62 10.8649 114.69 11.0118L116.89 15.857H115.66L113.99 11.8285C113.98 11.8009 113.96 11.7734 113.95 11.7367C113.94 11.7 113.92 11.6816 113.89 11.6816C113.86 11.6816 113.84 11.7 113.83 11.7367C113.82 11.7734 113.8 11.8009 113.79 11.8285L112.12 15.857H110.89L113.09 11.0118ZM121.51 15.857L121.55 12.1405C121.55 12.1038 121.55 12.0671 121.55 12.0395C121.55 12.012 121.53 12.0028 121.49 12.0028C121.48 12.0028 121.46 12.012 121.44 12.0304C121.42 12.0487 121.39 12.0854 121.35 12.1405L118.97 15.4991C118.87 15.6367 118.77 15.7377 118.66 15.8111C118.55 15.8845 118.39 15.912 118.19 15.912C118.01 15.912 117.87 15.8845 117.77 15.8294C117.67 15.7744 117.59 15.7101 117.53 15.6459C117.48 15.5725 117.44 15.4991 117.42 15.4073C117.4 15.3339 117.4 15.2513 117.4 15.1779V10.6355H118.6L118.55 14.352C118.55 14.3979 118.55 14.4346 118.56 14.453C118.57 14.4805 118.59 14.4897 118.63 14.4897C118.66 14.4897 118.69 14.4713 118.71 14.4438C118.73 14.4162 118.75 14.3795 118.77 14.352L121.18 10.9292C121.29 10.7823 121.41 10.6814 121.54 10.6355C121.67 10.5896 121.8 10.5713 121.92 10.5713C121.96 10.5713 122.03 10.5805 122.11 10.5896C122.2 10.5988 122.29 10.6263 122.37 10.6814C122.46 10.7365 122.53 10.8099 122.6 10.92C122.67 11.0209 122.7 11.1769 122.7 11.3696V15.857H121.51ZM127.77 13.1682C127.93 13.1866 128.06 13.2325 128.18 13.2967C128.3 13.3701 128.38 13.4344 128.45 13.5078C128.56 13.6362 128.63 13.7831 128.65 13.9391C128.67 14.0951 128.69 14.2419 128.69 14.3795C128.69 14.4529 128.69 14.5355 128.68 14.6273C128.67 14.7191 128.66 14.82 128.63 14.9301C128.61 15.0311 128.57 15.1412 128.52 15.2421C128.47 15.3431 128.4 15.444 128.32 15.5266C128.16 15.6826 127.97 15.7744 127.77 15.8111C127.57 15.8386 127.38 15.857 127.23 15.857H124.65C124.53 15.857 124.41 15.8478 124.28 15.8294C124.15 15.8111 124.03 15.756 123.94 15.6734C123.84 15.5908 123.79 15.4991 123.77 15.389C123.75 15.2788 123.74 15.1779 123.74 15.0953V11.4522C123.74 11.3605 123.75 11.2595 123.78 11.1494C123.8 11.0393 123.87 10.9383 123.99 10.8466C124.11 10.7548 124.23 10.6998 124.35 10.6722C124.48 10.6539 124.6 10.6355 124.71 10.6355H127.16C127.25 10.6355 127.35 10.6355 127.46 10.6447C127.57 10.6447 127.68 10.6631 127.79 10.6906C127.9 10.7181 128.01 10.7548 128.11 10.8007C128.22 10.8466 128.31 10.92 128.39 11.0118C128.53 11.1586 128.61 11.3329 128.64 11.5165C128.67 11.7 128.68 11.856 128.68 11.9753C128.68 12.1129 128.67 12.2598 128.64 12.4249C128.61 12.5901 128.54 12.7278 128.44 12.8471C128.36 12.9297 128.27 12.9939 128.16 13.0489C128.05 13.104 127.93 13.1407 127.79 13.1499V13.1682H127.77ZM126.77 12.7186C126.84 12.7186 126.93 12.7094 127.02 12.6911C127.11 12.6727 127.2 12.6268 127.27 12.5626C127.34 12.4984 127.38 12.4249 127.4 12.3515C127.42 12.2781 127.43 12.2047 127.43 12.1313C127.43 12.0487 127.42 11.9661 127.4 11.8835C127.38 11.8009 127.34 11.7184 127.26 11.6541C127.19 11.5991 127.12 11.5624 127.04 11.544C126.96 11.5348 126.88 11.5256 126.79 11.5256H125.22C125.19 11.5256 125.15 11.5256 125.11 11.5348C125.07 11.5348 125.03 11.5532 125 11.5899C124.97 11.6266 124.95 11.6541 124.94 11.6908C124.93 11.7275 124.93 11.7551 124.93 11.7918V12.7278H126.77V12.7186ZM124.92 14.6548C124.92 14.6915 124.93 14.7374 124.94 14.7741C124.95 14.82 124.97 14.8567 124.99 14.8842C125.02 14.921 125.06 14.9485 125.11 14.9577C125.15 14.9668 125.2 14.9668 125.25 14.9668H126.74C126.83 14.9668 126.92 14.9577 127.03 14.9393C127.13 14.921 127.22 14.8751 127.3 14.8108C127.37 14.7374 127.42 14.6457 127.44 14.5447C127.46 14.4438 127.47 14.3428 127.47 14.2602C127.47 14.1777 127.46 14.0951 127.45 14.0125C127.44 13.9207 127.4 13.8473 127.33 13.7739C127.25 13.6913 127.17 13.6454 127.07 13.6271C126.97 13.6087 126.89 13.5995 126.82 13.5995H124.95V14.6548H124.92ZM132.89 10.6355C133.12 10.6355 133.34 10.6722 133.53 10.7456C133.73 10.8191 133.89 10.92 134.01 11.0393C134.13 11.1494 134.22 11.3146 134.3 11.5165C134.37 11.7275 134.41 11.9753 134.41 12.2689V14.976C134.41 15.0678 134.4 15.1779 134.37 15.3155C134.35 15.444 134.29 15.5541 134.19 15.6551C134.09 15.7468 133.98 15.8019 133.84 15.8294C133.7 15.857 133.57 15.8661 133.44 15.8661H130.85C130.7 15.8661 130.54 15.857 130.36 15.8386C130.18 15.8202 130.02 15.7468 129.86 15.6092C129.75 15.5174 129.66 15.4073 129.6 15.288C129.54 15.1687 129.49 15.0402 129.46 14.9118C129.43 14.7833 129.41 14.6548 129.4 14.5264C129.39 14.3979 129.39 14.2878 129.39 14.1868C129.39 13.9574 129.42 13.728 129.47 13.5078C129.52 13.2875 129.65 13.0857 129.85 12.9205C130.02 12.7736 130.19 12.6911 130.37 12.6635C130.54 12.636 130.7 12.6176 130.85 12.6176H133.2V12.2506C133.2 12.168 133.19 12.0854 133.17 12.0028C133.15 11.9202 133.11 11.8376 133.04 11.7551C132.96 11.6541 132.86 11.5899 132.76 11.5715C132.65 11.544 132.55 11.5348 132.46 11.5348H129.79V10.6355H132.89ZM131.23 13.4986C131.19 13.4986 131.12 13.5078 131.03 13.5261C130.94 13.5445 130.86 13.5904 130.79 13.6821C130.77 13.7097 130.74 13.7647 130.71 13.8381C130.68 13.9207 130.66 14.0492 130.66 14.2419C130.66 14.3245 130.67 14.4162 130.69 14.5355C130.71 14.6548 130.75 14.7466 130.83 14.82C130.87 14.8567 130.93 14.8934 131 14.9301C131.07 14.9668 131.14 14.976 131.22 14.976H132.89C132.92 14.976 132.97 14.976 133.02 14.9668C133.07 14.9668 133.12 14.9485 133.16 14.9118C133.2 14.8751 133.22 14.8475 133.23 14.8108C133.24 14.7741 133.24 14.7374 133.24 14.7007V13.4986H131.23ZM135.44 10.6355H136.64V12.7278H137.46C137.47 12.3791 137.53 12.0762 137.62 11.8101C137.72 11.544 137.88 11.3146 138.1 11.1219C138.25 10.9934 138.42 10.8925 138.6 10.8191C138.78 10.7456 138.96 10.6906 139.15 10.6539C139.34 10.6172 139.53 10.5988 139.72 10.5896C139.91 10.5805 140.09 10.5713 140.27 10.5713C140.43 10.5713 140.61 10.5805 140.81 10.5896C141.01 10.5988 141.2 10.6172 141.4 10.6539C141.59 10.6906 141.78 10.7365 141.96 10.8191C142.14 10.8925 142.3 10.9934 142.45 11.1219C142.64 11.2962 142.8 11.544 142.93 11.8835C143.06 12.2231 143.12 12.6635 143.12 13.1958C143.12 13.6913 143.06 14.1226 142.95 14.4897C142.83 14.8567 142.67 15.1504 142.45 15.3522C142.31 15.4807 142.14 15.5908 141.96 15.6642C141.78 15.7377 141.59 15.7927 141.39 15.8294C141.19 15.8661 141 15.8845 140.8 15.9028C140.61 15.912 140.43 15.9212 140.26 15.9212C140.08 15.9212 139.9 15.912 139.71 15.9028C139.52 15.8937 139.33 15.8661 139.14 15.8294C138.95 15.7927 138.77 15.7377 138.59 15.6642C138.41 15.5908 138.24 15.4899 138.09 15.3522C137.89 15.1779 137.73 14.9485 137.61 14.664C137.49 14.3795 137.43 14.0217 137.45 13.6087H136.63V15.857H135.43V10.6355H135.44ZM138.7 13.9758C138.73 14.2144 138.82 14.4254 138.96 14.5906C139.04 14.6915 139.14 14.7741 139.25 14.8384C139.36 14.8934 139.47 14.9393 139.59 14.9668C139.71 14.9944 139.82 15.0127 139.94 15.0219C140.06 15.0311 140.17 15.0311 140.27 15.0311C140.37 15.0311 140.47 15.0311 140.59 15.0219C140.71 15.0127 140.83 14.9944 140.94 14.9668C141.06 14.9393 141.17 14.8934 141.28 14.8384C141.39 14.7833 141.49 14.7007 141.57 14.5906C141.6 14.5539 141.63 14.508 141.66 14.453C141.69 14.3979 141.73 14.3153 141.76 14.2052C141.79 14.1042 141.82 13.9666 141.84 13.8106C141.86 13.6546 141.88 13.4619 141.88 13.2325C141.88 13.0122 141.87 12.8195 141.84 12.6544C141.82 12.4892 141.79 12.3607 141.76 12.2598C141.73 12.1588 141.7 12.0762 141.66 12.0212C141.63 11.9661 141.6 11.9202 141.58 11.8927C141.5 11.7918 141.4 11.7092 141.28 11.6541C141.16 11.5991 141.04 11.5532 140.92 11.5348C140.8 11.5073 140.68 11.4889 140.56 11.4889C140.44 11.4798 140.34 11.4798 140.25 11.4798C140.16 11.4798 140.06 11.4798 139.94 11.4889C139.82 11.4981 139.71 11.5165 139.59 11.5348C139.47 11.5624 139.35 11.5991 139.24 11.6541C139.12 11.7092 139.02 11.7918 138.94 11.8927C138.91 11.9294 138.87 11.9845 138.84 12.0487C138.81 12.1129 138.77 12.2047 138.75 12.3148C138.72 12.4249 138.7 12.5626 138.68 12.7278C138.66 12.8929 138.65 13.0857 138.65 13.3151C138.65 13.5078 138.66 13.728 138.7 13.9758ZM148.37 10.6355V14.9668H150.35V10.6355H151.55V14.9668H152.33V15.857H144.95C144.81 15.857 144.68 15.8478 144.55 15.8386C144.42 15.8294 144.3 15.7744 144.19 15.6642C144.09 15.5725 144.04 15.4715 144.02 15.3614C144 15.2513 143.99 15.1504 143.99 15.0586V10.6355H145.19V14.6273C145.19 14.765 145.2 14.8475 145.23 14.8842C145.26 14.9301 145.3 14.9577 145.34 14.9668C145.38 14.976 145.42 14.976 145.47 14.976H147.18V10.6355H148.37ZM157.05 15.857L157.09 12.1405C157.09 12.1038 157.09 12.0671 157.09 12.0395C157.09 12.012 157.07 12.0028 157.03 12.0028C157.02 12.0028 157 12.012 156.98 12.0304C156.96 12.0487 156.93 12.0854 156.89 12.1405L154.51 15.4991C154.41 15.6367 154.31 15.7377 154.2 15.8111C154.09 15.8845 153.93 15.912 153.73 15.912C153.55 15.912 153.41 15.8845 153.31 15.8294C153.21 15.7744 153.13 15.7101 153.07 15.6459C153.02 15.5725 152.98 15.4991 152.96 15.4073C152.94 15.3247 152.93 15.2421 152.93 15.1687V10.6355H154.13L154.08 14.352C154.08 14.3979 154.08 14.4346 154.09 14.453C154.1 14.4805 154.12 14.4897 154.16 14.4897C154.19 14.4897 154.22 14.4713 154.24 14.4438C154.26 14.4162 154.28 14.3795 154.3 14.352L156.71 10.9292C156.82 10.7823 156.94 10.6814 157.07 10.6355C157.2 10.5896 157.33 10.5713 157.45 10.5713C157.49 10.5713 157.56 10.5805 157.64 10.5896C157.73 10.5988 157.82 10.6263 157.9 10.6814C157.99 10.7365 158.06 10.8099 158.13 10.92C158.2 11.0209 158.23 11.1769 158.23 11.3696V15.857H157.05ZM163.37 15.857L163.41 12.1405C163.41 12.1038 163.41 12.0671 163.41 12.0395C163.41 12.012 163.39 12.0028 163.35 12.0028C163.34 12.0028 163.32 12.012 163.3 12.0304C163.28 12.0487 163.25 12.0854 163.21 12.1405L160.83 15.4991C160.73 15.6367 160.63 15.7377 160.52 15.8111C160.41 15.8845 160.25 15.912 160.05 15.912C159.87 15.912 159.73 15.8845 159.63 15.8294C159.53 15.7744 159.45 15.7101 159.39 15.6459C159.34 15.5725 159.3 15.4991 159.28 15.4073C159.26 15.3247 159.25 15.2421 159.25 15.1687V10.6355H160.45L160.4 14.352C160.4 14.3979 160.4 14.4346 160.41 14.453C160.42 14.4805 160.44 14.4897 160.48 14.4897C160.51 14.4897 160.54 14.4713 160.56 14.4438C160.58 14.4162 160.6 14.3795 160.62 14.352L163.03 10.9292C163.14 10.7823 163.26 10.6814 163.39 10.6355C163.52 10.5896 163.65 10.5713 163.77 10.5713C163.81 10.5713 163.88 10.5805 163.96 10.5896C164.05 10.5988 164.14 10.6263 164.22 10.6814C164.31 10.7365 164.38 10.8099 164.45 10.92C164.52 11.0209 164.55 11.1769 164.55 11.3696V15.857H163.37ZM162.3 9.64446C162.43 9.61693 162.54 9.5527 162.64 9.45176C162.69 9.3967 162.75 9.33246 162.79 9.24987C162.84 9.16728 162.87 9.09387 162.89 9.02964H163.82C163.77 9.22234 163.69 9.40587 163.58 9.5894C163.47 9.77293 163.36 9.91976 163.24 10.0207C163.04 10.1951 162.82 10.296 162.58 10.3419C162.33 10.3878 162.12 10.4061 161.94 10.4061C161.76 10.4061 161.54 10.3878 161.3 10.3419C161.05 10.296 160.83 10.1951 160.64 10.0207C160.52 9.91976 160.4 9.77293 160.3 9.5894C160.19 9.40587 160.11 9.22234 160.06 9.02964H160.99C161.01 9.09387 161.04 9.16728 161.09 9.24987C161.14 9.33246 161.19 9.3967 161.24 9.45176C161.34 9.5527 161.46 9.61693 161.58 9.64446C161.71 9.67199 161.83 9.69034 161.94 9.69034C162.05 9.69034 162.17 9.67199 162.3 9.64446ZM172.25 10.6355C172.39 10.6355 172.52 10.6447 172.65 10.6722C172.78 10.6998 172.9 10.7732 173 10.8925C173.08 10.9842 173.13 11.0852 173.15 11.1861C173.17 11.2871 173.18 11.3972 173.18 11.5073V15.857H171.98V11.8285C171.98 11.7918 171.98 11.7551 171.97 11.7092C171.96 11.6633 171.94 11.6174 171.91 11.5899C171.88 11.5715 171.85 11.5532 171.81 11.544C171.77 11.5348 171.73 11.5256 171.7 11.5256H169.68C169.58 11.5256 169.52 11.544 169.48 11.5807C169.45 11.6082 169.43 11.6449 169.42 11.6908C169.41 11.7367 169.4 11.7826 169.4 11.8285V15.857H168.2V11.5073C168.2 11.4155 168.21 11.3146 168.22 11.2136C168.23 11.1127 168.29 11.0026 168.38 10.8925C168.5 10.764 168.62 10.6814 168.75 10.6631C168.88 10.6447 169 10.6355 169.12 10.6355H172.25ZM175.39 17.5363H174.19V11.4431C174.19 11.2687 174.22 11.1402 174.29 11.0301C174.36 10.9292 174.43 10.8558 174.49 10.8007C174.59 10.7273 174.7 10.6814 174.83 10.6631C174.95 10.6447 175.07 10.6355 175.17 10.6355H177.06C177.15 10.6355 177.26 10.6447 177.38 10.6539C177.51 10.6631 177.64 10.6906 177.79 10.7273C177.94 10.764 178.08 10.8282 178.23 10.9016C178.38 10.9751 178.52 11.0852 178.65 11.2136C178.79 11.3513 178.89 11.5073 178.97 11.6633C179.05 11.8285 179.11 11.9936 179.14 12.168C179.18 12.3424 179.2 12.5075 179.21 12.6727C179.22 12.8379 179.22 12.9939 179.22 13.1407C179.22 13.3151 179.22 13.4894 179.21 13.6638C179.2 13.8381 179.18 14.0125 179.15 14.1868C179.12 14.3612 179.07 14.5264 179.02 14.6824C178.96 14.8384 178.89 14.9852 178.79 15.1137C178.66 15.288 178.52 15.4348 178.36 15.5358C178.2 15.6367 178.03 15.7101 177.86 15.7652C177.69 15.8111 177.52 15.8478 177.35 15.857C177.18 15.8661 177.03 15.8753 176.9 15.8753H175.39V17.5363ZM176.75 14.976C177.05 14.976 177.28 14.921 177.43 14.8108C177.59 14.7007 177.7 14.5998 177.77 14.4897C177.82 14.4071 177.88 14.2786 177.92 14.0951C177.97 13.9115 177.99 13.6271 177.99 13.2417C177.99 12.8838 177.97 12.6268 177.94 12.4708C177.91 12.3056 177.88 12.1955 177.84 12.1221C177.76 11.9478 177.64 11.8101 177.46 11.7C177.28 11.5899 177.06 11.5348 176.8 11.5348H175.62C175.59 11.5348 175.56 11.544 175.53 11.5624C175.5 11.5807 175.47 11.5899 175.45 11.6082C175.4 11.6633 175.37 11.7184 175.37 11.7826V14.9852H176.75V14.976ZM183.38 10.5896C183.57 10.5988 183.76 10.6172 183.96 10.6539C184.16 10.6906 184.35 10.7456 184.53 10.8191C184.71 10.8925 184.88 11.0026 185.03 11.1311C185.19 11.2687 185.31 11.4339 185.4 11.6174C185.49 11.8009 185.56 11.9936 185.61 12.1864C185.66 12.3791 185.69 12.5626 185.7 12.7461C185.71 12.9297 185.72 13.0948 185.72 13.2325C185.72 13.7922 185.65 14.2419 185.52 14.5814C185.39 14.921 185.22 15.1779 185.02 15.3614C184.88 15.4899 184.71 15.6 184.52 15.6734C184.33 15.7468 184.14 15.8019 183.94 15.8386C183.74 15.8753 183.54 15.8937 183.35 15.912C183.16 15.9212 182.99 15.9304 182.83 15.9304C182.67 15.9304 182.49 15.9212 182.3 15.912C182.11 15.9028 181.91 15.8753 181.72 15.8386C181.52 15.8019 181.33 15.7468 181.15 15.6734C180.97 15.6 180.8 15.4991 180.65 15.3614C180.49 15.2146 180.36 15.0494 180.27 14.8659C180.18 14.6824 180.11 14.4897 180.07 14.2969C180.03 14.1042 180 13.9115 179.98 13.7372C179.97 13.5537 179.96 13.3977 179.96 13.2692C179.96 13.1224 179.97 12.9572 179.98 12.7645C179.99 12.5718 180.02 12.3791 180.07 12.1864C180.12 11.9936 180.19 11.8009 180.28 11.6174C180.37 11.4339 180.5 11.2687 180.65 11.1311C180.8 11.0026 180.97 10.8925 181.15 10.8191C181.33 10.7456 181.52 10.6906 181.72 10.6539C181.92 10.6172 182.11 10.5988 182.3 10.5896C182.49 10.5805 182.67 10.5805 182.83 10.5805C183.01 10.5805 183.19 10.5805 183.38 10.5896ZM181.25 13.9482C181.28 14.1868 181.38 14.4071 181.55 14.5998C181.73 14.7925 181.93 14.9118 182.17 14.9577C182.41 15.0035 182.63 15.0311 182.85 15.0311C183.07 15.0311 183.3 15.0035 183.53 14.9577C183.76 14.9118 183.96 14.7925 184.14 14.5998C184.32 14.4071 184.42 14.196 184.45 13.9574C184.48 13.7188 184.5 13.4894 184.5 13.26C184.5 13.1591 184.5 13.0581 184.5 12.948C184.5 12.8287 184.49 12.7094 184.47 12.5809C184.45 12.4525 184.42 12.3332 184.37 12.2139C184.32 12.0946 184.25 11.9845 184.16 11.8835C184.07 11.7918 183.97 11.7184 183.87 11.6633C183.76 11.6082 183.66 11.5624 183.54 11.5348C183.43 11.5073 183.31 11.4889 183.2 11.4798C183.08 11.4706 182.97 11.4706 182.86 11.4706C182.76 11.4706 182.66 11.4706 182.54 11.4798C182.42 11.4889 182.3 11.5073 182.19 11.5348C182.07 11.5624 181.96 11.6082 181.85 11.6633C181.74 11.7184 181.64 11.7918 181.56 11.8835C181.48 11.9753 181.41 12.0854 181.37 12.2047C181.32 12.3332 181.29 12.4525 181.27 12.5809C181.25 12.7094 181.24 12.8287 181.23 12.948C181.23 13.0673 181.22 13.1682 181.22 13.2508C181.2 13.4711 181.22 13.7005 181.25 13.9482ZM188.23 15.857V11.5256H186.2V10.6355H191.46V11.5256H189.43V15.857H188.23ZM196.19 15.857L196.23 12.1405C196.23 12.1038 196.23 12.0671 196.23 12.0395C196.23 12.012 196.21 12.0028 196.17 12.0028C196.16 12.0028 196.14 12.012 196.12 12.0304C196.1 12.0487 196.07 12.0854 196.03 12.1405L193.65 15.4991C193.55 15.6367 193.45 15.7377 193.34 15.8111C193.23 15.8845 193.07 15.912 192.87 15.912C192.69 15.912 192.55 15.8845 192.45 15.8294C192.35 15.7744 192.27 15.7101 192.21 15.6459C192.16 15.5725 192.12 15.4991 192.1 15.4073C192.08 15.3247 192.07 15.2421 192.07 15.1687V10.6355H193.27L193.22 14.352C193.22 14.3979 193.22 14.4346 193.23 14.453C193.24 14.4805 193.26 14.4897 193.3 14.4897C193.33 14.4897 193.36 14.4713 193.38 14.4438C193.4 14.4162 193.42 14.3795 193.44 14.352L195.85 10.9292C195.96 10.7823 196.08 10.6814 196.21 10.6355C196.34 10.5896 196.47 10.5713 196.59 10.5713C196.63 10.5713 196.7 10.5805 196.78 10.5896C196.87 10.5988 196.96 10.6263 197.04 10.6814C197.13 10.7365 197.2 10.8099 197.27 10.92C197.34 11.0209 197.37 11.1769 197.37 11.3696V15.857H196.19ZM202.45 13.1682C202.61 13.1866 202.74 13.2325 202.86 13.2967C202.98 13.3701 203.06 13.4344 203.13 13.5078C203.24 13.6362 203.31 13.7831 203.33 13.9391C203.35 14.0951 203.37 14.2419 203.37 14.3795C203.37 14.4529 203.37 14.5355 203.36 14.6273C203.35 14.7191 203.34 14.82 203.31 14.9301C203.29 15.0311 203.25 15.1412 203.2 15.2421C203.15 15.3431 203.08 15.444 203 15.5266C202.84 15.6826 202.65 15.7744 202.45 15.8111C202.25 15.8386 202.06 15.857 201.91 15.857H199.33C199.21 15.857 199.09 15.8478 198.96 15.8294C198.83 15.8111 198.71 15.756 198.62 15.6734C198.52 15.5908 198.47 15.4991 198.45 15.389C198.43 15.2788 198.42 15.1779 198.42 15.0953V11.4522C198.42 11.3605 198.43 11.2595 198.46 11.1494C198.48 11.0393 198.55 10.9383 198.67 10.8466C198.79 10.7548 198.91 10.6998 199.03 10.6722C199.16 10.6539 199.28 10.6355 199.39 10.6355H201.84C201.93 10.6355 202.03 10.6355 202.14 10.6447C202.25 10.6447 202.36 10.6631 202.47 10.6906C202.58 10.7181 202.69 10.7548 202.79 10.8007C202.9 10.8466 202.99 10.92 203.07 11.0118C203.21 11.1586 203.29 11.3329 203.32 11.5165C203.35 11.7 203.36 11.856 203.36 11.9753C203.36 12.1129 203.35 12.2598 203.32 12.4249C203.29 12.5901 203.22 12.7278 203.12 12.8471C203.04 12.9297 202.95 12.9939 202.84 13.0489C202.73 13.104 202.61 13.1407 202.47 13.1499V13.1682H202.45ZM201.45 12.7186C201.52 12.7186 201.61 12.7094 201.7 12.6911C201.79 12.6727 201.88 12.6268 201.95 12.5626C202.02 12.4984 202.06 12.4249 202.08 12.3515C202.1 12.2781 202.11 12.2047 202.11 12.1313C202.11 12.0487 202.1 11.9661 202.08 11.8835C202.06 11.8009 202.02 11.7184 201.94 11.6541C201.87 11.5991 201.8 11.5624 201.72 11.544C201.64 11.5348 201.56 11.5256 201.47 11.5256H199.9C199.87 11.5256 199.83 11.5256 199.79 11.5348C199.75 11.5348 199.71 11.5532 199.68 11.5899C199.65 11.6266 199.63 11.6541 199.62 11.6908C199.61 11.7275 199.61 11.7551 199.61 11.7918V12.7278H201.45V12.7186ZM199.6 14.6548C199.6 14.6915 199.61 14.7374 199.62 14.7741C199.63 14.82 199.65 14.8567 199.67 14.8842C199.7 14.921 199.74 14.9485 199.79 14.9577C199.83 14.9668 199.88 14.9668 199.93 14.9668H201.42C201.51 14.9668 201.6 14.9577 201.71 14.9393C201.81 14.921 201.9 14.8751 201.98 14.8108C202.05 14.7374 202.1 14.6457 202.12 14.5447C202.14 14.4438 202.15 14.3428 202.15 14.2602C202.15 14.1777 202.14 14.0951 202.13 14.0125C202.12 13.9207 202.08 13.8473 202.01 13.7739C201.93 13.6913 201.85 13.6454 201.75 13.6271C201.65 13.6087 201.57 13.5995 201.5 13.5995H199.63V14.6548H199.6ZM207.51 10.5896C207.7 10.5988 207.89 10.6172 208.09 10.6539C208.29 10.6906 208.48 10.7456 208.66 10.8191C208.84 10.8925 209.01 11.0026 209.16 11.1311C209.32 11.2687 209.44 11.4339 209.53 11.6174C209.62 11.8009 209.69 11.9936 209.74 12.1864C209.79 12.3791 209.82 12.5626 209.83 12.7461C209.84 12.9297 209.85 13.0948 209.85 13.2325C209.85 13.7922 209.78 14.2419 209.65 14.5814C209.52 14.921 209.35 15.1779 209.15 15.3614C209.01 15.4899 208.84 15.6 208.65 15.6734C208.46 15.7468 208.27 15.8019 208.07 15.8386C207.87 15.8753 207.67 15.8937 207.48 15.912C207.29 15.9212 207.12 15.9304 206.96 15.9304C206.8 15.9304 206.62 15.9212 206.43 15.912C206.24 15.9028 206.04 15.8753 205.85 15.8386C205.65 15.8019 205.46 15.7468 205.28 15.6734C205.1 15.6 204.93 15.4991 204.78 15.3614C204.62 15.2146 204.49 15.0494 204.4 14.8659C204.31 14.6824 204.24 14.4897 204.2 14.2969C204.16 14.1042 204.13 13.9115 204.11 13.7372C204.1 13.5537 204.09 13.3977 204.09 13.2692C204.09 13.1224 204.1 12.9572 204.11 12.7645C204.12 12.5718 204.15 12.3791 204.2 12.1864C204.25 11.9936 204.32 11.8009 204.41 11.6174C204.5 11.4339 204.63 11.2687 204.78 11.1311C204.93 11.0026 205.1 10.8925 205.28 10.8191C205.46 10.7456 205.65 10.6906 205.85 10.6539C206.05 10.6172 206.24 10.5988 206.43 10.5896C206.62 10.5805 206.8 10.5805 206.96 10.5805C207.12 10.5805 207.32 10.5805 207.51 10.5896ZM205.38 13.9482C205.41 14.1868 205.51 14.4071 205.68 14.5998C205.86 14.7925 206.06 14.9118 206.3 14.9577C206.54 15.0035 206.76 15.0311 206.98 15.0311C207.2 15.0311 207.43 15.0035 207.66 14.9577C207.89 14.9118 208.09 14.7925 208.27 14.5998C208.45 14.4071 208.55 14.196 208.58 13.9574C208.61 13.7188 208.63 13.4894 208.63 13.26C208.63 13.1591 208.63 13.0581 208.63 12.948C208.63 12.8287 208.62 12.7094 208.6 12.5809C208.58 12.4525 208.55 12.3332 208.5 12.2139C208.45 12.0946 208.38 11.9845 208.29 11.8835C208.2 11.7918 208.1 11.7184 208 11.6633C207.89 11.6082 207.79 11.5624 207.67 11.5348C207.56 11.5073 207.44 11.4889 207.33 11.4798C207.21 11.4706 207.1 11.4706 206.99 11.4706C206.89 11.4706 206.79 11.4706 206.67 11.4798C206.55 11.4889 206.43 11.5073 206.32 11.5348C206.2 11.5624 206.09 11.6082 205.98 11.6633C205.87 11.7184 205.77 11.7918 205.69 11.8835C205.61 11.9753 205.54 12.0854 205.5 12.2047C205.45 12.3332 205.42 12.4525 205.4 12.5809C205.38 12.7094 205.37 12.8287 205.36 12.948C205.36 13.0673 205.35 13.1682 205.35 13.2508C205.34 13.4711 205.35 13.7005 205.38 13.9482ZM214.79 13.1682C214.95 13.1866 215.08 13.2325 215.2 13.2967C215.32 13.3701 215.4 13.4344 215.47 13.5078C215.58 13.6362 215.65 13.7831 215.67 13.9391C215.69 14.0951 215.71 14.2419 215.71 14.3795C215.71 14.4529 215.71 14.5355 215.7 14.6273C215.69 14.7191 215.68 14.82 215.65 14.9301C215.63 15.0311 215.59 15.1412 215.54 15.2421C215.49 15.3431 215.42 15.444 215.34 15.5266C215.18 15.6826 214.99 15.7744 214.79 15.8111C214.59 15.8386 214.4 15.857 214.25 15.857H211.67C211.55 15.857 211.43 15.8478 211.3 15.8294C211.17 15.8111 211.05 15.756 210.96 15.6734C210.86 15.5908 210.81 15.4991 210.79 15.389C210.77 15.2788 210.76 15.1779 210.76 15.0953V11.4522C210.76 11.3605 210.77 11.2595 210.8 11.1494C210.82 11.0393 210.89 10.9383 211.01 10.8466C211.13 10.7548 211.25 10.6998 211.37 10.6722C211.5 10.6539 211.62 10.6355 211.73 10.6355H214.18C214.27 10.6355 214.37 10.6355 214.48 10.6447C214.59 10.6447 214.7 10.6631 214.81 10.6906C214.92 10.7181 215.03 10.7548 215.13 10.8007C215.24 10.8466 215.33 10.92 215.41 11.0118C215.55 11.1586 215.63 11.3329 215.66 11.5165C215.69 11.7 215.7 11.856 215.7 11.9753C215.7 12.1129 215.69 12.2598 215.66 12.4249C215.63 12.5901 215.56 12.7278 215.46 12.8471C215.38 12.9297 215.29 12.9939 215.18 13.0489C215.07 13.104 214.95 13.1407 214.81 13.1499V13.1682H214.79ZM213.79 12.7186C213.86 12.7186 213.95 12.7094 214.04 12.6911C214.13 12.6727 214.22 12.6268 214.29 12.5626C214.36 12.4984 214.4 12.4249 214.42 12.3515C214.44 12.2781 214.45 12.2047 214.45 12.1313C214.45 12.0487 214.44 11.9661 214.42 11.8835C214.4 11.8009 214.36 11.7184 214.28 11.6541C214.21 11.5991 214.14 11.5624 214.06 11.544C213.98 11.5348 213.9 11.5256 213.81 11.5256H212.24C212.21 11.5256 212.17 11.5256 212.13 11.5348C212.09 11.5348 212.05 11.5532 212.02 11.5899C211.99 11.6266 211.97 11.6541 211.96 11.6908C211.95 11.7275 211.95 11.7551 211.95 11.7918V12.7278H213.79V12.7186ZM211.94 14.6548C211.94 14.6915 211.95 14.7374 211.96 14.7741C211.97 14.82 211.99 14.8567 212.01 14.8842C212.04 14.921 212.08 14.9485 212.13 14.9577C212.17 14.9668 212.22 14.9668 212.27 14.9668H213.76C213.85 14.9668 213.94 14.9577 214.05 14.9393C214.15 14.921 214.24 14.8751 214.32 14.8108C214.39 14.7374 214.44 14.6457 214.46 14.5447C214.48 14.4438 214.49 14.3428 214.49 14.2602C214.49 14.1777 214.48 14.0951 214.47 14.0125C214.46 13.9207 214.42 13.8473 214.35 13.7739C214.27 13.6913 214.19 13.6454 214.09 13.6271C213.99 13.6087 213.91 13.5995 213.84 13.5995H211.97V14.6548H211.94ZM219.85 10.5896C220.04 10.5988 220.23 10.6172 220.43 10.6539C220.63 10.6906 220.82 10.7456 221 10.8191C221.18 10.8925 221.35 11.0026 221.5 11.1311C221.66 11.2687 221.78 11.4339 221.87 11.6174C221.96 11.8009 222.03 11.9936 222.08 12.1864C222.13 12.3791 222.16 12.5626 222.17 12.7461C222.18 12.9297 222.19 13.0948 222.19 13.2325C222.19 13.7922 222.12 14.2419 221.99 14.5814C221.86 14.921 221.69 15.1779 221.49 15.3614C221.35 15.4899 221.18 15.6 220.99 15.6734C220.8 15.7468 220.61 15.8019 220.41 15.8386C220.21 15.8753 220.01 15.8937 219.82 15.912C219.63 15.9212 219.46 15.9304 219.3 15.9304C219.14 15.9304 218.96 15.9212 218.77 15.912C218.58 15.9028 218.38 15.8753 218.19 15.8386C217.99 15.8019 217.8 15.7468 217.62 15.6734C217.44 15.6 217.27 15.4991 217.12 15.3614C216.96 15.2146 216.83 15.0494 216.74 14.8659C216.65 14.6824 216.58 14.4897 216.54 14.2969C216.5 14.1042 216.47 13.9115 216.45 13.7372C216.44 13.5537 216.43 13.3977 216.43 13.2692C216.43 13.1224 216.44 12.9572 216.45 12.7645C216.46 12.5718 216.49 12.3791 216.54 12.1864C216.59 11.9936 216.66 11.8009 216.75 11.6174C216.84 11.4339 216.97 11.2687 217.12 11.1311C217.27 11.0026 217.44 10.8925 217.62 10.8191C217.8 10.7456 217.99 10.6906 218.19 10.6539C218.39 10.6172 218.58 10.5988 218.77 10.5896C218.96 10.5805 219.14 10.5805 219.3 10.5805C219.46 10.5805 219.66 10.5805 219.85 10.5896ZM217.72 13.9482C217.75 14.1868 217.85 14.4071 218.02 14.5998C218.2 14.7925 218.4 14.9118 218.64 14.9577C218.88 15.0035 219.1 15.0311 219.32 15.0311C219.54 15.0311 219.77 15.0035 220 14.9577C220.23 14.9118 220.43 14.7925 220.61 14.5998C220.79 14.4071 220.89 14.196 220.92 13.9574C220.95 13.7188 220.97 13.4894 220.97 13.26C220.97 13.1591 220.97 13.0581 220.97 12.948C220.97 12.8287 220.96 12.7094 220.94 12.5809C220.92 12.4525 220.89 12.3332 220.84 12.2139C220.79 12.0946 220.72 11.9845 220.63 11.8835C220.54 11.7918 220.44 11.7184 220.34 11.6633C220.23 11.6082 220.13 11.5624 220.01 11.5348C219.9 11.5073 219.78 11.4889 219.67 11.4798C219.55 11.4706 219.44 11.4706 219.33 11.4706C219.23 11.4706 219.13 11.4706 219.01 11.4798C218.89 11.4889 218.77 11.5073 218.66 11.5348C218.54 11.5624 218.43 11.6082 218.32 11.6633C218.21 11.7184 218.11 11.7918 218.03 11.8835C217.95 11.9753 217.88 12.0854 217.84 12.2047C217.79 12.3332 217.76 12.4525 217.74 12.5809C217.72 12.7094 217.71 12.8287 217.7 12.948C217.7 13.0673 217.69 13.1682 217.69 13.2508C217.67 13.4711 217.69 13.7005 217.72 13.9482ZM225.04 15.857C224.94 15.857 224.82 15.8478 224.68 15.8386C224.54 15.8294 224.4 15.7927 224.26 15.7468C224.12 15.701 223.97 15.6367 223.83 15.5541C223.68 15.4715 223.55 15.3614 223.43 15.2146C223.21 14.9577 223.07 14.6732 223.02 14.352C222.97 14.0308 222.94 13.6913 222.94 13.3151C222.94 13.1591 222.94 12.9847 222.95 12.8012C222.96 12.6176 222.98 12.4341 223.02 12.2414C223.06 12.0579 223.12 11.8744 223.2 11.6908C223.28 11.5073 223.4 11.3421 223.55 11.1953C223.6 11.1402 223.68 11.0852 223.76 11.0209C223.85 10.9567 223.96 10.8925 224.09 10.8374C224.22 10.7823 224.38 10.7365 224.56 10.6906C224.74 10.6539 224.95 10.6355 225.2 10.6355H227.52V11.5256H225.59C225.19 11.5256 224.88 11.6082 224.68 11.7734C224.47 11.9386 224.33 12.1313 224.27 12.3515C224.25 12.4249 224.23 12.5075 224.22 12.5993C224.21 12.6911 224.2 12.792 224.19 12.8838C224.19 12.9755 224.18 13.0673 224.18 13.1499C224.18 13.2325 224.17 13.2967 224.17 13.3334C224.17 13.416 224.17 13.4986 224.18 13.5904C224.18 13.6821 224.19 13.7831 224.21 13.884C224.22 13.9849 224.24 14.0767 224.27 14.1777C224.29 14.2694 224.32 14.352 224.36 14.4162C224.43 14.5447 224.51 14.6365 224.62 14.7099C224.72 14.7833 224.83 14.8384 224.96 14.8751C225.08 14.9118 225.21 14.9393 225.34 14.9485C225.47 14.9577 225.6 14.9668 225.72 14.9668H227.66V15.857H225.04ZM232.6 10.6355C232.74 10.6355 232.87 10.6447 233 10.6722C233.13 10.6998 233.25 10.7732 233.35 10.8925C233.43 10.9842 233.48 11.0852 233.5 11.1861C233.52 11.2871 233.53 11.3972 233.53 11.5073V15.857H232.33V11.8285C232.33 11.7918 232.33 11.7551 232.32 11.7092C232.31 11.6633 232.29 11.6174 232.26 11.5899C232.23 11.5715 232.2 11.5532 232.16 11.544C232.12 11.5348 232.08 11.5256 232.05 11.5256H230.03C229.93 11.5256 229.87 11.544 229.83 11.5807C229.8 11.6082 229.78 11.6449 229.77 11.6908C229.76 11.7367 229.75 11.7826 229.75 11.8285V15.857H228.55V11.5073C228.55 11.4155 228.56 11.3146 228.57 11.2136C228.58 11.1127 228.64 11.0026 228.73 10.8925C228.85 10.764 228.97 10.6814 229.1 10.6631C229.23 10.6447 229.35 10.6355 229.47 10.6355H232.6ZM237.87 10.6355C238.1 10.6355 238.32 10.6722 238.51 10.7456C238.71 10.8191 238.87 10.92 238.99 11.0393C239.11 11.1494 239.2 11.3146 239.28 11.5165C239.35 11.7275 239.39 11.9753 239.39 12.2689V14.976C239.39 15.0678 239.38 15.1779 239.35 15.3155C239.33 15.444 239.27 15.5541 239.17 15.6551C239.07 15.7468 238.96 15.8019 238.82 15.8294C238.68 15.857 238.55 15.8661 238.42 15.8661H235.83C235.68 15.8661 235.52 15.857 235.34 15.8386C235.16 15.8202 235 15.7468 234.84 15.6092C234.73 15.5174 234.64 15.4073 234.58 15.288C234.52 15.1687 234.47 15.0402 234.44 14.9118C234.41 14.7833 234.39 14.6548 234.38 14.5264C234.37 14.3979 234.37 14.2878 234.37 14.1868C234.37 13.9574 234.4 13.728 234.45 13.5078C234.5 13.2875 234.63 13.0857 234.83 12.9205C235 12.7736 235.17 12.6911 235.35 12.6635C235.53 12.636 235.68 12.6176 235.83 12.6176H238.18V12.2506C238.18 12.168 238.17 12.0854 238.15 12.0028C238.13 11.9202 238.09 11.8376 238.02 11.7551C237.94 11.6541 237.84 11.5899 237.74 11.5715C237.63 11.544 237.53 11.5348 237.44 11.5348H234.77V10.6355H237.87ZM236.21 13.4986C236.17 13.4986 236.1 13.5078 236.01 13.5261C235.92 13.5445 235.84 13.5904 235.77 13.6821C235.75 13.7097 235.72 13.7647 235.69 13.8381C235.66 13.9207 235.64 14.0492 235.64 14.2419C235.64 14.3245 235.65 14.4162 235.67 14.5355C235.69 14.6548 235.73 14.7466 235.81 14.82C235.85 14.8567 235.91 14.8934 235.98 14.9301C236.05 14.9668 236.12 14.976 236.2 14.976H237.87C237.9 14.976 237.95 14.976 238 14.9668C238.05 14.9668 238.1 14.9485 238.14 14.9118C238.18 14.8751 238.2 14.8475 238.21 14.8108C238.22 14.7741 238.22 14.7374 238.22 14.7007V13.4986H236.21ZM242.1 11.0118C242.17 10.8649 242.29 10.7548 242.43 10.6814C242.58 10.608 242.73 10.5805 242.9 10.5805C243.07 10.5805 243.22 10.6172 243.37 10.6814C243.52 10.7548 243.63 10.8649 243.7 11.0118L245.9 15.857H244.67L243 11.8285C242.99 11.8009 242.97 11.7734 242.96 11.7367C242.95 11.7 242.93 11.6816 242.9 11.6816C242.87 11.6816 242.85 11.7 242.84 11.7367C242.83 11.7734 242.81 11.8009 242.8 11.8285L241.13 15.857H239.9L242.1 11.0118ZM250.52 15.857L250.56 12.1405C250.56 12.1038 250.56 12.0671 250.56 12.0395C250.56 12.012 250.54 12.0028 250.5 12.0028C250.49 12.0028 250.47 12.012 250.45 12.0304C250.43 12.0487 250.4 12.0854 250.36 12.1405L247.98 15.4991C247.88 15.6367 247.78 15.7377 247.67 15.8111C247.56 15.8845 247.4 15.912 247.2 15.912C247.02 15.912 246.88 15.8845 246.78 15.8294C246.68 15.7744 246.6 15.7101 246.54 15.6459C246.49 15.5725 246.45 15.4991 246.43 15.4073C246.41 15.3247 246.4 15.2421 246.4 15.1687V10.6355H247.6L247.55 14.352C247.55 14.3979 247.55 14.4346 247.56 14.453C247.57 14.4805 247.59 14.4897 247.63 14.4897C247.66 14.4897 247.69 14.4713 247.71 14.4438C247.73 14.4162 247.75 14.3795 247.77 14.352L250.18 10.9292C250.29 10.7823 250.41 10.6814 250.54 10.6355C250.67 10.5896 250.8 10.5713 250.92 10.5713C250.96 10.5713 251.03 10.5805 251.11 10.5896C251.2 10.5988 251.29 10.6263 251.37 10.6814C251.46 10.7365 251.53 10.8099 251.6 10.92C251.67 11.0209 251.7 11.1769 251.7 11.3696V15.857H250.52ZM254.36 15.857V11.5256H252.33V10.6355H257.59V11.5256H255.56V15.857H254.36ZM260.11 15.857C259.97 15.857 259.83 15.8478 259.68 15.8386C259.53 15.8294 259.38 15.8019 259.24 15.756C259.1 15.7101 258.96 15.6459 258.82 15.5541C258.68 15.4624 258.56 15.3431 258.45 15.1962C258.27 14.9485 258.16 14.6548 258.12 14.3153C258.08 13.9758 258.06 13.6362 258.06 13.2875C258.06 13.0489 258.07 12.8195 258.08 12.5993C258.09 12.3882 258.12 12.1864 258.16 12.012C258.2 11.8285 258.27 11.6633 258.35 11.5165C258.44 11.3696 258.55 11.232 258.7 11.1035C258.85 10.9751 259.02 10.8833 259.2 10.8191C259.38 10.7548 259.56 10.7089 259.75 10.6722C259.94 10.6355 260.11 10.6263 260.28 10.6172C260.45 10.608 260.6 10.608 260.73 10.608C261.05 10.608 261.37 10.6263 261.68 10.6631C261.99 10.6998 262.27 10.7915 262.52 10.9475C262.68 11.0485 262.8 11.1586 262.9 11.2871C263 11.4155 263.08 11.544 263.14 11.7C263.2 11.8468 263.24 12.0028 263.26 12.1588C263.28 12.324 263.29 12.48 263.29 12.6452C263.29 12.7736 263.28 12.9113 263.25 13.0581C263.22 13.1958 263.15 13.3242 263.04 13.4344C262.96 13.5169 262.87 13.5628 262.77 13.5904C262.67 13.6179 262.57 13.6271 262.46 13.6271H259.31C259.31 13.7372 259.32 13.8657 259.33 14.0125C259.34 14.1593 259.36 14.2694 259.38 14.352C259.42 14.4897 259.48 14.5998 259.55 14.6824C259.62 14.765 259.71 14.8292 259.82 14.8659C259.92 14.9118 260.03 14.9393 260.14 14.9485C260.25 14.9577 260.36 14.9668 260.47 14.9668H263.12V15.857H260.11ZM261.78 12.7461C261.9 12.7461 261.97 12.7094 262 12.6452C262.03 12.5809 262.05 12.5075 262.05 12.4341C262.05 12.2689 262.01 12.1313 261.94 12.012C261.87 11.8927 261.79 11.8009 261.7 11.7367C261.55 11.6266 261.38 11.5624 261.2 11.5348C261.02 11.5165 260.84 11.4981 260.67 11.4981C260.59 11.4981 260.5 11.4981 260.4 11.5073C260.3 11.5073 260.21 11.5256 260.1 11.544C260 11.5624 259.9 11.5991 259.8 11.6449C259.7 11.6908 259.61 11.7642 259.53 11.8468C259.41 11.9753 259.34 12.1221 259.32 12.2689C259.3 12.4158 259.29 12.5718 259.28 12.7461H261.78ZM265.85 11.0118C265.92 10.8649 266.04 10.7548 266.18 10.6814C266.33 10.608 266.48 10.5805 266.65 10.5805C266.82 10.5805 266.97 10.6172 267.12 10.6814C267.27 10.7548 267.38 10.8649 267.45 11.0118L269.65 15.857H268.42L266.75 11.8285C266.74 11.8009 266.72 11.7734 266.71 11.7367C266.7 11.7 266.68 11.6816 266.65 11.6816C266.62 11.6816 266.6 11.7 266.59 11.7367C266.58 11.7734 266.56 11.8009 266.55 11.8285L264.88 15.857H263.65L265.85 11.0118ZM271.35 10.6355V12.6176H273.79C273.96 12.6176 274.13 12.6452 274.31 12.6911C274.49 12.7369 274.65 12.8471 274.8 13.0122C274.96 13.1958 275.06 13.4068 275.1 13.6362C275.14 13.8657 275.16 14.0859 275.16 14.2969C275.16 14.3795 275.16 14.4805 275.15 14.5998C275.14 14.7191 275.13 14.8292 275.1 14.9485C275.07 15.0678 275.03 15.1779 274.98 15.2972C274.93 15.4073 274.85 15.5082 274.76 15.5908C274.6 15.7193 274.43 15.8019 274.25 15.8294C274.07 15.857 273.89 15.8661 273.72 15.8661H270.97C270.87 15.8661 270.77 15.857 270.67 15.8386C270.56 15.8202 270.46 15.7652 270.37 15.6734C270.27 15.5817 270.21 15.4807 270.19 15.3798C270.17 15.2788 270.16 15.1687 270.16 15.0678V10.6355H271.35ZM271.35 14.609C271.35 14.6457 271.35 14.6915 271.36 14.7558C271.36 14.8108 271.39 14.8567 271.43 14.9026C271.46 14.9393 271.5 14.9577 271.55 14.9668C271.6 14.976 271.65 14.9852 271.69 14.9852H273.25C273.34 14.9852 273.43 14.976 273.53 14.9577C273.63 14.9393 273.71 14.8934 273.79 14.8108C273.86 14.7374 273.9 14.6457 273.91 14.5355C273.92 14.4254 273.93 14.3245 273.93 14.2327C273.93 14.1593 273.92 14.0675 273.91 13.9574C273.9 13.8473 273.86 13.7555 273.78 13.6729C273.7 13.5904 273.62 13.5445 273.53 13.5261C273.44 13.5078 273.36 13.4986 273.29 13.4986H271.35V14.609ZM279.82 15.857V13.6087H277.23V15.857H276.03V10.6355H277.23V12.7278H279.82V10.6355H281.02V15.857H279.82ZM283.24 10.6355V12.6176H285.68C285.85 12.6176 286.02 12.6452 286.2 12.6911C286.38 12.7369 286.54 12.8471 286.69 13.0122C286.85 13.1958 286.95 13.4068 286.99 13.6362C287.03 13.8657 287.05 14.0859 287.05 14.2969C287.05 14.3795 287.05 14.4805 287.04 14.5998C287.03 14.7191 287.02 14.8292 286.99 14.9485C286.96 15.0678 286.92 15.1779 286.87 15.2972C286.82 15.4073 286.74 15.5082 286.65 15.5908C286.49 15.7193 286.32 15.8019 286.14 15.8294C285.96 15.857 285.78 15.8661 285.61 15.8661H282.86C282.76 15.8661 282.66 15.857 282.56 15.8386C282.45 15.8202 282.35 15.7652 282.26 15.6734C282.16 15.5817 282.1 15.4807 282.08 15.3798C282.06 15.2788 282.05 15.1687 282.05 15.0678V10.6355H283.24ZM283.24 14.609C283.24 14.6457 283.24 14.6915 283.25 14.7558C283.25 14.8108 283.28 14.8567 283.32 14.9026C283.35 14.9393 283.39 14.9577 283.44 14.9668C283.49 14.976 283.54 14.9852 283.58 14.9852H285.14C285.23 14.9852 285.32 14.976 285.42 14.9577C285.52 14.9393 285.6 14.8934 285.68 14.8108C285.75 14.7374 285.79 14.6457 285.8 14.5355C285.81 14.4254 285.82 14.3245 285.82 14.2327C285.82 14.1593 285.81 14.0675 285.8 13.9574C285.79 13.8473 285.75 13.7555 285.67 13.6729C285.59 13.5904 285.51 13.5445 285.42 13.5261C285.33 13.5078 285.25 13.4986 285.18 13.4986H283.24V14.609ZM287.7 10.6355H288.9V15.857H287.7V10.6355ZM294.02 15.857L294.06 12.1405C294.06 12.1038 294.06 12.0671 294.06 12.0395C294.06 12.012 294.04 12.0028 294 12.0028C293.99 12.0028 293.97 12.012 293.95 12.0304C293.93 12.0487 293.9 12.0854 293.86 12.1405L291.48 15.4991C291.38 15.6367 291.28 15.7377 291.17 15.8111C291.06 15.8845 290.9 15.912 290.7 15.912C290.52 15.912 290.38 15.8845 290.28 15.8294C290.18 15.7744 290.1 15.7101 290.04 15.6459C289.99 15.5725 289.95 15.4991 289.93 15.4073C289.91 15.3247 289.9 15.2421 289.9 15.1687V10.6355H291.1L291.05 14.352C291.05 14.3979 291.05 14.4346 291.06 14.453C291.07 14.4805 291.09 14.4897 291.13 14.4897C291.16 14.4897 291.19 14.4713 291.21 14.4438C291.23 14.4162 291.25 14.3795 291.27 14.352L293.68 10.9292C293.79 10.7823 293.91 10.6814 294.04 10.6355C294.17 10.5896 294.3 10.5713 294.42 10.5713C294.46 10.5713 294.53 10.5805 294.61 10.5896C294.7 10.5988 294.79 10.6263 294.87 10.6814C294.96 10.7365 295.03 10.8099 295.1 10.92C295.17 11.0209 295.2 11.1769 295.2 11.3696V15.857H294.02ZM292.94 9.64446C293.07 9.61693 293.18 9.5527 293.28 9.45176C293.33 9.3967 293.39 9.33246 293.43 9.24987C293.48 9.16728 293.51 9.09387 293.53 9.02964H294.46C294.41 9.22234 294.33 9.40587 294.22 9.5894C294.11 9.77293 294 9.91976 293.88 10.0207C293.68 10.1951 293.46 10.296 293.22 10.3419C292.97 10.3878 292.76 10.4061 292.58 10.4061C292.4 10.4061 292.18 10.3878 291.94 10.3419C291.69 10.296 291.47 10.1951 291.28 10.0207C291.16 9.91976 291.04 9.77293 290.94 9.5894C290.83 9.40587 290.75 9.22234 290.7 9.02964H291.63C291.65 9.09387 291.68 9.16728 291.73 9.24987C291.78 9.33246 291.83 9.3967 291.88 9.45176C291.98 9.5527 292.1 9.61693 292.22 9.64446C292.35 9.67199 292.47 9.69034 292.58 9.69034C292.7 9.69034 292.82 9.67199 292.94 9.64446ZM302.9 10.6355C303.04 10.6355 303.17 10.6447 303.3 10.6722C303.43 10.6998 303.55 10.7732 303.65 10.8925C303.73 10.9842 303.78 11.0852 303.8 11.1861C303.82 11.2871 303.83 11.3972 303.83 11.5073V15.857H302.63V11.8285C302.63 11.7918 302.63 11.7551 302.62 11.7092C302.61 11.6633 302.59 11.6174 302.56 11.5899C302.53 11.5715 302.5 11.5532 302.46 11.544C302.42 11.5348 302.38 11.5256 302.35 11.5256H300.33C300.23 11.5256 300.17 11.544 300.13 11.5807C300.1 11.6082 300.08 11.6449 300.07 11.6908C300.06 11.7367 300.05 11.7826 300.05 11.8285V15.857H298.85V11.5073C298.85 11.4155 298.86 11.3146 298.87 11.2136C298.88 11.1127 298.94 11.0026 299.03 10.8925C299.15 10.764 299.27 10.6814 299.4 10.6631C299.53 10.6447 299.65 10.6355 299.77 10.6355H302.9ZM306.52 11.0118C306.59 10.8649 306.71 10.7548 306.85 10.6814C307 10.608 307.15 10.5805 307.32 10.5805C307.49 10.5805 307.64 10.6172 307.79 10.6814C307.94 10.7548 308.05 10.8649 308.12 11.0118L310.32 15.857H309.09L307.42 11.8285C307.41 11.8009 307.39 11.7734 307.38 11.7367C307.37 11.7 307.35 11.6816 307.32 11.6816C307.29 11.6816 307.27 11.7 307.26 11.7367C307.25 11.7734 307.23 11.8009 307.22 11.8285L305.55 15.857H304.32L306.52 11.0118ZM314.16 10.6355C314.39 10.6355 314.61 10.6722 314.8 10.7456C315 10.8191 315.16 10.92 315.28 11.0393C315.4 11.1494 315.49 11.3146 315.57 11.5165C315.64 11.7275 315.68 11.9753 315.68 12.2689V14.976C315.68 15.0678 315.67 15.1779 315.64 15.3155C315.62 15.444 315.56 15.5541 315.46 15.6551C315.36 15.7468 315.25 15.8019 315.11 15.8294C314.97 15.857 314.84 15.8661 314.71 15.8661H312.12C311.97 15.8661 311.81 15.857 311.63 15.8386C311.45 15.8202 311.29 15.7468 311.13 15.6092C311.02 15.5174 310.93 15.4073 310.87 15.288C310.81 15.1687 310.76 15.0402 310.73 14.9118C310.7 14.7833 310.68 14.6548 310.67 14.5264C310.66 14.3979 310.66 14.2878 310.66 14.1868C310.66 13.9574 310.69 13.728 310.74 13.5078C310.79 13.2875 310.92 13.0857 311.12 12.9205C311.29 12.7736 311.46 12.6911 311.64 12.6635C311.82 12.636 311.97 12.6176 312.12 12.6176H314.47V12.2506C314.47 12.168 314.46 12.0854 314.44 12.0028C314.42 11.9202 314.38 11.8376 314.31 11.7551C314.23 11.6541 314.13 11.5899 314.03 11.5715C313.92 11.544 313.82 11.5348 313.73 11.5348H311.06V10.6355H314.16ZM312.49 13.4986C312.45 13.4986 312.38 13.5078 312.29 13.5261C312.2 13.5445 312.12 13.5904 312.05 13.6821C312.03 13.7097 312 13.7647 311.97 13.8381C311.94 13.9207 311.92 14.0492 311.92 14.2419C311.92 14.3245 311.93 14.4162 311.95 14.5355C311.97 14.6548 312.01 14.7466 312.09 14.82C312.13 14.8567 312.19 14.8934 312.26 14.9301C312.33 14.9668 312.4 14.976 312.48 14.976H314.15C314.18 14.976 314.23 14.976 314.28 14.9668C314.33 14.9668 314.38 14.9485 314.42 14.9118C314.46 14.8751 314.48 14.8475 314.49 14.8108C314.5 14.7741 314.5 14.7374 314.5 14.7007V13.4986H312.49ZM318.67 15.857C318.57 15.857 318.45 15.8478 318.31 15.8386C318.17 15.8294 318.03 15.7927 317.89 15.7468C317.75 15.701 317.6 15.6367 317.46 15.5541C317.31 15.4715 317.18 15.3614 317.06 15.2146C316.84 14.9577 316.7 14.6732 316.65 14.352C316.6 14.0308 316.57 13.6913 316.57 13.3151C316.57 13.1591 316.57 12.9847 316.58 12.8012C316.59 12.6176 316.61 12.4341 316.65 12.2414C316.69 12.0579 316.75 11.8744 316.83 11.6908C316.91 11.5073 317.03 11.3421 317.18 11.1953C317.23 11.1402 317.31 11.0852 317.39 11.0209C317.48 10.9567 317.59 10.8925 317.72 10.8374C317.85 10.7823 318.01 10.7365 318.19 10.6906C318.37 10.6539 318.58 10.6355 318.83 10.6355H321.15V11.5256H319.22C318.82 11.5256 318.51 11.6082 318.31 11.7734C318.1 11.9386 317.96 12.1313 317.9 12.3515C317.88 12.4249 317.86 12.5075 317.85 12.5993C317.84 12.6911 317.83 12.792 317.82 12.8838C317.82 12.9755 317.81 13.0673 317.81 13.1499C317.81 13.2325 317.8 13.2967 317.8 13.3334C317.8 13.416 317.8 13.4986 317.81 13.5904C317.81 13.6821 317.82 13.7831 317.84 13.884C317.85 13.9849 317.87 14.0767 317.9 14.1777C317.92 14.2694 317.95 14.352 317.99 14.4162C318.06 14.5447 318.14 14.6365 318.25 14.7099C318.35 14.7833 318.46 14.8384 318.59 14.8751C318.71 14.9118 318.84 14.9393 318.97 14.9485C319.1 14.9577 319.23 14.9668 319.35 14.9668H321.29V15.857H318.67ZM323.78 15.857V11.5256H321.75V10.6355H327.01V11.5256H324.98V15.857H323.78ZM328.82 10.6355V12.6176H331.26C331.43 12.6176 331.6 12.6452 331.78 12.6911C331.96 12.7369 332.12 12.8471 332.27 13.0122C332.43 13.1958 332.53 13.4068 332.57 13.6362C332.61 13.8657 332.63 14.0859 332.63 14.2969C332.63 14.3795 332.63 14.4805 332.62 14.5998C332.61 14.7191 332.6 14.8292 332.57 14.9485C332.54 15.0678 332.5 15.1779 332.45 15.2972C332.4 15.4073 332.32 15.5082 332.23 15.5908C332.07 15.7193 331.9 15.8019 331.72 15.8294C331.54 15.857 331.36 15.8661 331.19 15.8661H328.44C328.34 15.8661 328.24 15.857 328.14 15.8386C328.03 15.8202 327.93 15.7652 327.84 15.6734C327.74 15.5817 327.68 15.4807 327.66 15.3798C327.64 15.2788 327.63 15.1687 327.63 15.0678V10.6355H328.82ZM328.82 14.609C328.82 14.6457 328.82 14.6915 328.83 14.7558C328.83 14.8108 328.86 14.8567 328.9 14.9026C328.93 14.9393 328.97 14.9577 329.02 14.9668C329.07 14.976 329.12 14.9852 329.16 14.9852H330.72C330.81 14.9852 330.9 14.976 331 14.9577C331.1 14.9393 331.18 14.8934 331.26 14.8108C331.33 14.7374 331.37 14.6457 331.38 14.5355C331.39 14.4254 331.4 14.3245 331.4 14.2327C331.4 14.1593 331.39 14.0675 331.38 13.9574C331.37 13.8473 331.33 13.7555 331.25 13.6729C331.17 13.5904 331.09 13.5445 331 13.5261C330.91 13.5078 330.83 13.4986 330.76 13.4986H328.82V14.609ZM333.28 10.6355H334.48V15.857H333.28V10.6355ZM336.69 17.5363H335.49V11.4431C335.49 11.2687 335.52 11.1402 335.59 11.0301C335.66 10.9292 335.73 10.8558 335.79 10.8007C335.89 10.7273 336 10.6814 336.13 10.6631C336.25 10.6447 336.37 10.6355 336.47 10.6355H338.36C338.45 10.6355 338.56 10.6447 338.68 10.6539C338.81 10.6631 338.94 10.6906 339.09 10.7273C339.24 10.764 339.38 10.8282 339.53 10.9016C339.68 10.9751 339.82 11.0852 339.95 11.2136C340.09 11.3513 340.19 11.5073 340.27 11.6633C340.35 11.8285 340.41 11.9936 340.44 12.168C340.48 12.3424 340.5 12.5075 340.51 12.6727C340.52 12.8379 340.52 12.9939 340.52 13.1407C340.52 13.3151 340.52 13.4894 340.51 13.6638C340.5 13.8381 340.48 14.0125 340.45 14.1868C340.42 14.3612 340.37 14.5264 340.32 14.6824C340.26 14.8384 340.19 14.9852 340.09 15.1137C339.96 15.288 339.82 15.4348 339.66 15.5358C339.5 15.6367 339.33 15.7101 339.16 15.7652C338.99 15.8111 338.82 15.8478 338.65 15.857C338.48 15.8661 338.33 15.8753 338.2 15.8753H336.69V17.5363ZM338.05 14.976C338.35 14.976 338.58 14.921 338.73 14.8108C338.89 14.7007 339 14.5998 339.07 14.4897C339.12 14.4071 339.18 14.2786 339.22 14.0951C339.27 13.9115 339.29 13.6271 339.29 13.2417C339.29 12.8838 339.27 12.6268 339.24 12.4708C339.21 12.3056 339.18 12.1955 339.14 12.1221C339.06 11.9478 338.94 11.8101 338.76 11.7C338.58 11.5899 338.36 11.5348 338.1 11.5348H336.92C336.89 11.5348 336.86 11.544 336.83 11.5624C336.8 11.5807 336.77 11.5899 336.75 11.6082C336.7 11.6633 336.67 11.7184 336.67 11.7826V14.9852H338.05V14.976ZM342.61 10.6355V12.6176H345.05C345.22 12.6176 345.39 12.6452 345.57 12.6911C345.75 12.7369 345.91 12.8471 346.06 13.0122C346.22 13.1958 346.32 13.4068 346.36 13.6362C346.4 13.8657 346.42 14.0859 346.42 14.2969C346.42 14.3795 346.42 14.4805 346.41 14.5998C346.4 14.7191 346.39 14.8292 346.36 14.9485C346.33 15.0678 346.29 15.1779 346.24 15.2972C346.19 15.4073 346.11 15.5082 346.02 15.5908C345.86 15.7193 345.69 15.8019 345.51 15.8294C345.33 15.857 345.15 15.8661 344.98 15.8661H342.23C342.13 15.8661 342.03 15.857 341.93 15.8386C341.82 15.8202 341.72 15.7652 341.63 15.6734C341.53 15.5817 341.47 15.4807 341.45 15.3798C341.43 15.2788 341.42 15.1687 341.42 15.0678V10.6355H342.61ZM342.61 14.609C342.61 14.6457 342.61 14.6915 342.62 14.7558C342.62 14.8108 342.65 14.8567 342.69 14.9026C342.72 14.9393 342.76 14.9577 342.81 14.9668C342.86 14.976 342.91 14.9852 342.95 14.9852H344.51C344.6 14.9852 344.69 14.976 344.79 14.9577C344.89 14.9393 344.97 14.8934 345.05 14.8108C345.12 14.7374 345.16 14.6457 345.17 14.5355C345.18 14.4254 345.19 14.3245 345.19 14.2327C345.19 14.1593 345.18 14.0675 345.17 13.9574C345.16 13.8473 345.12 13.7555 345.04 13.6729C344.96 13.5904 344.88 13.5445 344.79 13.5261C344.7 13.5078 344.62 13.4986 344.55 13.4986H342.61V14.609Z" fill="black"/>
</svg>
